<mxfile host="app.diagrams.net" agent="Mozilla/5.0 (X11; Linux x86_64) AppleWebKit/537.36 (KHTML, like Gecko) Chrome/131.0.0.0 Safari/537.36" version="25.0.3" pages="4">
  <diagram name="第 1 页" id="VoPI_0F3KMxi5ye2Go5d">
    <mxGraphModel dx="1362" dy="759" grid="1" gridSize="10" guides="1" tooltips="1" connect="1" arrows="1" fold="1" page="1" pageScale="1" pageWidth="827" pageHeight="1169" math="0" shadow="0">
      <root>
        <mxCell id="0" />
        <mxCell id="1" parent="0" />
        <mxCell id="8oP75aTr-c_-j5k7FrEE-1" value="" style="edgeStyle=orthogonalEdgeStyle;rounded=0;orthogonalLoop=1;jettySize=auto;html=1;" edge="1" parent="1" source="8oP75aTr-c_-j5k7FrEE-2" target="8oP75aTr-c_-j5k7FrEE-5">
          <mxGeometry relative="1" as="geometry" />
        </mxCell>
        <mxCell id="8oP75aTr-c_-j5k7FrEE-2" value="" style="shape=cube;whiteSpace=wrap;html=1;boundedLbl=1;backgroundOutline=1;darkOpacity=0.05;darkOpacity2=0.1;rotation=0;size=30;labelBackgroundColor=none;" vertex="1" parent="1">
          <mxGeometry x="50" y="20" width="50" height="130" as="geometry" />
        </mxCell>
        <mxCell id="8oP75aTr-c_-j5k7FrEE-4" value="" style="edgeStyle=orthogonalEdgeStyle;rounded=0;orthogonalLoop=1;jettySize=auto;html=1;" edge="1" parent="1" source="8oP75aTr-c_-j5k7FrEE-5" target="8oP75aTr-c_-j5k7FrEE-7">
          <mxGeometry relative="1" as="geometry" />
        </mxCell>
        <mxCell id="8oP75aTr-c_-j5k7FrEE-5" value="Conv2d+relu&lt;br&gt;+batchnorm2d(11,64)" style="whiteSpace=wrap;html=1;" vertex="1" parent="1">
          <mxGeometry x="150" y="65" width="140" height="40" as="geometry" />
        </mxCell>
        <mxCell id="8oP75aTr-c_-j5k7FrEE-6" value="" style="edgeStyle=orthogonalEdgeStyle;rounded=0;orthogonalLoop=1;jettySize=auto;html=1;" edge="1" parent="1" source="8oP75aTr-c_-j5k7FrEE-7" target="8oP75aTr-c_-j5k7FrEE-10">
          <mxGeometry relative="1" as="geometry" />
        </mxCell>
        <mxCell id="8oP75aTr-c_-j5k7FrEE-7" value="ContextAggregation&lt;br&gt;(64,64)" style="whiteSpace=wrap;html=1;" vertex="1" parent="1">
          <mxGeometry x="155" y="135" width="130" height="40" as="geometry" />
        </mxCell>
        <mxCell id="8oP75aTr-c_-j5k7FrEE-8" value="" style="edgeStyle=orthogonalEdgeStyle;rounded=0;orthogonalLoop=1;jettySize=auto;html=1;" edge="1" parent="1" source="8oP75aTr-c_-j5k7FrEE-10" target="8oP75aTr-c_-j5k7FrEE-12">
          <mxGeometry relative="1" as="geometry" />
        </mxCell>
        <mxCell id="8oP75aTr-c_-j5k7FrEE-9" style="edgeStyle=orthogonalEdgeStyle;rounded=0;orthogonalLoop=1;jettySize=auto;html=1;entryX=0;entryY=0.5;entryDx=0;entryDy=0;" edge="1" parent="1" source="8oP75aTr-c_-j5k7FrEE-10" target="8oP75aTr-c_-j5k7FrEE-17">
          <mxGeometry relative="1" as="geometry">
            <mxPoint x="420" y="250" as="targetPoint" />
          </mxGeometry>
        </mxCell>
        <mxCell id="8oP75aTr-c_-j5k7FrEE-10" value="Conv2d+relu&lt;br&gt;+batchnorm2d&lt;br&gt;(64,64)" style="whiteSpace=wrap;html=1;" vertex="1" parent="1">
          <mxGeometry x="170" y="220" width="100" height="60" as="geometry" />
        </mxCell>
        <mxCell id="8oP75aTr-c_-j5k7FrEE-11" value="" style="edgeStyle=orthogonalEdgeStyle;rounded=0;orthogonalLoop=1;jettySize=auto;html=1;" edge="1" parent="1" source="8oP75aTr-c_-j5k7FrEE-12" target="8oP75aTr-c_-j5k7FrEE-15">
          <mxGeometry relative="1" as="geometry">
            <mxPoint x="215" y="510" as="targetPoint" />
          </mxGeometry>
        </mxCell>
        <mxCell id="8oP75aTr-c_-j5k7FrEE-12" value="MaxPool2d[k3,s12](64，64)" style="whiteSpace=wrap;html=1;" vertex="1" parent="1">
          <mxGeometry x="135" y="335" width="170" height="30" as="geometry" />
        </mxCell>
        <mxCell id="8oP75aTr-c_-j5k7FrEE-13" value="unet(64,64)" style="whiteSpace=wrap;html=1;" vertex="1" parent="1">
          <mxGeometry x="155" y="420" width="120" height="30" as="geometry" />
        </mxCell>
        <mxCell id="8oP75aTr-c_-j5k7FrEE-14" value="" style="edgeStyle=orthogonalEdgeStyle;rounded=0;orthogonalLoop=1;jettySize=auto;html=1;" edge="1" parent="1" source="8oP75aTr-c_-j5k7FrEE-15" target="8oP75aTr-c_-j5k7FrEE-17">
          <mxGeometry relative="1" as="geometry" />
        </mxCell>
        <mxCell id="8oP75aTr-c_-j5k7FrEE-15" value="Dropout2d(p=0.5)(64,64)" style="whiteSpace=wrap;html=1;" vertex="1" parent="1">
          <mxGeometry x="140" y="490" width="160" height="30" as="geometry" />
        </mxCell>
        <mxCell id="8oP75aTr-c_-j5k7FrEE-16" value="" style="edgeStyle=orthogonalEdgeStyle;rounded=0;orthogonalLoop=1;jettySize=auto;html=1;" edge="1" parent="1" source="8oP75aTr-c_-j5k7FrEE-17" target="8oP75aTr-c_-j5k7FrEE-19">
          <mxGeometry relative="1" as="geometry" />
        </mxCell>
        <mxCell id="8oP75aTr-c_-j5k7FrEE-17" value="add(64,64)" style="whiteSpace=wrap;html=1;" vertex="1" parent="1">
          <mxGeometry x="360" y="235" width="80" height="30" as="geometry" />
        </mxCell>
        <mxCell id="8oP75aTr-c_-j5k7FrEE-18" value="" style="edgeStyle=orthogonalEdgeStyle;rounded=0;orthogonalLoop=1;jettySize=auto;html=1;" edge="1" parent="1" source="8oP75aTr-c_-j5k7FrEE-19" target="8oP75aTr-c_-j5k7FrEE-21">
          <mxGeometry relative="1" as="geometry" />
        </mxCell>
        <mxCell id="8oP75aTr-c_-j5k7FrEE-19" value="全连接层" style="whiteSpace=wrap;html=1;" vertex="1" parent="1">
          <mxGeometry x="360" y="130" width="80" height="30" as="geometry" />
        </mxCell>
        <mxCell id="8oP75aTr-c_-j5k7FrEE-20" value="" style="edgeStyle=orthogonalEdgeStyle;rounded=0;orthogonalLoop=1;jettySize=auto;html=1;" edge="1" parent="1" source="8oP75aTr-c_-j5k7FrEE-21" target="8oP75aTr-c_-j5k7FrEE-23">
          <mxGeometry relative="1" as="geometry" />
        </mxCell>
        <mxCell id="8oP75aTr-c_-j5k7FrEE-21" value="多头注意力层" style="whiteSpace=wrap;html=1;" vertex="1" parent="1">
          <mxGeometry x="480" y="130" width="80" height="30" as="geometry" />
        </mxCell>
        <mxCell id="8oP75aTr-c_-j5k7FrEE-22" value="" style="edgeStyle=orthogonalEdgeStyle;rounded=0;orthogonalLoop=1;jettySize=auto;html=1;" edge="1" parent="1" source="8oP75aTr-c_-j5k7FrEE-23" target="8oP75aTr-c_-j5k7FrEE-24">
          <mxGeometry relative="1" as="geometry" />
        </mxCell>
        <mxCell id="8oP75aTr-c_-j5k7FrEE-23" value="全连接层" style="whiteSpace=wrap;html=1;" vertex="1" parent="1">
          <mxGeometry x="590" y="130" width="80" height="30" as="geometry" />
        </mxCell>
        <mxCell id="8oP75aTr-c_-j5k7FrEE-24" value="强度预测模块" style="whiteSpace=wrap;html=1;" vertex="1" parent="1">
          <mxGeometry x="590" y="240" width="80" height="30" as="geometry" />
        </mxCell>
        <mxCell id="nFcsrD4fRPi4HEtRGf2f-1" value="" style="shape=image;verticalLabelPosition=bottom;labelBackgroundColor=default;verticalAlign=top;imageAspect=0;image=data:image/png,iVBORw0KGgoAAAANSUhEUgAACCQAAABICAYAAAAk9bb8AAAAOXRFWHRTb2Z0d2FyZQBNYXRwbG90bGliIHZlcnNpb24zLjkuMywgaHR0cHM6Ly9tYXRwbG90bGliLm9yZy/GU6VOAAAACXBIWXMAAA9hAAAPYQGoP6dpAABjBElEQVR4nO19IYMkN5JuFDBasEOHDDm+YA6swRwwMekB02TBPXDEC6bJgSXjX+AhBiZtsCYPvAVLukE3MTE4AxvcgEWPPDLE5IFe4EcM6oEuVauiIkIRoZBSWaWPdFemFIpUKpVSxJcRGwDYwsTExMTExMTExMTExMTExMTExMTExOpw9+INefz1x9uq+iWZlnqcjJ64e/FmsbYnJiYmJiYmJs4ZG5iEhImJiYmJiYmJiYmJiYmJiYmJiYmJUCSHPecE9zr0MSJIAiX5VrlUnaSnJCuKMEC1MckIExMTExMTExPLYBISJiZGw6uv6OM/fkkfv9n9vWyizcTEMqDG9Q1VUFkmlZNk3Bh+43aptjm9OFmS7t6ykfU1/ceV8Vyz5X5Rx7n/te1LSPfWov+coycmJiYmJiYmJipw/XBovrt6tllIkwkOHiKAx9GvlZsQLZ8jGpSOaa+Vq2chE/QgPExMTExMTExMTOgxCQkTE0vg1Vc8wYAiJHBlMZJDcGI8aByf3ntXcoqmMpJTNv+by+SOS21pymF9KOc+V87Tl6XrxselMpq2S/0t/V8Djc4asoVFP6087fkSPPdFq5NGprYMZDLT/1x9btxNTExMTExMTExM7DAJCWOiBZkgGnlUghoCBOXIt6Z6qO0vLylhkhBODNo9s/aDidI5ap9usatINqiSviVo2+aO4eNAlMf61tp8NHJKsiWbYkLpOlIZ6321wGJX1cihjidw10K1HfGxUsmmmkP7kdm0hS0DS9/P+zRRgUlImJjoBe1kjQkJEhkh4gVQ+urbUtcCy5fUFjm1Xz2XHLAe/XJw/W35etv6NbrW2RrxFXm0Y71lG63bidTTK7+GHGB5BizjNXJD5z1fWydqfpBkz8X9xMRqkBxE0zE0MTExMdESOSGh2TtH4zQ55XVqy/0bgbv/fAOvv7k9OpYjnc/L4jJaYKd8SzIFvi4N0nVRffL6m1uyvygZqWyuy142R0zQfFRQQpQ9Kv3Odattp+UHET3g3YNH2x45xy6Azt7htddpZNWgdF1WWSXHuSRXarckW+Mox79LZJFIm6jlOdSMDa5PS/3hBWev4mxYFCGGgsbG3XLtIZFzpDKAjtW0L71/Sv2usetK+kltTEwEYxISJiaUqPoaIX8xfL0jHGijHrRGlIOQQ88NSktw1/F8C/BLYSykMpqyVB0KVnkaeO+VtHHJj+NNmgTNBoNqp7TJkGRrFr4tSRK1G+Vez1rEhl+7sVtq/qh9FrSQNhsTpw0pUlKGJ0e3Ruh0hk+cIKzOMOsc+ipbl6e2vv4K4C/Z83kJ6md2YmJioiVCCAmleVKzPm8B7x7RggZ7C86Brq3LOd7xby8BoQRLCgUAW4QFTm+ufn583weKe4aJB+nY629uD+ofkRqktYQHJQeoth53jrOHtHRia3WjjkfalzR1WtsNSk5rII5TDm+unJcgUTrmhdfuw53n+gmXt/SRxl5H1fUSLXKZqb6WEJDrQulXag87jGtsh972ufKc09xzb1pAe40JFhJHssvjcfCTwt2Kbf7Jvv98C/Dp5rDtdCzph30F2DcgESYo3VJ7+XXk5T7dHNfLj1HnpbqW80vi0025zIQZk5DghXZBxk2809kgY0kHtvDCuf6MMQBY9P0aRUBIBk9qTJQWd5xxlHpJUMcBdC8trv0o56x1QwRw/JxxC10LqAUUdZ4qT7XbYvPVaqGm3SxZZUnHauRRx2sX3y36domFdU2/aDYElnPc5s/7bEjPecR9jKzrnQep69od0+RptZ5POl5/toWrHza8LtMZF4dXNmLi9cPjvbn+bEsQE0pL+XR+bqRa4vphW3YMtdpkn9MmmVuf1SCf217tiAhfZ38Bns5HGNcnAG7QOyehVx9pn0Vp/5TOe57rSKNbSwOeZHikCNGUQXVpWI3s1ro9wOiR7BJXzzZ99y+UwV4rq9SnJSeHts01QjneWpEVDkgRaC72RFCwpHXA+xXqd14fkxYoMoKEu/98Q0dIiHBMtsTSc5LHprAkam2M+XFgzrfQo6UdsFaGZg4HoYxkv8mPaftBuj+W97+2X77+6pDAXKofNTdItumavUmSbek3zVqdspsnUB/VUfdUsslTurRa65XqcTZKj/M97xdpnEukgJJ/J5e1VoKAFbW2Ek0/aPrLS8pYek/l3RMU6m3ghrZikkYCLaJfcqdqwDnla4x6iKSXY81muHSc2jhfFqIkaJ1uWocfdv5IiwRu/GA2G3cOQ3uvPM+610nXQpco1Bi7lkZp/PfUA4N7TqgNC/5fgvZ6LRsjShZ+1jUbNI18q05a2dq62rmN21hwMizHQFHWMra1MrlzkZtB4ZothATNl0t7QsJOfnJ8Hz1Hk4wQCwchASCPkrCBMp8Yl1l4IzPBI2Kzf06khEjkzyJOmZaOTzSBisQTiZ+2Mc9J1POa9Olp7GtJoMi/8FracBaJKGdCw7YeyYobV121kZGCp0962A40sqS9SgJqEzv+cdoE1hEutcFBsQeOSrOQRwugru3I4c+QB6LSQJSIDAdkBPQ/BWmfxGJEm00O775akld7zZy9Q7JdeG3g0p678BybYLUbUHU4+7DVlq3RywuLPSlBKo9tcxE2klwebp8ae5xt0doePt5iPFHnODsiBjcHaMdh+g1CeY3+uBylowc4IoBkX8zbL/Vz6Vqk/uLk/UTo6l3r5/uVXC6Wk0dToI7neuYoRT1YC0aJulCrh+Y8QJ0fIRo19vzd8UdrJXGyipAQCe8ipSU0E5MFEYsyGCx/bf4wSUYJ7USvQUT4+oIObIQEkOuZ2gc4dlZoFtsY+CWDZfT6isWycOk5iXqeNc4oUFq8jQ7pxWG9fy3vt2XhGAHPBorbjOfnItrR6mE5p9HDeg8kY1ppAyUdByj3lVaXCDk1kPpoh1a5XbExjnQQUe+jXmuznm0NjS1cP5TSNjwu6flzEy0R5lzlwidqNqkTMjgikHYPVmtIPVdY93mt+uunLdz96VH4678HL9StBq9KYsDdny7jr0FoT41ESqD2nSWU1qatEWmT8LRpQG6PAGgUIaE3Ss6jiHmhYR9RaRcAoF5vxTq41R6hBG3KBossTRqHGj00BAYAGP95ar03ldqqqd/C5sG1gc9p7QepTkLpvcDZ8iV9cBkttHW1fYDlaew2WL40d2vnP8k+4x0rGpsV1zbAIUn5L1/GOcIlfSSbP75/XB+V7ErWZ6GkpyS7NN5q2rXqqB1P3DOhvW4JFmK0xh6QkxFq/DmXTHtS2y3OjW7P8NhoIlG6x5Z9tnXuAqVsS7uXQoSEbtBc+KkBT1jUAs2BYQkJCSmnjrS5xJO05qVd8+LXIpMjkhKAaQ9fp6Sv8cvJKiQ9NC+x2n5uaehZkRHJLM/6wohqt2d71gVmArUp0Cx0uTmW27h5Xs6ajYFUr1SHKhe54S2hZsFjqR+BiLZK44HaIFrbLckG+QshfB6DMtjlxjjWoZpvyHt9LVyxFjo1HOaKBtCnaMDHJlqhy5feGkPBRBkSKaH3GnyiOyzOsxpnW6SjrtiWh5hQ+7WWFkutPTUyeq5DJT0qyx1ERwCmLOfEoM6X2tesh4NtL6GwOCMwpH5QrOFboBdhWdOud96T0jFo6tb0Qek6I57R7nNNyaastVt47TO4Hesz4LU3am0oteD6ikLpWkq2cUq2Zd4tzVN47pfeD7icpAsGNRaixgdnE6PKa23yGNLzIfVpjY26pCv3btbIyuVpn3eN7bGkR0m3fLxbxkfEPK2pq7G7LhFpoPT1PAA/V6Vja4uQ4CVBrBnJX1d61jXnrM9u7TuUaW9ZQoLmotZkkC5N6tqNW8U1dw9/maB9GWJoJ24r40taJOVlnA/VPoKItNjxvohTaOzIENlLGlw0aLVJ0JTFKG0qLIteTfvaSZ9bPHD6el4wtUY6y4stcgGrMSxpr4uTaZ1TqD7l6ns3R7hdjY5cXep/SZZm05KAx6i1vdL49o4lSUeqHaqudZMprQuYeScyDCpGkosJjW8eruH22dVjoYKD7s3Dtavt2x928vEzes6g3vu78fGUK9orfIG14Zmg69qbyhm5FpzCM655r2jfY+cGzXu6Qz+RjjTCqZ9HU0j/RyFvzyuby7EemlKiFr1SN0QYmkeBUp+nNUHWx5p9Hi7rXb/mxzG8DhjclmWvkbctPVLKfU6eoiAHFQVhHx1hoXl+hAgJ1nQJJXlcGziKAve/Rf4ROhvkze2Wng+rLbp0nrNpYLR2CnplSv3utXtxtrPS/dSctziTSjYgi22Da7/Uf1wZqT5VpqRbCdI9peR//dVj5AONHnlZ7j0qQWNfLtWV+prS22uf5trQnsvbLOmtlU/NadzzAKAbw5LeXD3OZrv0Hs8630u250vQrf+XsD94iNSt0yj0JD5oI8+X4H1nNnh3i4QENm1DhDKeDcaIoBYiVigcElp0JyRYBn1eJ//NPcQp7GP+tyeY+0kaAADoRSi3OJBeDqUcthbjHWW41o7V0Qw0HKL1tC5Yojen3AZHo4umDe1ixXpdktye4826kSvJKS1EOXCbROuGQwuPjlz7WBduM6vdfEmytP0jbUy0+kh65jKp/6k6pc1PCQHroJovlF5/vN0TD4oRlghHuZuIkIgOEyo83ZtSyQ1QkRMeUz0ssGk8IyxGBp6wA89lN/BkaLxkyqRyEiyGnwmdoT6q37K9UMn53zOyQVSb6hDkPVFaP4+2v4zay2nWg979R6n9HDWGROteiWpP28YStgass9e5skMiLpwbIaE2ioE0b3mjLFAEbkouFZGBhPa9z811HudbzTOVQ2MLkdrsOV+X9t/Ss6qdrzi52v1+rgclA9eRdJD+Uu3mMkt9IMFqd+B0knTnbElSezXvGE5n6p6W7J3Ss1h6F3ifWwklm+0S709JFwB+3GrqYmjshgCHfqL8f82zohlfUnlK9yW+zE/+soScLJAikKe+S7+TnnmqNZw+YaloD97IB0vV7YkIIkjUHls7HwltlQkJS+SkW5PhxvJSKL3wpIlNiW5GUesCPU1+Cemhph5uTECIeMFHvbAvM+cARdapaS9dJw6PTb14S2OE+4KOWqRpjQ6cztqx4IV1oWDVRbtY0RhOqA1FCVJ57cKf0xuIcpZ5qqZMZD2rvMgxo63n2SRL96bHs+WRK/W5Z1xFzA/a51f7v7XtmvmegnKe315vYXO1OTLcXby7gc3VZk8Y+OIP3wMAwHf/+Hz/f/qd8Dm8VZEREoEhJyPg3xImGWEHQwSk45QNHnRYF54xJiHhxFH7nl3TvrYViPc0u5+K7i8HIcGTxzwv44Hly15OT3X6BmsOW6k8lc+WQzKYUmkcLVjSEO+Fd89ClM/XBQAZ6dC7t0lYW58C+J1a1n0LYasjI5RUoORQx2Vr4CFCeUkIrYheVLo6jtwgze1Hfb7U3lCSmdBiz1wjl9pLU69Zr63OYj+IsHGlcgCycxugLEvjoLGOFcoOWHq35NDYGDQ2UKmPODulBbU2mpJM6hgmJ2tsrJr7q9WtBKn/tcD3n6pP2ZslXXJIzwj1gallrpDmVusYqbUFS+Nf67j2OrlbRiaw6BOhx1JO/rVGTvB+oO2dj7/e+SXTvBi9R7gckZBAOWhGR4Mb40FXgyjlIE3Ai+b0m3KSY0OHZaPIIWojwLzsDgxoNRsETs+vmXzd2hd/DkwCSXKoRYhlQeN1vlmdnN7zEWOgZkMkHY9GaXEGgh6WjZl209V7QRhdXrMBim6bu08lXXCfS2OgJJ8rq2mXA6UfJ1vqgxyccYDbpFH6SLpaUOqHmvFDXeMO2+vHeT0nIyQD28W7Y8GX//7t/v8v/vD9AREhIRESrh+28D08lb99drUnyb25+/3BcW+EBAq5vLMgLXgJCRIRMgcaM9Nh3hazf1eMG3had6d0ael/XM6KNexhWwLvK1AfspEYAWL6jjAGadIjUE4u6pwm7zlVfq8LQzDIy3OyqfK4zUXQ02YUjV77tmDsIzfmdole16HdN4wI77p/h/wZrXnmLA7+mvrRKDn4tZHaAGxkLI0uVF+pyQgYXnuSxnlWcqyV9saa/bRnr67ZK1P2Xq0cK0q2ypKD0HJdkg7Snp6bC/Pf2rakdiWZtba4kuz8nNQfFEp9x8m1jm2NHS8vm/bjVptRSY8SBDuPeyx64B372noJnL0RozT3WdrRlpXmNUBlqOvOIxP0htbxjf1uUiQALbxkCk8UglEjI/SOnCDdH+o9SJUBkOdZQMcp2VIdqr6ADQBsQw30EaBefKMbdawTueYlt3ZQDycOJ0OdL0G76PK+PAsw5WykUHrg84UR9+CXxgjV95j0kULz1Opes+j13IuIecnyPFL1vPXz8gnSolvTFrdRwbJxeWrjZrkO7eLPujEovQwt9aztWORJOpU2UxHXUdo8AhzfU+75xfWp8zm4jTfXBpanGWvchoHTpTQvRdxzbV1pg1357k9khIT794+VciPbxbub/fH8d05auH9/eURMoEgGWkJCNEFh3/apwkBImBgfk5CwAmCiATZCfo3SpZWez5Iha+IQxPvviJAQ3X+MkejuT5dqJ1qJZMCh5OTS1rU40fbkBW2UBAq1xrWSMbO0BrUYlmuw1B40ag+ww5FNItIeVULLdXUrROmUjdMqQkKljVNLjGoByvlPpUTgyFb4PCWba48iZ5XqA+zSasBTmo1c1yP0mH+ov9q2ez1f3Bqnh45W+xw+Bor6wXNyNTi7nsam45FvOaaVXbLnJUSOIW4elcYuXvf/5cun49IXwVrbLHW9XltnLaSxw9kSPTbhBMpWiMulaNkUqPumKV/SL/L9T8l6nukY5aheMl3Aks78taRQ4BBBZsBlpHQkOaj3tnW9eQOHH2x4bB2K560cIUH7NVY0TsmoY3EKVWAog6jkEK8FtYAH0Peh5WFEZYt5tiOAUzbUAucHokgfSxkNei6+qN8eGZpz3IK8tGDlxjQnC4jzpcUfhtQ+1Q7Wq4TSAlhzf6T2ehgVazbEnuNWWPrY0r5mw5KX620ckdot6a7d1FvOWTfga1nn7Bx3pQgGJJlBgbNM/2CMkDDM2m7iCF3WhQxSCpUJJajoB6++ossSz+ev118c/P7d1Xf7Y7+7+o4tl5dfPbj1oUcGZ7TVyii9xykC/KfHaY5K0Qa8edI1ucwlWbg8KR9FGgwhJVjBpV+koDVc50Zdqiy1d6HAndMar6Mh6WNcQycyAgD0i2iqWW+nY0AcHwne/X0GNxmh1lCcyUnO9dff3AJc7nT6BumUyebmOiskogHXjoVooG2TKkNhrwMiJZjvn8a+o4Fky7TI4t6jtc+e1gZQOlfbrqWsdh+eQ2Of0c573PmS7Z+yC5TsG6WyJZ0pu0j+m5KhtfdEPB+l9krXn0gFVJ38mvM9wF++fKxHRUyQ2pZ04vST1iUle1s0qLnD866X1vRSH5Sek4ixRLVHnS+tGalnCGPEUP8WuWtw9i8Fa99QEeFrEL3+0Mjg5tJSm8oyGwCCkLCreJSyobRwnzhEGjD4K5waA8xgePluCx/eCw8X91LhHONaUIs8rYMpGtq2LDp9zYSMBUIGNY6o9BhUXQ6lly1edGjGc3Qfee93xGJH2vBoFvIW/bwGE7wQpupoFoJSu5rNC9WmZjOjaX9JtNSBe/5qxrv2edGOfe19luRqNgbpPLVZ0sig9CqV5+ppnl0Ommeaqb/leKPJb38FcPnwLV1GgSOHJhERYW0Y2knLhYQnMMkI42MSElYETATCZAQcPSFDTjLIiQgUNOdXCWkfWzK05uW0a1NJB65efp4gJOQpG6iUCPgYAO+0KznQNJEOJHA6HZASEPHg4Pp6kRK0Bjrrvl+Tb3jpfYR2zxZlvOPqJUjPJVWHcw5QTgZN+xS0Mnrv67z35PJ4TjA5taU9lBHs3PTN7QFRAUcEiIigYJkfObKWJa1DKs/N21qYU22UbEb4uOU+au0hGpmGfaUL0niV3v+Rdi98nrJHcXbLkgwsT1qfRM7T3BzM6atpx2JzK9lX8DnpPUHJ0egp6UTdB807LuHrbD1/Qxx/9dUTEQHgMDICdsRp7TeWNYHH1mS1YUnnau6D9JtCfu9+ItZ3qS73RXju2KX6jtI11y8vg9vPxzLeO+Q64Gvh1kv4OnrAk75hrYiIvgAwfgQGb4QECRTBQIuI+QeVEyMkDIPIxdQSwBPgKyIMUMA11hiuRWIBs7h7+e546Hx4v9G9SLmXUAtYnD/SS2Ung0zZoIW0YMNjJIHLY1saM9qvVWrRyohgWcDVytS2GSWvVCYZ4aI2QLXGIG6D5JGlqVNzj2ug6SMgyrR+BiLGWYu6EYh+5iJR6n+rQUPbJkIiJGxgw5MTJJEP38LNs7dVpAWANmkZouVqZC3uwO2crmGSGtphSTLC8AjY3+B9BrdPKZKjAeiUDRhpb4bK5lEQqP8xpGgJqycjWFC49zVz0/4+PEf9id+7uWERRREogQpFjs97oyd4cfTFcUY6SKko0nmJkBBKXPB8MVTa33Hg9kTUekvaQ0nreXy8VBbrhqEtJ7VFIDRCAm43wvaGZS2xr8Ow3Auq/A6YtHQgS9N33Div7JsD4gGRnkCDCOKUdM4rP/1PQUUQuXnsi0TQ2P9lyqptOLgeVy7apqWRby1H2aZb2X5K9lnr9Uh2dc17w/oOodrBbVr7UKOHVIeax7U28FQvyv6i7Vur/dH6Ps3P56SDXNYrIix5Kk857rixFmWzjYDGhpXDs34Cogx+32PZl3DsYMXk01QPR3nGa8ea8U1F4cp1lhzVHPI6uFwr53YLx7knlUDrc5a6OdlgFGJBDm4MafXEz4r2mYh4P1tQegfsjm8AYGtePHkVqZGxVlCOZcPXcRZgw47KQJfhqHzhBZ8bCkUyA1G3aHDI65YWKprNgmUxnbdNyNkTEn7Y0C9k3KZmI57LiRofqZ3naHJuYQiIWkBRfeW9/6V741nwa2Tg9ms2cqWxg/Xg9KpZLEsbPCxTqqsFt3iNGl+1mwWNbM1xSz3NeNPCK6vXgkczpkvPSkk/yMpqZZVAbcI0G3FOtx08BAQNcQGXqSUraNGK1LBE2y5ig/H9HkEmmISEtojoX+t6fUIJLh1DjvSF1A4vX72DDz++Pyr28tU7AAD4rxd/BoByFISEf/v4132dvN5qiAnUXkaLwrvz+mEL//G3P7v6QhNx4PXfbw4c70fnmVzkmq95e+dp99aFn7aPRAUmkkJYFIWaMKbcV2ocSnseLCuXJ+2PNO3m5aihJcmWyknrQUKnIzKCUFYFrq+0KO1P1wymH0pOchY1+3ABOCJCnrZBS0rQzjclspZGnkRgsOqkTZdjvmdauwuFWhul5Rla8jkr2Qei7AW19bV6actr9vbSOwPbDXAdzT2nymn0zmG1U5bsNpwuGjsm1SagMpb7juun/3EZaq/A7dOld3+pL7RlMUprjRKs9mrvGNHqopUdpYdlHObtUGnfOGfwJdARqkePWFBLPmiFUgSDyLpc+ah08xiW/pZS4tWsIb8mIsPkEdqlyDGRuKyJkOBVyLK5OSV0/CJO+0URrqOKbmCBdeGgcQxx5aTj3nICjqIk1OqDwRkDPA6y3OCjdYxJsGw0cl287WnreY0f1s1kaUEula0do6VNALegAuDvh9Reqe0cns0y1lNzjzVtUW1a61pkS8e940tTPy8DinJeWDftmjraMlR5z7jxzA0W2Zq2tGOBmN85goE3aoIVXsLCkgSEJdpPJAWpzdvX/3z8p2OUhIl2iCYkWMgJVKQyAIAX7x6f1yWjgQxDsrDM/XkIV4Rf//3/wL99/Ktbjf964XO8DwPLOoYrt0MicvzPf/8r/Mff/nxUNPWTRNzwfm2bYHGoUe1a22pFXtiTKHbki9d/vzmIBEESDj7dHDrvvrk9Nrx6DJCWOjhqX96+JaIftx+uXQ9LzgvLXpyC5ByRdEE4itCD5zppT8jJLl2bdY+m0SESnv0KOl8K5W9NEbBH3g+a4/l5gIM+LBEMcJqGWtRENciPJXCpcrhUDtJx6l0gRUigdCXReqxi1I7d6HpWObXPeM1e3SofUFuUXYGCZJ/RXD9uTyNXksPJ1upVY1Pn3oUeOwuup7mGiHdKrjflq7HYcyR7UC7Pohs1XrGciHlD25cWWzB33ZfAO37TF+1YjxRBgYqkEDlXJN1ynwmlL6U3d35JQsIS7XtlUfVq9KIiJnDgypUiLLQic5TarJ3zbuCJkHAJh+SD9DdFi8n/97ZVKBOfssFimNBOjmsH9YJrRFC4ftjCd+jDnqJBMHoij3T8UBtrTT1PWwZcf7aVIyRYgRdEAE+TRA6NMSFBYnlpda3pJ++COh3PEXl/Izc8pTEZMR9SOVRLcrQLZWDKYZSMJZQcST+ufe0GhNs8anWg9K01mkXNT5bnxiK75nnU1Pdu2LhzlvvBtZOA+0ratHOb69K4kf7ndKSQtduDaMDBE2UhR+uICyMSHXLnr4WQkJfFcj+Ht/A96Pty8XQUE2Ykxz1HLmgJTbv5HmIYkoEFUe/f3dxsuU8f/riBlz8/3d9VkxJq1rLE+vH64XEf9esv5SgTGL+7+s7s4D9IZWAgGUSQCWplRKd7ADB8KYxD5gLwxjKr8ZMiJaRjz7N2PeD2LN61fWublHM/KtojetnRNHs0DWr3zMzxfeSAj7fmdTgHd3QEAHk84b4r9CN2sOOoCDkxAc+BUfMeNbdikkHt/JejREaToiPsdcr75Zvb8v2ItJUmePeJedkWNgaufIt+iLDJKdZtbie5tq5mTqrtP+u1lGwcnD0Ozz+a60rQ2nC8dlKpD2psn7gOJiVzqbY1/Sm1U9Ijh2TD4sZryZalsbdr7X/cuNG0YYlEYNHNg/x68FfqiagA8OSshuy3hNYkX6uM0lf4tYjUXRPxALdnuTcaedpzPc7XpGHPnxkuSgIVLaFESqh418YTEqzQTCS9NlTByEN5cgaoX6+/eMx/GXSNFCEBwJhSIQrae2tZjLfaFHjhffgoGQmaxSNVr4Te/VZrxCktqLQGj9IClep/y331jkm8oLQszrXXpNkAlBb33DnNeUlfSacSqHYjnsVoaK47QrZ1Q1dTxrO5q9VJqidtUoAoE2H0iDQwUG0gUE7/XpERokDp2ytNBECZwBBJcMCySPLC638eEBLyMvn/OSFBoyNHlNBc+yQz+BAVIcECLYFhKaJD3r4WOTHDFNlNQvDczPVlIhpwEerePFzD//rbBwDg94PDI2Cfk/bFv7v67iBdgyb1BYaHlIBhdbpFtAdgi7JQk3udqmN2oOZGWI/BFR+rMaRhWAjbWtTutaOgeN6OojUuiZIjqBYeeVZbgQHmKAnSPp9qW7Ev5sgIlvQMrGxD2gYplQ0V+YCKZMD1J0c4KKXPwe1ieXlfifdR4wTz7IO99gGr3dSKWruFd5+sKW+91hbtYtsCBnXcM29565XsdQnc+LXeYwzKtqrpE27+Lb1XNO1wZfKPQ/EYyP+mr4cxvLZizoaLZWG9OXncMalPNTZ6qe+kcrm+VDut7IWe+YHSxyunZUoD6gv/JVIolCJFcPA433HUDA+0hIul0lbURJPQrGdrbf4WePw5u3qHhIQoQ70Eq8NphbDmBo3MJZoMo8ko9uGP6AHWvhCiF7gSpMW15oXbQgdrXSDqe19oAHKeae0iDqB9uBfueKTDTrM5imyjxYYnEtYNluc3J08y7kgbEw2oDZ9FBtZJu6mOGEPWTYPmnOa8pY52A2RFxLrBKk/Tb2DQy3INtcYajdyd/lvYFokHoxETaiMrUIgiLnRP3/D6n/Dm7vfk8f27nXnXv3m4NpMRKFgjLBzoOQkKEx2x37cQJIOX77bw/P1ruId7n3DOmFxaB6F3+8uf5Xnrxbtv4eP7t/vfnjQcQ8O7p0H49fqLfboGLyHhh/f/9+C3J/e5BC6k+NpQCp1OQXoW1eBynnqRG32jSQhcWxq7Vkto1+wj2My0DhOunnUPSe0ZLfvakl4FVEdIkNpG++30RX9+TSn6Qf5/ZIqGEkopFKS/qR73v9SeBRKZIY8kAQD19utoW9BS8iz2vdq2sFwvOLtjjX1H0ifa5pHL5NalWjulcM0HEUGsKM1TlA4lXb1ta21cJZmUPdNiKyu9g6g2S2Wkuh57YYSdz9JOgvddrG0/2vYIQBNcFfvCg2Otohm0gqW9Wt2spABNBAcNmWFkeKNmANT7D1r6r4y28g0AbJtPUpbyI2yqHNBEQ+DKW+qVkEJgDg2r89MjoxekF73GqSq9wL9mSAnehbtlQYvPaw232kUpp7/XOZnqRi+8WqG1A7R0nzX1vOe8i+YaHSLaj9o0cZvgFhsqSQ+qLcvzoVmER7zzLfU8BpWI8U/1Z+Q4LRhksPO+hdO/FaJ0tVyPhcDgjTrgBU7XkAgJFHHhc3gLV8825ogH2jIqfScpgUSKKJFyeH8P37r7ypQCQJliYamoCLhti0PTHaUDr02pc4Tx8c1n13D7w1N7L3/ekiTufeSSH67gzWf8M5WICPiaQ5y7o4B55x305a7Pbn+4Orgf+Xz027N7+OTh4khOfj9YCO9Lzde0mvNUagMPRicxuJypVtzAk6FXs5fUQLu/jlifLm2XEq4hpWu4/qw+Sk81au+rZq1O7WFQGcopb3Y+Y3D2hd0xVbSEWidK3uaNPgoCgH8eiko145lPayLDSCQyHEWCTdcg3a9RbJC1qL2+GluSxiaiRdR7Ja+foO2HvCyx3mSdmDV21pJNJpsrOMKSSE7g7KsWu4okN8mLKFeys3N9S907qjwng7OrWe4nN//g9qnzFvuYZHuX7FycTZOzb2IdsQ619xLg6av5aIJqC5shB8Hutzpoogv0bC+1GUBI+PXDn/f/S77aPAKgdD6VwR+kH32g3uqjYg+084vn2b7UpGyIeFAKF3CwkVrhw5kGEDUQMfEAl6POe3EQNlZ6CfZcSO/aevPZztC49ALe6tjSyINKWaWFiLVuDmoy0764ozbOAPQCRiqfw9IXS417a1u1CzJtf2plaxfOUGjPulkqQVogU23W3OOaly11ncCUbQlp81ZrnJWuydp3CqNiUb40RhOsc0dJZs291c4RaIO6ZjICwDKEBAqeKAtap77X+Z+crzhlQw4c4YBL7WDVx6LzJCXwSOturzMdO++XIBK0bNfqhBdTiyAHt2otUvveg2PigkRKAICDCAkJqR+211sAYphQ89sG5L6zlsf1tOVLuIAnYsE93O9/l6JZ1BCmuPnriz98r6ovpTGoSY9Qaoc6ZykjhSa36tOajJCnYAHIIjbWrtMpePY0nMySkX0pEPqnlA0Ag6RtSNA6YjCy4/sIAB5ngHY/u4M2/UIp0oj2WS2lKdCgZaoZigxQSoFg1YPTiyMx1M59B/WQE1ZM26BZR1idsd59tKWOdc8ZXZ+Dxi5YmntrbDWSjYrSQbJbaFGyf1BlS2tY7ZjctYejgnCEpgOCjmRzqxnzlN3OY8PV6qa1PXtsi5F2I8s8Iz1HGt2t1ySdj7D1avsGt/U82we1jpxF6ZT8LDnhNj/OOcV/2RwSdQHs0QFao5SigdO3hQ41kQScKRGwvzb5aCXfrvZ3QonEcFTu5V8fD/Qc69rnWTvPEigTEiyo3WQqjPMjg2O+/Hr9Bfzub//y+EXc7lq4wVwbJeH6YQvfvX/6ffS1D4Wa+6aB9JIE5twKgEO37vv6efZyAtA5MRNKi5pS/RxSCBtK3qjQGJIsizDqnHXxqtWPKuNZ6HG/qa+OauVLiFrAUvMAhnaj5dVHU5ZqR9qkWvuekqfVDZ8rzRUR/cShtHHXzHWSTlz/c3Kl49p1BvfbYxjQAI+1y0PHUW3ahpFICiUsfb21KSJKzv4S+eBzeHJoatMtUDKTvPQlvySrR0QF7LS3ECK8Dv+c7GElYWhIHTkhwYuP79/Ci3ffkv9/eH8sO/8S/83DNekAj4CWqMCVY8kImj1d7fu/A3JiQh4dIEfql+fvX++P3cGdu80e83h0G6/h9dGxTx4u4PbZ1QGZoQYp2sLts6vuEQkoJ2ONnB7gnItNYH1GpT1BySZkXX9r21wa3Noa0PGlEDwP5+kISBD3Mv8K+PXHW95hknBjizKQcEAm4L6uJ9o6ALcXlPbx2dg/cOx3TtXghYaQ4CVXldpJMBEiPGHtl0DUekiSU7JT5PU9bXrkcXYCyz5dY38BoYy1rcj+4crnQPMJTvMCACRJYf/McPNRpM0DH0tw2ogO3gPp2qxjg/r96qvDiMX52qA0Dq1jVQPNM6mRYbFfc+171mNepLZyJzXn2/DYZCPApX7Afpn0pTt3TkNIiIw8UEqJ0DO9A5ZjTfeAjxnr51ERAOSPzTE0aQixv1cbaX/vK44Y171tKILvZwOllA2WTU7Di7q45I0W93Af/sWHBWT6heffwa+/ZIPrb//y+E/2MpNICRdwcfB1CWe0yb9GAQD45d2joSvPW/ri3bdyGMxsgKQvgfAXQKowmgTwl0VVaGGEdMh6+fMWvngHcPW/He1xjKb8OUs5pf/yJVmUrUeBe7l4+q/HxKVZNGLgRSHh2DM560Eo09IQ7l04tb4vreRrNnr5udLmpQTOoKdZbONy2CgavSGwLCZS+zVjV9vXmueIe/4k/ahNNB4fmvuhgTRmNJtKXK4GyvHLOYeWdtxHY23Xk4gLN8/eFkkMkWkfeqF3OgsLltINy0zkES6KRQmJTPDi3bcH/6dz+f/4HACdIqGGRFCqA/D05XP6nzonpilYag3VQX5OVM77ISckAJwfKUHbDkVe0OLti0/E81pnl5dYUMqpHqGbRgev3l7k8wFGKZpPfo6yFeyjKwIcPHsHx1F7eVtpDsVl8zQsALC8Q5+Cci5LURJMERIkJ0IEHGtmTEIgSQkVe3DJaW99BjRkHs8zr42c0Iq4JDnze+uCdYiaj7my5HVLe2bP/lNC9PrFsy+22JhqnH2cXYCzC1kcp4LTozgvlewMkq7Ub2r8RDhJiTL5/KYm02RyDupz85BFb6qPub4Isq1S7xAARX9IzzO2z+e2+VqbshbUc1EaV9pxph3zUr9IaJFSIZfNgUoRluo7ni+VXqX5DuDwo9WcuJCuqzbqgLXOUtEXNO1LhAIPQYE6zo0TAPj1ly+O/Lke4I/UpTIlGaV2jqB4d+e+2lIESC/2ES6Zd3NshAQFErEAO9IxNMaaEQzp/+/6z+RxNjxHNvmTRIYdGcGDe7g/NEz+kX/IJEiDsUQu2A/q7EV3YGhg9MFEiCKJ4ZL+ug6HVdXIOUCmG46AkOOLd3AQiQLjwxsoM7Mwqy0P+4N1S3p9nS2GNIsBjo2nRY2z1FteI8O68LK0YdlESItorU6exRG1ePb2Qc/NtKVPAI6v0SKP2xxS5/My+W/cDvXM4QW9JLd0XjpGQbO5ljYZkjytDlw96bmg6mCdo8ezdrPAHdPI9W4+mX5ekogwwvpKi9GvBZMVor/U74UoEsDIJAYrcEoNa5sUsUBLSMgdbSVyQURaBkw6yKMzJPlJJ3wtCWzqtqh1iEdmi7bhcQ+BiQgAejLCqRAPItvgCAuJjGAhHZRSM9RGPIhA67QR6Xwr5HMf3uMf7Pel9RUcEhvSb2/EHFKf0dISBa0hRfnWOq3AXOvB17rO+fnoi19NHUtKE4+DxonIVDIRWJJEJcnKwfWZaU7U2H1q9oeefWPJJpTktbAL1TjrOBsKgKy3th81e3FDf1sjj1CEKkwUOHKS7/TGX/ZTbR+sW3Inu/Ke4LaPosqkcobnsTqSSMX6m4ukg/uw5h0CAE9jJhESap5Zjc2rVIZ6nrzPe+t1APZtcDpIenP2W+rLeSv5ocZ2zdkzNXPU8+1hhAQAn4O9FhFyveQAzfnalA2lOsJ4sRISSsQDDamgFf7Hv780lW+S+lXwQWyAipDAOWXSucKDK0UzAKj7MmQ05BEZfr1+HLgsvmZeZFmflvrOgvubLMLCTu4nDxfw27P7x3CZEgHg0p7fkyIdkCFNUZm83EFo3sI444gTNeF9EyTD7RfvHv9KhIQc4tdiP23h5S1R58ed8L98CS9/3tKpN9LLTMINHOZXAqhbFGhR2qi1MhRHLKyohWF+zqKDZYGlPadpX+NItciI0KO1jEZOhZA2a53sHn1Kz12U497TtuZYidTg3UCUoN14lGTkZSVDCTqnTdOgKbO0I96CtUVHqNWjta5cxAZvOglrmUiMqBPAIxlBk65B0i0RC7gICBI5oUQyiCAh5LIAgCRN4HN5+aMvkXui9/sW4+Z4T5fvf9dGBliyjVI7aS/ewlGnzZleCkG+pCOxa4qGDHjeI+0Al4cEAxzlID+e/67Vi7J7sGgxj3icGgTICAmePWDL+bK0N9futzV7mFwOdtpYwDmJGOdI6+crIi2MBZGRXTzRJKg6JRJBJLGB1cm6l/fstbXQPgMR8rBMpqzkUKdAfdFOnePKUPIsbVNtcvUl53vu7OdICFz7nB4AcNDPVMoFqh2KcFC6HhwhwfMs4f5hU0RQYzPIriOSFChiAufszvVLZb7+6in9tgeWd3Hevua8d05qSUjAPgjtR5FYJ+qelZzU+ZfvreztCeka0/U9R7pRfhfcbt5PSfelCAhLR03IUaOLhZAgPPeYkKCNVtCTfEB9CL9P7wBwEIGfQkp7uPcRK1IqpuAC9zf3RZ/s/ncioCNsAGDLpgO4uYeLy4sjxzYmFFBfLJwS6UBCuva8j6I2mZHkBAlpEJYQafC1GicxcUITUsRrtCgZcBMh4epZ2Ricy+SICWTu3R0h4eWrd4fl8wWRBji8TZKRI8KBLcmrKdvaQFIyNGhkJERs+rTGFs15CzSOYUu7Hud05HkrtNfIze01BodaY4XFQNfSKOm9Z1pnfale5BxWaoczynCbRKksHB+LJCWMgHOK6DDqtVw+fLtPLUGlmNCu70aK2ACwLFmBSteggTaqAQCfygGAJxy0SNtAERJyPfJzSW6KokA6/lqt60qIWN9SQDJxdITaPfGpEAtatrGBzZHzv4WTqrdTPxKck+3AYGTcO+N9LfVBAPmRALFm41IxJBke/VjkazKNUb7HnOWcn64/2z4SEloa3b37ZItsAPJrXfKZo/ZhGZpHBdGOmwaIJiRERpbRlud+c3UsUQ2sRAocop5N3wB0GPg0ZlV9yDiUvbA44Kl6ueN7CcJcKSpAKpMgOeU52SWZGlmSXFeqJCNxwaOntu0oWUdjCoB8b1DECU52yc5aInvk7bD2yCTbYsPJzzG6keW4soJNiIXH7iyteSQ7FcAhCSD5FPL/qbLpf8rxWwJ2JidHfamcRAaw2g4lnx4+x6VjoOokvfMyVH8ncB+gLkEu0KZZiKhbijYu1cdjlKqbj8uftvDrh6fI97+7+m7/TFjJBVEpGCKJDzVR+EsoZT7gytzDo/98cwEX5J1tSShoYZDobYzOSRgHZAQnWpEPNAMkh5acEAmcZgEgzoDsjZaQ55/EsEZIyEHm2ZSiJPz4JW3s+d9vy9ERMvkAcFy+hdOxBo2NHO56Gicpt0iNNg5JiyWpPYu8EeAhhngc11aZEc6Mmva154A5byU/9BgfJSd/qZ6nrVKZpAdXV7Mp5Ta21G8k27qW6eEEX4vDf1RCgBetrjcRE9L/0RgxqkF0yolSugYNqDUmh8iIB1ZY22bJCF60ehdZHUpKHbaXx3010rwyOrx9lUctXCKcuFS+dYSEGhLGd//4/OgYngt/e/Zo68B2gn36mCzq4l5GHjkRwG9AHwEj7pVAESEBoG7PScnzoqBHKXT4foxzDqZsrNR83c99nY8d5BTweao8jnagImAg+RrUzDk1c582qgwnw1I/ImqENHeSxwhn8oG+grPX+tW/1XnMfcWvcdy2AOWwzv+nnNcs6UNwYHPt5HK4CAI58DHpPrPw2J1qCF8KZ7NmfJfmtBocpIZA16eJUqGJNEGewwQjfA8pQkJKzZCnSc7Ll5zTFAGBsiVTZTSOb06fUn2ufc6ehfXL20h/82jNnGwNiQBDk+o6tc+V5+qVdOPKUOQL6t7m4PwJud65LAt2TvRqjBQRgQJFgrHWLZXJ5X662Tv5f/f8uz0hQXL+Lx0RQaPHn65+EWV6SQVWGVSdzQVcbNcQzWBEEgOXy7InPDe+Br0IC6HRGJx5JjlDcYmQkH8dBnD8FRxHSoBPswgKP77fR0fY13n11aNud78vX5OFLZiDY/T1RpTjNgotHLZRZIlo0oOm3Uh5nk1YqWwNmYBzGlv10Ti2a6E1FlqvqeR8t/Z9fpy736Xj2nZqUBqLEW0yfbu93B44U/Da5JRSGngxiRe2Mi2vpRRxgcNoERYAliVP3Dx7C//6DuC/ifVk6f79626JuBRRQWr3w/uN37iqgfd9no4lBOtIEREAbM/i2iMVLNFOasuaM7xnCPQecIdaZqIkWOa8j+/fwoc/bvhUkF6cKiEhes8DBnkeRO13s/+pvOn5V7FUmgLstO757GrnFa886bzqK/6BYCEhUHW05ADL+VL7Wh2S05wLk78v6wzXL+rLONOlcP01KRRKdUliAUCxjkY+lk1FotjPF5x9gfq/ZDtLQA7LAzJU4Ro59CImRsvMESlfFSUhtUuQWY7Gh0D4ISMuWBzzGptlzd4Et127P5GuIf1fK0d6zrSycmg+opTshzjqQKRfg+o3LYlES1rQnutNRliStBBFSNCMg0vY+1X/fv38kZCAzsPN44fkf79+rtdjhyN5cJwSgiv76y+HpIh9WgZCZn4dFFoQC7TAvIMNbGCzhe3ylteVgDKs9CAl9CYd1LQrERYs6RYi4SUkAMgREkopGziU0jWU6nHhTlhwoW6sL+ilSAIl5zK3AQE4XmzWAMvmylBtlxYgVmdsroe0KIyAljBgcdx7F/La/rDq5WlLe45alNZsVlo5eDyyreOVez4t1ymNoSiDKXeegjTHcOOgsAFe2iE+ujO8J06F4AAwBqnFGo1hxEgLWiS9Pr5/C//9/pFAkKc6AJCd+jhFA65bg9Ykhg9/LKwvW77HpDah3C4Z3eAmux5MJMvO5XVbP/uTuHCM+xeHL2PN139b2B7V42ScKqgICb89u4df3t3B8/evj/KL5tESfnt2v7cXpHIpagKGSFIoGXa1iNz3Ybm9oHRIpOgIAI82ieuHLVz90ND4rq2nMNBTX0Fj518C6xhWlvWAIj5IkROwHpLM9D9X30K6GJGMYEXt/aLIGpqIMVz/kukjCKenJVWD+loaRyxoAS1pAeD036cjXZ9FlyX05ubT/XmC7EK+Nzjk9iLY/Z+iHlAkFg4Wp7uHTKB1dFvtXpTdjWqHQ6QdP8lL/2uiGUiOZK3NzmPH1cB6/1vseRMpwUIWGD0aAgCdegH7svCYKBFPdvcl+dCOottbnq2Cs58DG1GfkFfSL5EY9mQERv8LuFjMj5xQCnyw2X2Ot40yNoxkeK2F5VpGiJQwKrARoze8uSYlQ+2H97tNfwAhYQ8mbcNRvV2UhIsffywSEfLJ5/6nbDJIOZgiXoytjcqSw9Pzorcs3LQkAk0b1IKPWyRKi0ats17jINVAK5PTWSObqutxxmuJE1bdvItZ7vosTvy8DIamjnf8aMpojZXa8b0kpHkloXY8SOXQ/V3aybQmJ7sH5xRpoYQRSArRwPpQJIjbZ1ewha05woMVKS2GBlQ/pigIlHOvJRLxAa9X9ynQbgBe/izf8yIpQYsG68wD4sCNT08uGsLE8rh/cQkXH/WDJkUninKM1aAUsp2rk+tg/Yo4ERJGInd59+/NoHCyh8Cwtr5+EAgJnJNDI9sKac+k2YtYnEMnBC4NBJfGQYrycs7wpJaQCCF5Oa6+VGbiEcVUJDdPpI61IpSMMvB4KpEHWrajhvRewee97xqNo7nWHqSxHWrb0doPrf1gdWrnzuISKSGvQzmaLfbKmn6rtZl6ylqQCAkYS5AO0r2iUNJHk24Dn4/8qNZw7uLy4oAscHGp923e39yTbeUyEnmAIy+8+ezRBsMSKxi5PZATD6y2xRkhoRKpQycpwQcLScFqKMlDTloNGxzR4IunLApiygZKBjbs7tMzvNn9vt2V2ZETPryBA5JCIiRc/PgjABxGsLCQE3JIE9kBPBO5Z0HmfWl7nLxS/Rbo0YYXHt1qFuEa2QlRfdZy0+BdtHLjljqeUEtEqL1H3AaPeo61c0PkuIkmpUTW48g3wJMQRnP2UmjtvF9DHwCcz3UCrDOKBtdeTkaIdMhpyAjaPtjAEwGWSu8AAPvUD//6jj7vQR5JISdFUKkmcLsf/riBlz9v64gJ3rXJAkj3Md3TPAXPuSFdP/6rKZsfS/8DwFF96rmx9Ln0zgWQnYDRaB36XUIeHaFm/huOQNAJ7v764UpOb6GY+3CEBACwrb1bYEVz9rlDG3VCizU7lifiYSV4nBLWmJrBo8Ow4IgIAL73TZKRIixgedH20Fx3iVChkaPVDbeDHcw4jQIG5zTmbJoapznneB6BEIDbADgmVnrWYVq7MUcAaA2JQJA+erUSJbSkBPy/xeZbMw6QjVta90v7qNsfro70wJHjuUhyVIR5XBaXSdHsPJAiK9zBXajNcxISgjGJCW1QE26kmNIAIbXzy7vjECMpOgIAT0iQUBUdIdPNQkD45d3dPtTv8/evn0gISxkmrAQEa5naFw4w9UsL2BtUBv/m6kjtSAtqCjVGndKC1eoU58pFsU6j7rNFH84Zr9UPywLQjVtqcSuNeQ+BSNuupg7A8XUCcbzF/NOCFJOjRv+szj7U9+6Y9Wvb1g7hNTnHPTjFyABWnFIfROnaO+e9lozQu4976xbqxM/m5agoBi3vwSmkdji1djaw6UpIqIU2ZDzGtx9/g3u43xvPciJ/Akc0wGT/FpEVyLYLe6v9tSTDX0PgfrL2gSuFxQ5kuoaclMDJTKAM55b9Zkl2flyzH96hFAWAei5L0QMsEUPW8sxHQSIheByOUX03tLNz4uxgSc2SQ5M6pBYa2aPNa6t+vjW2v0gbF2ePlYgWlM0Q0HmuboL3q3YAOiJCiZTAER40ds8SWtgcS7bZWp04O7IS+MPXA2ijKGjKUfctKkIDJbu0Vu3h34KnaAk1kQjyFHj4OAWJYIBT6HHQnudSLUTbjjewmYSEFpikhHFgJSMAyIQEgKcoCVZCAhUhwZrH9/n7p7HFXRvLypIMOyVndDSs7MFOLxcVoh3q2r6gFiHUce8CTbvI0ehYWkAZjFNm/ayIkC9dT+laqX7DhAmubGNjq6sdDXmjRLqJINbU9o3m2dRCerYzeBd45/RlPoXZP+uMWCBhjdczGuHB2uZI939iYkncv4hfXC0ZBYHDtx9/O/i9RGpFDlLEhVLkQ0ywaIEIAoZISKAgEcUTSmtXzbpWQ65n9ugp57eUU54D56SiCAMahxZOhaCBJ2WKVo+JMdHTWbuUY3g0h3QrWFJqLNEnUpuWuW3tiCQulfqTOmbuY8o+RyHKIe05V1q2Wm2V2KmcvkinIidQDug8QkJqA+uqSduQykf6BVr6FaJll+yoLSG1ydmoo+zTaKxdfMp8VCv5Hix+EolYovGVMdec70fyvYvkr+PO1UQ8kMCRD3rhiJAwDVJlaPqoFynB43CPgjdigRfeKAnePiqlbbh6dkgm0JILqJy8GLev/wlv7n4PH9+/ZXMHaw0tWP5RPW6ybv2yi35xTUxMTKwMa11vtXTyj+ZojkYtu/gU+ucUr3NEQsKIOlnbbaGfReaMjrB8Gz3bwe1pyQkXH28O6nkRaT94++IT9hwmIwAc77O9BIXa1Dea/W3JsIejN7QgJ1RdY4mMoCEFSFjBHrsmhHttegGNXA7WiAprczCO6LiOcB6fi1N+Ig49n11vJAVtFAar875Up1aGVp9h509M7NM4orVlqLY0oPQpfcgkyc7JB+lr9Zun/PR7Hwsl4/n28At3LhqC9kv95KDOoy/g3x70+ujRMj40Hy1a13UcaYTqw3Qsv//4N4A/DcMOF5++hvuf7o6PZZEH8L7k/uYe4PLRD5nK3d/cq1IfpLIH0H5oernbS+zkvvnsep96LUVk85AMuDKYfCD5Qa0+0qUJCDlmhIRGyI0RpxwtYUkyxLCI2vi/+grgxy/L5UaHxOC0vPyti4WoRaGnbQs4ZmGtDhE6axc/EX2jue4IVrJn7OWyJQOhdP84PfK6Vh0sGyCunHYRptEnh+aeacZXxLNgAbfwH9SYOzExMTExMTExcYhWJIQqPSxr2sJaN0/ZkHD1w0ZnyG4Ea1SEJRxNEWkJPO2sDZH9wn2lbNVn7X2aYw3XQ6Uz6QFthIOWiG57pGgMa4vE0KLfwq+9BfHPY4+SCAhem3xyQmeEBBGU7fanLZ3GgYrCkB+joixItuEW0QmsNlbJ3irZGTX1NeWpvuLs15p+42TgtqjyHGmHu4ecXZ0qz11jqe8BdH3MnNsTEODptweeaAdWUsId3DX7QCxK7iQkGBHxdcYpExQi4Y2GwMnKUZIrtX3xcAf3z57uIZfWIQeOiADg+6ri9tmVSFTQMK/2uDmeUDFe/vw01j/8UWAfapyaGC0WbmsH9bLOz3EvbKp+lD6cLMmRLC0YqPrS+OBk4bY95BPN4gaXpRZwWCfJUY+h2RxI96DmXnMLW+q3pAeWpSmv0Yu7P0vAYdRN82eKnIPnUC63+WhffVvQMupBy4gLa8Y5pKMAiPvSv+f1rlHnJdu0tttKx5GeiRlBoR84PUfTP7cj1O6VI/faCS3TPlgiL0jhUfNj0nkJR9EHd19KaXQ5ALWW16x9b45JCVfPNgfnPbj+bPsoRzJ239jJB5FY2pE2uiOZw5LpAnJ4nKFrcqCeCnCfR0aosHzNPxJ5gyJp9NRNG5ElooxUzhNtwYvIyA7VcwhnG3PYiY7klGzpNbJzWOTgL+K5FAro2P5LdGoN89P2MEJCOpYDExNS+XQM159Q4eW7LXx4s/th7cN03/B9yY/jyBfZ7wu42O858r/pXEK+L8l9eHgNza7pd9EKcqS6RaLy9E8tgklIKKClIWKSE/qhhdHF0i4VTeICLoqGG9JQ8vqfYvQEnKuGk5mX//j+raiHBh/+uDl2wr3fiAsWFTzsRA8s9ZUsuu6IbFvrlK+Rn+TUkgq4+tmiYj8ec+zqsmOV0pVAPu5L1/Hy52PnNNmexOKUjnPnNSzTUts1497CRrW0a9WjptzlUyof8h4imQekrmxscGQEjHN0svdg4/asu3YsSSQZCaMSBzgsmQ4hqs1o3UYgO4wme6QxizFiepORgPX12hSi9sclOWm/+9uzexVpoTbtgwWqcKqlFAsZNF9MleQlGVw5MkICRSRosCe9+8838Pqb28VJCVRIb2/Y81PCuV//hB3e0PxzrPkRkWpBOp/mRYrMs7Z5ktJVQ1RoHuWjxoZZe17bLkaHNcJB25JNEYAP669NxRDR/7Xo5atYAh7br2e8RrVTq4unrd25lGYihzfVAneuFPVglHOrjJCwNkNAK1gNCks52pfAWq+VIyOw5V+9Avjxy0N22Kuv4OLHH4tpMkxREiCOjFBCcsapnLGjI2oxoXE6nyMoh7mmnwhnsGqsLUUu0S6QHDrsCRJLPWu1m4OBngfclznJICEnYO2jIWTkhX257H5QpISlw2aNVHetmFEi/DgXcgPAuISBUfVaut1eOpxCRISeGJlQM1L9NXwAkRMW8LEREEWQENM3GHAUHeGHivW+Y829JBlBwijhyEf7anp0rPkaanVf87WvAZEpQqQICUvPORgSacRLQCnVL5EsoqIdlI5J56vvWa0Tv8a56pEb1QZHKMDHlnT8n8pHgT2gGYeaj9sssj0yoz7McxxPBAPOB1nyTXrq3cN9lYM/4lzvtoYhJEzQWIMR4Zxwf3P/NDnt/r+/2RlPLp/C0SRw0RHSObYdJIM7Z5Wb18/L5aknsHNNi+fvX8P9zT3psPMgd96VZC5Ncig6v/HLNmIxWisj8uv3hsB9q+5rDQx9RYXdD138l/oflHIYHPRbBBlGo2/CDRxfQ2n8WZjfJRKH9FvDHkdIfamal9DYSUSE6AWiV6ZG7sQjliQMnOv9myQFe5neGFnvEfprEhjGaSeivbWO5aiICgnRqRU1skYgKFDEBCqa4cF5It+sJeICAJDr0WKUhMYYlZQwAiyOrlY50kdwco+iRy+c2/Um9LxuT7qHlmSB2mgDNSkWznW8WdDs3nsctVFYm/N74vzQi0jAnKOiFeSIjlwgnfNEOxiBZNCvDgxm2VoZ8nAT1P/R2MCjU0NydJ80tI49bdm8Tq0zlnLCMSBDutwQ9xPLfPXV49+UsoFoQ8zbhBdLqK+wXmQeH0qG58URDcnBODEx0RclAgD1vHJlcDmq/A1TpiAnJ11hkgEV2eXlzzRZiyNwSaka1ha5YATn3how4r3TnF8aMz3EE0Z18o+qV+u2R4gc0aNfT6WNqPbWNGdQiIqmsAT5QCurV1oHCw7y2RL5aqlcuFxe2/zc9cP2kXAAAHBDREnYkRHefHZ9SHi4PE7naCZEwCQgnBNGd3SOmGKgNvS+Vz53fXnIfosO+Etyz3W16GetTOq6vXpJYyfyfvZ+3qLa7k1E8UCKyFAFre17dPJA6aOdkr2/J0bQwYqaj9dq/FPRMnv0fUUbJQLCCLiDu3KhM8OMkHAiOMUoCvdwz+ZiAWCc9wIOIhm0gIGM4JaZkxG08ilnH3H8iIiQ9VWTviMchx4DVdIrD6vOhVQHIPK/c1++K+CJBJH0k76uzs9JYeLz81G65k7V3JFai4vLC/jl3Z1L5t4Z7PmCHsMh4yj9gWdxnpXDkQooh/hB6P9oeFjc2kWvd3EslWm9AEZzABeRYz8O8mckvz+MntvLbTj7dWI5jJKbrbXcNeNciA0R5IBzIjUsTSoYZdwAnCbxwIu16EkhQvfoFBBrTK+YIi9EpWVI4OTh41K71LnP4TjV4vfwrSt6gxVf/OH7EDlLY3SH+1KY/XKM1n0SIb82BH+LOi0xmj4ltCartGg/OnKDRJyxpnHQopS6IQS1NirJcTwxsVbUEFlQndxPFRmhoEWdEaMTjG6HnoSEE8fayQrVjvBIZ5ZVltZxqY0k8OqrRzJC+gtMPcvXwgB8CopeuHwiI5Ta9rDfNMYxql0uNUBESgouBUGJeKBp25pqo7UslVOdeAZKqRlMYzWA8VlMFaHQodSXJGHDQJqQ5DYjOFSCJZwk1JAciDmYIphooh2IfUjoUJOaQXN+pHMT7TCjLbTBuZAWAMaNarAUQcAqb0lyRC+Mpk+OkXXjsEada+CxNbQgLtTIHCEdhBa3z67g+uF4fH0P3zZp683D9Z6I8N0/PgeA9RIT1ubI1GLJL9Jb67EmjH79o+t3LlhD1I4WkRO8BIYInVL9akR8HMXJpaKIWj/kaQXvB0NLRTVYYzQFCt7riIyEEChrDZEMME4hskFrEgN1XG3nmYSEeHiNXZa0D/i8ts3RCArYeLCYU9yCiBdcabLnIhvk57Q6cOHPl1i8NKp3wJzbjR1uHFlehEf1BcYerod1so7r/Mvs5+8Pn9tf3j2+GFPkB4AnUscv7+7g+fvX+zIYWJYGnCwLUaIWuC2ubc7p3kpHNlQ/EQUjkiyihSaVwAFqoz4IcqjoAwc6CZFDWoEjB2nAPf+nsHA9dYwUzWA0Yorm/CnilEgIJYxIUhhRp9Ha76FDr2scoS+1qNV1TdcahRp7wyhRFj55uIDfnt3v/x8BiSCAoyS0ICMkrJV8IIELS782h23vkOlr6ps1Y6n7eg732HO9nCPbmw5jCdSQD6x1o9NbaHWR9AlBjd2shFNxoGsQTbSIJEd4nO+1EWKXTpUQjFakA2s0A2uUg3QM23GXjGKwZmhICjNlw+CwDEwLmSFhNHJCjiGJCSMuOLgoDJ4XppYRZ32p1l5vi/5iGHt4vOHoEQn7cgRB4f7m/uA4OY49/borcwH1RAst8HUDlA2FVB1VW5ncRKrASMQIiqCRH8tJGVpyRl5mCeJAL0j9MUrbuFx+L2uQxhj1PKbjlvGOz+UL2LU4n9dwruWX/hNtMGrkhjWMhzU45jGWTocwWpsjtZ9j5FQNI/XTRFu0tj/0IjRw7fQgL/QiJNw+uwp3JI3u9PQ4r1o533pirXpPHOMcSQYAEBuKP8OS/aedN0vpCSwRC2rOafXz3qdSX0jXakZvR3DLKAQ1kZ5r5KwFPckGrQgMkWQKxXGtzTQyZULU8TV/PNYyekFvwsQkJARgA+OFwOagHUQjEBW0RIQUFjthcxN8P1q9dLULDs9CxBs+qvQCiwjXk8sCpzxPu6X6mT5HBIKWUR60C46a/kD9fwEXcA+7KBIOg10egSL9xn12tEDZkTRqDYRLfjVVJGIodYu6hnQPE/L76sHLd9uDiBv4nBaJNCARCPbEAMfCtfZ89DmOTQuwDkf5KHpMnD6WIhqsnaQQRVAY6TpHJjC0bHeN9+AU2skjEUaBk2f5OGCk8ZBjxDQlI9gmlgBHbkiRGxIuHu72pIQURYHC5/DWRV44xSgJkcidXa2cohy49mochlFO7KWd4Uu3f4roOba18BCdIglSHoe/pcySaHW/cWSaSLkc3O2M4oD32s8pe3JrYsGpEhesGCk6gtLfdPAR5opIBpJNdo04JeIBh0lI6Iw1kRcodPnawBARYbVkhBawOq41sqxla5iXVLoKjw7cbwzKaR8B6h54ZOO+sLaPZZQWQsCUMbTPOcQ1jnIXMWJgckJeLqGWMIDBhZmywOucr2nzlHAqC96J9WEtUSjONbrFKUVyGJUQMTqpYZT2e2FNkREiUjAA0ET//Jx134/DWCYZPeeKNY7XnKywhr1BK7SOzNCDlDC6c+4UcW5f00dgLdE+Tg3R/R1xH1umJyi10ws5aQDPFdRfq0wXNB/2lc6l89p2lkarKMRR0ROsZfKypwDNR5cSoqM0MB8qtiYS9EYPe+wS5IClUXsNajvNJCTYsHZSAQVpUHEDqdWXComQsL3cwuZms/9LISckaMgIqXw1caFHygJvSH9cLmKhAgZ5keGdpD7g/tagJ0MxQq40zpa4FgtOZeGpwAgLNQ1qCQitohb0BKXHHdydrNN0YuKUMGqaiDVgrV9zjx5BoaV+ra+9Z9+OOLYkROnLGXAAnggN0ZEdzhkjrDNbQiIkpIgKXtLCjJAgo0WOdOwAbAmL/lGO0NEd+adENogenwC0Q9maUqBUNpIs0/N+cnpHRgSgiBS9iTL42szw2NOjnfIlaNpbOtqAt09GscdG9F2riMYem7qXsKFsqxTBwGJzjfxYbilEfYSzxggDmvZHI0fgNiYhoTNOwajQkqCQGE45aeCIlHC5M9QQxIISSUEiOHRFj8WU9WWofeEutehqnQKhZjEXRYrQtl17niqn7Zt88XpD/ObaLxAoTs1QGBVhYBRnfQsskVqhdDxn2S7h4PQsEKO/eh9Bv1OUN0pbS5yTsPTmrQUiSAyj9Mtar2Vp0sAI928Jw0JrzHlmIgLnmgJCQomsMEkJbdHCiVibp710PiLUfZROS0DjgO9NbJDSB0RglGgaayIoSO0t3Y8Y1jQTpnHltZNKUXVrbcNWHbQ2zjUg2n5di9pIF9L1tLDXNwBOe6xB7xQJp0BioDC6I19CLRFhSV02ALCdG/RYRIWCjMbS9zkRAQ5YXShFwwGhADYAN/GpGcIiJVCwfrmfRyCgHLvaOku9WD2Ob099S73W0RI8ZWv7yaNXC7SMFLFDS+d7C5KAhTBw7gQECZEkA+lci7Beozuuo53ISy+6J04frUgRo8kdBWuMArE04WDJdi2yR7x3S6KmP9bal6OMxbVAIiuc4ho9vyaJlHD77Goox1lPjOYIP3dYHKa1KMkaeWzgSBua9AKjOcgjEXVtS8nplQ6itm3ymdA4i1tDQ2ZY2taaMLJN2Nt3o/TtgvAQDqJwqkQCCtH7ktqoCr32ShZ9EpaMxLeF7YyQ4MEIUQ5OZfMvpWNIKRtUcoRJotmLr+VLt7dT3SszInKCNmSRlYQQoY/l+mpIB57rpRBN+kgyNUzfvJ805fJ2UBs9jH1ao+IpGh9PDTPVQjtEExYiQ5+NTOgYuc5I59boCG+J2v5YU3+OTCgYqZ8m1onIMbTG8bhGnUs4l6gKJVJCguYr7FEcm62drCM7pc8RS33Ff8rOfAuW7gdPeoj8/57P81rGS2hEFImccGqwRkuI+IBNU65HtGaLPjV1NecifAvoHCYXRH5AFXW8dM6LZGc9JUTYO5ckI2BIRIT8+FOkglg9NX2xgc0kJPTACA/rGowCEjnBUy6VDUvTEBXqx+vEj2ByatuOYj56+qoHYzUqwoI1OoI3zJhn4Wm5FxqCgyXaR0k3pl1LDixLmd4o6SQtJidolCJS3MN9N4dtqczITvQe7fe6/hGiRUysB71JGLXn1zAeRyYVlGDRfWIZRIyZiKiFI+jRWt4SWPIaIts+B6ICJinkxASMNw/XB797p3pY2hnaApPwMC56RWKIlDE6UaNV+hIL2YBLtxGtm0YfKdVDHgFD09ZaImK8/ngb65z3oGS3PRdShRcRKRh6yc6OtSQacOd6kBZKWJsdOq3he+wlckf+Gu0COeEAkxJa91/JVjwJCU70HIhrNzhIsD4AiViwvdw9TLsXRx5RYU8+2L1YwggJtYhiBdY47FsvnHqkL6ghDESyQTXRIrgypUUtJghwx7XnS/CSHizn8vPUtWaLwP2CaFe2ZrHVOhICTt9QA08aiHNDi5QLExMA45IlRia4jHbuFNGKOGWR0QsR19MCSxMvljAWjNCGd69NGVysiOiTtZAQRpoDWmCJ61uCpJD2Di33EJiYgMkG2Ln13T8+705IaN32JAesFyM6XntCG5ofALpGCohyplv17UmSiE4jAnCckqOFXh4ih0cHF24A3nx2Dbc/HBPk3nx2/UicK9nPKTBlubbYel677Oiotc8viCVTJvSElqzAfdAVgZEc973JCyNESVjL3m4SEjqix0O5pOGlNzDJIEVIOCIfRDjJo6IjeNquqWeV3Wsx0StkU/T1REZ88LQNgbJqWKk1sktlS89adl5ikgLA3jDXEnkbUQbAmrBbNedb1K1hFWPygXeB1+or5TU6kEdsI7pPOKxxnTNxGmgZKWEt5I21kieW7sOl249A72tYy5cslH5reJYnYvAaXsMd3A0XYcFLaHj74pMG2sRg1K+ALZhEiPVj6TFY67xOMpa+jgTKWU79XhLWqBWe8gna+pa5xBMpwjNXaVIAUXjzkBEPMhvhmweGPCB9LFYLLKe1DbrHx2SVKJE43nx2zZ6T8NuzdX3NvwSwPbXWpjbyfmpifLD72y1st+c0uFp9WdAa0whBY4jIByPCmhqAqtdCF+v5GtKFJ8xWVHsWeZpyFtlcpAZQ6lKDCCKDoc9aRxGodf5by50bZrSDiYSlSA9rI3tM1GGmbYhHBIlgCYf1khEPNGjZ9qgRESZicA59v6ZrrNF1VNKCBj0JCks4SSdB4PSwtPO6FSgiQq3TuPUzx8kv6d1Tp5KO2JkfHSUBy/VEwLCQIEp6RNTtPq9GfHBYYcs+cNjvyuZO+nQOO+6lqBA4bVIvSG2X9Lp9dtU8LUK0vOj2a4GJB6fs49V8oDZSNIQoXZZuL1ruBjbnR0g4BVgGQS+D1tKGARcxoUc0AIol2atd6wKrZ6il6MgN3ggW1rQQkQtWKwkh4v70kImPaRfpu/8vLi/g/oZgvRJpHo4Whjf3dH0HecGy8IwgJpwyaWESD9aDKOe510lpkdWDGDBRh9mv46F1CoheGJlUMEIfnRrpoKatEe5HTyx1vSP0c27kWlqXSOTXE0lOoML3lvYipTIzUkIcJunhNME5sVuNzQjHc0l26ZzWWU458UvQtB8FbwSDljpGpdnA6XYStKlvLJEpPOk2coc25eBe0hlv0UOrZ42Dfwn89uwePnm4gN+e3Q9NJNDWaR1ltzVa2NNq19Yj+Z1rr2M0IkJv0kOt3Kf9GpzQbm1ChVPaoJfQNYKC1fmfgJysxbBRnKOcO+dF66/qWzn9o7BUegYtuULbfy1Se2hkWfQ3RLBIi8c96UBBNjhlZ/8omKSD5dHaQd9ajoRTcy6UsLaIDiO3s8S5NaNlxAfN+WhM4sJEDUa/R6PrNyEj4v6NGD3hHu4XiVigbVNyEk4SwOljTaSUSOCxHfFlu9Wh7kkbwUUcqIFHb6k8JlNoHe4UicBzfRLphGtbcmjnJITv/vE5SUqQiCNJ9u2zK5LokMuj0k9w2KdoUFwDRksnPidb0+aI5IKEc02N0OLDNA809tVWRAPL+nRpokHLfVArx7+mraj2WpFLQmy8M0LCaWEaJXTYExV6RwVIwA7j/JiWCKBx/Dqub3u5fewfi8NbixoHdSSkvvO2bZUVFa2Aux/59eF7JJFaLKghTnDnjPIOIiJgwoIzrYOWNetZlK6VHEHpXcpJVjo3UYclndMep/C5Y00kg2hCAAfveOk1/pYgMrSqOwrWeA0jkxpGwNquO1LftV37kph9tRyWIi1ooyWMGLmgh06T/HC+sI4ti9OWa0eqW4raUKrbMhoB9+W9dLwmWoAlAoKnDBc9ATvrcyIA5cjX6FhChENf41DHBAfuHKVzIiEs4bRfO6EgQSIW1Ngue57THo+IbBBpqy2RG9bwUVfth0rW9X8v/3Rk5L1eEQvWQlDQyNvs7vTcGU4UUfOwtm4jChvYjPFlPgXOcbsUNP3U+cv87eXj+BnmPlrSSLSIUFAjuwUhxKJXRSqNi8vDCArp9wioXfBHQRNRYun5+FTR4yvy0Y6fGkaLRHEu/X6qaElAOAWy2IgEhiiCQu8PArYQF8q+Rs5axh6HNeq/lM5r7KtzQmuiQm2khCWJCtaw8RPrQI3j3QuNQ7OVbOzQ1rSPQ+MDyOkA8q/hNdeqceRTaDEXtJ5jNJEVAOCIoFBLpkhkhpIcL8EgCmtw5ifUpFqoSePAnTvX6AVrQDTJIML533M93nN/2zoKxPx4vy0mIWHiCGs3HESye7qmfOBQ4Zwlz60FBof49nJ7TETQOtUbRETYR5nI9AMAOfJEJmMLWZQKKxIJIv2vRa9oIZERPQrlvWQES5gu7flSmfwcRz6oYQtz5/IFc63zaomvia26rOnL8lM05Ef0wSRQxGFE8sqS5JzRzmnOrxlru/bcKIG/AqCORetukVmaOymdI9qNwCmSHUbVqwandE2ndC2RiCIsrD0X88REgsV5+sUfvt87hiVCAPVFfP6bq8t9LU+Vx7qUQvLjY9yX6xQ4hywA7WynCBCp7CioiYhgaUOCNlJAabxRBBgPKWCpFAjR6EGI+O3ZPXzycOEmEdTaIb3RCjTnI+FpqyaiArU28fQF9THXqdilIp37uPzExCQkTDTBiJNpFJqQFCRyQQHYuDgSuJdtyemcHPj7OjebPelg76wH2DvvObS4VwfkguzYXsfd31zv1jodwBshQVMvguRh1a+gR046sCxiRzWO1ZALqHORTr+JJ7T+6t0qx6PnyFiCoGDVZa1YUzSOEeqs6dzoiCIg9P7KYzSdatuniAkTftS+p0fE6Ncwun7nBCtpAadxGCUKwtL49uNvxTKj7l3XglYpBU4RXFqB/Jq/+8fnYQQCKkpFy/vF/U+VrWnHUqeEWsd5FBEhGol8UCIbLK2rlkzQ2h65xtSvEqiUCyk9bktQba4hfQJAO5JAXm9iogcmIWFCxAibfWw4a61T7WROOZyxU1oqS9U9KEc5dAERE26yuif0QjkgI+THswgJXF9zOIhaYPhCH5MPsMySHtpIHJz8A0REN7AQA6j+CoywcEAyuLlnz+3LdGTuUm22YCVb6kRGOZjog9aRF07pXo9EThgZo0U78PTtKd2PVvA69WvJAGu4Nxodo64DRxg4pbX2RB/0GqsT7TDvEY8SUQEb/u9frCmM40zjMKFDpFNdcqJbnOARRArL+LekaCil1IjC0kQoDIoQIaGFc75F9AELuDQHUrSEUpSOEolAssONAKuNcCR4+zCRESKvUSIaRDn3R7THtSYuUO1NTFgwCQkT3TGas2xOwMHIyBAJOVkARznQEghweZHMUXCOH5E8tDLQMZWcWjgd/R7dqMgOe4KLIuoBmTpDwMXlxRPhgJCfzl9cxi9MS7iDu70xLf2fFrP5/xJwuQ1sjq5BI6eVg+ncsNSX4Wt0kkdFEWjZfyOg1TiI/vr/nNAzOoJVh3PE0kSIuTafOAXM+aQe0lwQMf/v97dB66fouqO9lzSEBaoMjrDw7cff4O2LT/YRBvB5DByJINVN9XJ5udxTxijOt4n1w5rSokRGsIIjGngJCEsQFzgygjZlgxWJiNAyAgFOWdDKrqeV28OueO7zag+7rTZVwinZTqJJBnOfPLEkJiFhIgQjTuS9J9dkhMh/U9DqNcPrgClaQQ7sFO9CHNBASs2RnP6tkEcyyH9TekSiIJOKeMABkwRGxggkgqUcQdEOvNaEAe74uTiFT51cQeEcrxlgufEfRTQZuW97o8U7ZmnyQARObh08MYGw9DPmRY9nUzO3eQgD0Wh9D0eYi2tQIiucu6NnwoZIx1hrR+YnD4eykyO3BG25NeGLP3wvnteSBWqiSVhltwAmKCyRukCbrqAVrGkQLM/ofJ/Q6PUhGHW/cqLB2tczFEp2kbmXnTgXTELCxNnB8iVBr/ZP7aXjcmISaQ5Yg3v+Bf/u/5xwwBEQqONFOZBFd6DaoFJoFCIJkMdBqKeVQ8BExrCkrpAiSGTnrCk0RoDk6FkT8mto6aSylm9JIii1v4TjtTdaOYtHuDYKLZ3sI99nDi1JFT2e0TWjJeG0BkuREGrrTkxM1KMXsbQnes0PS9sMJIx8f3ogkRaiHMRLhcFeS/htLbh84Pn/p+QAHJnskAgKtc7kJe7XkoSBNaRjuXvxBl5/vN2TE/LICS2iKAAcjqP8WR5x/lpyPl8ao90P60dkUfaYlh+faOFdG0pkjEhdJzFiYmlMQsLExMSwMDlBEUkBgHHGX+6iWVBkgtSu1okflE4hKoKDRKA4QItICIw+CRFOjUinOVUf4DjSSY6SDho9RjfynjJGc76OOhZafv2uvWb8PFLyJ9YPfH/z++p1orVCy2d1yS+HI6B5rrXv+ImJiVj0/Bpfs17HdXugtC5fEiOuA9eMUnSFU0JLp9uayQM9HXKjOmS1oAgkGL1Cr+ftcClUNEgkBA+xYJR0D1Rd6nosxIOUmmEpUF/Bz7QJflj7rqYvMKkMkwzW9CFLD0Rdu6Zfl17DTkzUYBISJiYmJpaGEJVAitqAy5UgEjUSvNERsuNriYqw1EI5ynljPd6aXeypE932yKh13Lfsj9GiglDODeq8FbXRIJYeky3JMEtcM76/S22wMSFiJEdagomg6ZhXS+e8daehZGJiHaiNpLDE2mzOL7HroVOA5rpGJS3MKA08anXs6ZiMzmHfy3Hbsg2PfC0BIUePFApW1BIaciLCm4drMgKChmwgkRcsERai0jcsPe+U2udSCawVmr5O6XFHT40rocbG0dOek6MlmWOS/idGxiQkTExMTExMKHCKhruJMloRCZaGhmFdG3VkBKe3F6M781uh9ro5ApSGMLUEKEKERheNzlojR2/yRSvCAodpBJmYmJiYmJiYWAfwF9EcvMQKjzPa4wyOTv3Qi/CQt5MTEnKCgoZAUJu+gasfTUroRU5YM6GgB6L2f61I6tS+mou0ODLWpu/ERCtMQsLExMTExMTExJmC2sxZHKlLOtZrIh4srTuHKELA2lATQWVu6CcmJiYmJiYmJiYmzgk1hIMED3EhkRJGiK4RVYarNzKioq4umUIr4uOEFhEwe8DyAcfExKnh/wPUyOyX4R4tXQAAAABJRU5ErkJggg==;" vertex="1" parent="1">
          <mxGeometry x="414" y="50" width="284" height="55" as="geometry" />
        </mxCell>
      </root>
    </mxGraphModel>
  </diagram>
  <diagram id="AwJVDMCf7t809mFLO0Gl" name="第 2 页">
    <mxGraphModel grid="1" page="1" gridSize="10" guides="1" tooltips="1" connect="1" arrows="1" fold="1" pageScale="1" pageWidth="827" pageHeight="1169" math="0" shadow="0">
      <root>
        <mxCell id="0" />
        <mxCell id="1" parent="0" />
        <mxCell id="bT7OtKBpSbufM8YGFAU0-4" value="" style="edgeStyle=orthogonalEdgeStyle;rounded=0;orthogonalLoop=1;jettySize=auto;html=1;" edge="1" parent="1" source="UueuY5LISpR9GG05Lhg3-1" target="bT7OtKBpSbufM8YGFAU0-3">
          <mxGeometry relative="1" as="geometry" />
        </mxCell>
        <mxCell id="bT7OtKBpSbufM8YGFAU0-39" style="edgeStyle=orthogonalEdgeStyle;rounded=0;orthogonalLoop=1;jettySize=auto;html=1;exitX=0;exitY=0;exitDx=0;exitDy=0;entryX=0;entryY=0.5;entryDx=0;entryDy=0;" edge="1" parent="1" source="UueuY5LISpR9GG05Lhg3-1" target="bT7OtKBpSbufM8YGFAU0-24">
          <mxGeometry relative="1" as="geometry" />
        </mxCell>
        <mxCell id="UueuY5LISpR9GG05Lhg3-1" value="" style="rounded=0;whiteSpace=wrap;html=1;rotation=90;fillColor=#F27970;" vertex="1" parent="1">
          <mxGeometry x="-806.25" y="136.25" width="165" height="32.5" as="geometry" />
        </mxCell>
        <mxCell id="bT7OtKBpSbufM8YGFAU0-6" value="" style="edgeStyle=orthogonalEdgeStyle;rounded=0;orthogonalLoop=1;jettySize=auto;html=1;" edge="1" parent="1" source="bT7OtKBpSbufM8YGFAU0-3" target="bT7OtKBpSbufM8YGFAU0-5">
          <mxGeometry relative="1" as="geometry" />
        </mxCell>
        <mxCell id="bT7OtKBpSbufM8YGFAU0-29" style="edgeStyle=orthogonalEdgeStyle;rounded=0;orthogonalLoop=1;jettySize=auto;html=1;exitX=0;exitY=0;exitDx=0;exitDy=0;entryX=0;entryY=0.5;entryDx=0;entryDy=0;" edge="1" parent="1" source="bT7OtKBpSbufM8YGFAU0-3" target="bT7OtKBpSbufM8YGFAU0-21">
          <mxGeometry relative="1" as="geometry" />
        </mxCell>
        <mxCell id="bT7OtKBpSbufM8YGFAU0-3" value="" style="rounded=0;whiteSpace=wrap;html=1;rotation=90;fillColor=#F27970;" vertex="1" parent="1">
          <mxGeometry x="-720" y="136.25" width="111.25" height="32.5" as="geometry" />
        </mxCell>
        <mxCell id="bT7OtKBpSbufM8YGFAU0-8" value="" style="edgeStyle=orthogonalEdgeStyle;rounded=0;orthogonalLoop=1;jettySize=auto;html=1;" edge="1" parent="1" source="bT7OtKBpSbufM8YGFAU0-5" target="bT7OtKBpSbufM8YGFAU0-7">
          <mxGeometry relative="1" as="geometry" />
        </mxCell>
        <mxCell id="bT7OtKBpSbufM8YGFAU0-19" style="edgeStyle=orthogonalEdgeStyle;rounded=0;orthogonalLoop=1;jettySize=auto;html=1;exitX=0;exitY=0;exitDx=0;exitDy=0;entryX=0;entryY=0.5;entryDx=0;entryDy=0;" edge="1" parent="1" source="bT7OtKBpSbufM8YGFAU0-5" target="bT7OtKBpSbufM8YGFAU0-20">
          <mxGeometry relative="1" as="geometry">
            <mxPoint x="-580" y="50" as="targetPoint" />
          </mxGeometry>
        </mxCell>
        <mxCell id="bT7OtKBpSbufM8YGFAU0-5" value="" style="rounded=0;whiteSpace=wrap;html=1;rotation=90;fillColor=#F27970;" vertex="1" parent="1">
          <mxGeometry x="-640" y="140.63" width="60" height="23.75" as="geometry" />
        </mxCell>
        <mxCell id="bT7OtKBpSbufM8YGFAU0-30" style="edgeStyle=orthogonalEdgeStyle;rounded=0;orthogonalLoop=1;jettySize=auto;html=1;exitX=1;exitY=0.5;exitDx=0;exitDy=0;" edge="1" parent="1" source="bT7OtKBpSbufM8YGFAU0-7">
          <mxGeometry relative="1" as="geometry">
            <mxPoint x="-510" y="153" as="targetPoint" />
          </mxGeometry>
        </mxCell>
        <mxCell id="bT7OtKBpSbufM8YGFAU0-7" value="" style="whiteSpace=wrap;html=1;rounded=0;" vertex="1" parent="1">
          <mxGeometry x="-570" y="140.63" width="40" height="23.75" as="geometry" />
        </mxCell>
        <mxCell id="bT7OtKBpSbufM8YGFAU0-36" value="" style="edgeStyle=orthogonalEdgeStyle;rounded=0;orthogonalLoop=1;jettySize=auto;html=1;movable=1;resizable=1;rotatable=1;deletable=1;editable=1;locked=0;connectable=1;" edge="1" parent="1">
          <mxGeometry relative="1" as="geometry">
            <mxPoint x="-478.01" y="152" as="sourcePoint" />
            <mxPoint x="-460.01" y="152" as="targetPoint" />
          </mxGeometry>
        </mxCell>
        <mxCell id="bT7OtKBpSbufM8YGFAU0-27" value="&lt;font style=&quot;font-size: 24px;&quot;&gt;+&lt;/font&gt;" style="ellipse;whiteSpace=wrap;html=1;aspect=fixed;movable=1;resizable=1;rotatable=1;deletable=1;editable=1;locked=0;connectable=1;container=0;fillColor=#A1A9D0;" vertex="1" parent="1">
          <mxGeometry x="-450.76" y="219.76" width="20" height="20" as="geometry" />
        </mxCell>
        <mxCell id="bT7OtKBpSbufM8YGFAU0-28" value="&lt;font style=&quot;font-size: 24px;&quot;&gt;+&lt;/font&gt;" style="ellipse;whiteSpace=wrap;html=1;aspect=fixed;movable=1;resizable=1;rotatable=1;deletable=1;editable=1;locked=0;connectable=1;container=0;fillColor=#A1A9D0;" vertex="1" parent="1">
          <mxGeometry x="-390.25" y="250" width="20" height="20" as="geometry" />
        </mxCell>
        <mxCell id="bT7OtKBpSbufM8YGFAU0-38" value="" style="edgeStyle=orthogonalEdgeStyle;rounded=0;orthogonalLoop=1;jettySize=auto;html=1;movable=1;resizable=1;rotatable=1;deletable=1;editable=1;locked=0;connectable=1;" edge="1" parent="1">
          <mxGeometry relative="1" as="geometry">
            <mxPoint x="-418.25" y="152" as="sourcePoint" />
            <mxPoint x="-400.25" y="152" as="targetPoint" />
          </mxGeometry>
        </mxCell>
        <mxCell id="bT7OtKBpSbufM8YGFAU0-10" value="" style="rounded=0;whiteSpace=wrap;html=1;rotation=90;movable=1;resizable=1;rotatable=1;deletable=1;editable=1;locked=0;connectable=1;container=0;fillColor=#05B9E2;" vertex="1" parent="1">
          <mxGeometry x="-466.25" y="141.01" width="165" height="32.5" as="geometry" />
        </mxCell>
        <mxCell id="bT7OtKBpSbufM8YGFAU0-24" value="" style="rounded=0;whiteSpace=wrap;html=1;rotation=90;movable=1;resizable=1;rotatable=1;deletable=1;editable=1;locked=0;connectable=1;container=0;fillColor=#F27970;" vertex="1" parent="1">
          <mxGeometry x="-459.25" y="136.25" width="165" height="32.5" as="geometry" />
        </mxCell>
        <mxCell id="bT7OtKBpSbufM8YGFAU0-12" value="" style="rounded=0;whiteSpace=wrap;html=1;rotation=90;movable=1;resizable=1;rotatable=1;deletable=1;editable=1;locked=0;connectable=1;container=0;fillColor=#05B9E2;" vertex="1" parent="1">
          <mxGeometry x="-499.38" y="138.44" width="111.25" height="32.5" as="geometry" />
        </mxCell>
        <mxCell id="bT7OtKBpSbufM8YGFAU0-21" value="" style="rounded=0;whiteSpace=wrap;html=1;rotation=90;movable=1;resizable=1;rotatable=1;deletable=1;editable=1;locked=0;connectable=1;container=0;fillColor=#F27970;" vertex="1" parent="1">
          <mxGeometry x="-493.38" y="134.07" width="111.25" height="32.5" as="geometry" />
        </mxCell>
        <mxCell id="bT7OtKBpSbufM8YGFAU0-26" value="&lt;font style=&quot;font-size: 24px;&quot;&gt;+&lt;/font&gt;" style="ellipse;whiteSpace=wrap;html=1;aspect=fixed;fillColor=#A1A9D0;movable=1;resizable=1;rotatable=1;deletable=1;editable=1;locked=0;connectable=1;container=0;" vertex="1" parent="1">
          <mxGeometry x="-505.115" y="200.005" width="18.13" height="18.13" as="geometry" />
        </mxCell>
        <mxCell id="bT7OtKBpSbufM8YGFAU0-13" value="" style="rounded=0;whiteSpace=wrap;html=1;rotation=90;fillColor=#05B9E2;container=0;" vertex="1" parent="1">
          <mxGeometry x="-528.12" y="140.63" width="60" height="23.75" as="geometry" />
        </mxCell>
        <mxCell id="bT7OtKBpSbufM8YGFAU0-20" value="" style="rounded=0;whiteSpace=wrap;html=1;rotation=90;fillColor=#F27970;movable=1;resizable=1;rotatable=1;deletable=1;editable=1;locked=0;connectable=1;container=0;" vertex="1" parent="1">
          <mxGeometry x="-522.12" y="136.25" width="60" height="23.75" as="geometry" />
        </mxCell>
        <mxCell id="bT7OtKBpSbufM8YGFAU0-79" value="" style="group" vertex="1" connectable="0" parent="1">
          <mxGeometry x="-725" y="450" width="342.87" height="180" as="geometry" />
        </mxCell>
        <mxCell id="bT7OtKBpSbufM8YGFAU0-58" style="edgeStyle=orthogonalEdgeStyle;rounded=0;orthogonalLoop=1;jettySize=auto;html=1;exitX=0;exitY=0;exitDx=30;exitDy=100;exitPerimeter=0;" edge="1" parent="bT7OtKBpSbufM8YGFAU0-79" source="bT7OtKBpSbufM8YGFAU0-41" target="bT7OtKBpSbufM8YGFAU0-42">
          <mxGeometry relative="1" as="geometry" />
        </mxCell>
        <mxCell id="bT7OtKBpSbufM8YGFAU0-41" value="" style="shape=cube;whiteSpace=wrap;html=1;boundedLbl=1;backgroundOutline=1;darkOpacity=0.05;darkOpacity2=0.1;fillColor=#F27970;" vertex="1" parent="bT7OtKBpSbufM8YGFAU0-79">
          <mxGeometry width="30" height="180" as="geometry" />
        </mxCell>
        <mxCell id="bT7OtKBpSbufM8YGFAU0-60" style="edgeStyle=orthogonalEdgeStyle;rounded=0;orthogonalLoop=1;jettySize=auto;html=1;exitX=0;exitY=0;exitDx=30;exitDy=80;exitPerimeter=0;" edge="1" parent="bT7OtKBpSbufM8YGFAU0-79" source="bT7OtKBpSbufM8YGFAU0-42">
          <mxGeometry relative="1" as="geometry">
            <mxPoint x="95" y="110" as="targetPoint" />
          </mxGeometry>
        </mxCell>
        <mxCell id="bT7OtKBpSbufM8YGFAU0-42" value="" style="shape=cube;whiteSpace=wrap;html=1;boundedLbl=1;backgroundOutline=1;darkOpacity=0.05;darkOpacity2=0.1;fillColor=#F27970;" vertex="1" parent="bT7OtKBpSbufM8YGFAU0-79">
          <mxGeometry x="45.620000000000005" y="30" width="30" height="140" as="geometry" />
        </mxCell>
        <mxCell id="bT7OtKBpSbufM8YGFAU0-64" style="edgeStyle=orthogonalEdgeStyle;rounded=0;orthogonalLoop=1;jettySize=auto;html=1;exitX=0;exitY=0;exitDx=30;exitDy=55;exitPerimeter=0;" edge="1" parent="bT7OtKBpSbufM8YGFAU0-79" source="bT7OtKBpSbufM8YGFAU0-43">
          <mxGeometry relative="1" as="geometry">
            <mxPoint x="155" y="125" as="targetPoint" />
          </mxGeometry>
        </mxCell>
        <mxCell id="bT7OtKBpSbufM8YGFAU0-43" value="" style="shape=cube;whiteSpace=wrap;html=1;boundedLbl=1;backgroundOutline=1;darkOpacity=0.05;darkOpacity2=0.1;fillColor=#F27970;" vertex="1" parent="bT7OtKBpSbufM8YGFAU0-79">
          <mxGeometry x="100" y="70" width="30" height="90" as="geometry" />
        </mxCell>
        <mxCell id="bT7OtKBpSbufM8YGFAU0-44" value="" style="shape=cube;whiteSpace=wrap;html=1;boundedLbl=1;backgroundOutline=1;darkOpacity=0.05;darkOpacity2=0.1;fillColor=#F27970;" vertex="1" parent="bT7OtKBpSbufM8YGFAU0-79">
          <mxGeometry x="155" y="100" width="30" height="60" as="geometry" />
        </mxCell>
        <mxCell id="bT7OtKBpSbufM8YGFAU0-45" value="" style="shape=cube;whiteSpace=wrap;html=1;boundedLbl=1;backgroundOutline=1;darkOpacity=0.05;darkOpacity2=0.1;fillColor=#05B9E2;" vertex="1" parent="bT7OtKBpSbufM8YGFAU0-79">
          <mxGeometry x="213.95" y="70" width="30" height="100" as="geometry" />
        </mxCell>
        <mxCell id="bT7OtKBpSbufM8YGFAU0-47" value="" style="shape=cube;whiteSpace=wrap;html=1;boundedLbl=1;backgroundOutline=1;darkOpacity=0.05;darkOpacity2=0.1;fillColor=#05B9E2;" vertex="1" parent="bT7OtKBpSbufM8YGFAU0-79">
          <mxGeometry x="262.88" y="30" width="30" height="140" as="geometry" />
        </mxCell>
        <mxCell id="bT7OtKBpSbufM8YGFAU0-48" value="" style="shape=cube;whiteSpace=wrap;html=1;boundedLbl=1;backgroundOutline=1;darkOpacity=0.05;darkOpacity2=0.1;fillColor=#05B9E2;" vertex="1" parent="bT7OtKBpSbufM8YGFAU0-79">
          <mxGeometry x="312.87" width="30" height="180" as="geometry" />
        </mxCell>
        <mxCell id="bT7OtKBpSbufM8YGFAU0-50" style="edgeStyle=orthogonalEdgeStyle;rounded=0;orthogonalLoop=1;jettySize=auto;html=1;exitX=0;exitY=0;exitDx=20;exitDy=10;exitPerimeter=0;entryX=0.368;entryY=0.111;entryDx=0;entryDy=0;entryPerimeter=0;" edge="1" parent="bT7OtKBpSbufM8YGFAU0-79" source="bT7OtKBpSbufM8YGFAU0-43" target="bT7OtKBpSbufM8YGFAU0-45">
          <mxGeometry relative="1" as="geometry" />
        </mxCell>
        <mxCell id="bT7OtKBpSbufM8YGFAU0-54" value="&lt;font&gt;+&lt;/font&gt;" style="edgeLabel;html=1;align=center;verticalAlign=middle;resizable=0;points=[];fontSize=22;" vertex="1" connectable="0" parent="bT7OtKBpSbufM8YGFAU0-50">
          <mxGeometry x="-0.1237" y="-1" relative="1" as="geometry">
            <mxPoint as="offset" />
          </mxGeometry>
        </mxCell>
        <mxCell id="bT7OtKBpSbufM8YGFAU0-51" style="edgeStyle=orthogonalEdgeStyle;rounded=0;orthogonalLoop=1;jettySize=auto;html=1;exitX=0;exitY=0;exitDx=20;exitDy=10;exitPerimeter=0;entryX=0.359;entryY=0.071;entryDx=0;entryDy=0;entryPerimeter=0;" edge="1" parent="bT7OtKBpSbufM8YGFAU0-79" source="bT7OtKBpSbufM8YGFAU0-42" target="bT7OtKBpSbufM8YGFAU0-47">
          <mxGeometry relative="1" as="geometry" />
        </mxCell>
        <mxCell id="bT7OtKBpSbufM8YGFAU0-55" value="&lt;span&gt;+&lt;/span&gt;" style="edgeLabel;html=1;align=center;verticalAlign=middle;resizable=0;points=[];fontSize=22;" vertex="1" connectable="0" parent="bT7OtKBpSbufM8YGFAU0-51">
          <mxGeometry x="0.153" y="3" relative="1" as="geometry">
            <mxPoint x="-21" as="offset" />
          </mxGeometry>
        </mxCell>
        <mxCell id="bT7OtKBpSbufM8YGFAU0-53" style="edgeStyle=orthogonalEdgeStyle;rounded=0;orthogonalLoop=1;jettySize=auto;html=1;exitX=0;exitY=0;exitDx=20;exitDy=10;exitPerimeter=0;entryX=0;entryY=0;entryDx=20;entryDy=10;entryPerimeter=0;" edge="1" parent="bT7OtKBpSbufM8YGFAU0-79">
          <mxGeometry relative="1" as="geometry">
            <mxPoint x="21" y="10" as="sourcePoint" />
            <mxPoint x="333.8699999999999" y="10" as="targetPoint" />
          </mxGeometry>
        </mxCell>
        <mxCell id="bT7OtKBpSbufM8YGFAU0-57" value="&lt;font&gt;+&lt;/font&gt;" style="edgeLabel;html=1;align=center;verticalAlign=middle;resizable=0;points=[];fontSize=22;" vertex="1" connectable="0" parent="bT7OtKBpSbufM8YGFAU0-53">
          <mxGeometry x="-0.0678" y="1" relative="1" as="geometry">
            <mxPoint x="-2" as="offset" />
          </mxGeometry>
        </mxCell>
        <mxCell id="bT7OtKBpSbufM8YGFAU0-67" style="edgeStyle=orthogonalEdgeStyle;rounded=0;orthogonalLoop=1;jettySize=auto;html=1;exitX=0;exitY=0;exitDx=30;exitDy=55;exitPerimeter=0;" edge="1" parent="bT7OtKBpSbufM8YGFAU0-79">
          <mxGeometry relative="1" as="geometry">
            <mxPoint x="210" y="130" as="targetPoint" />
            <mxPoint x="185" y="130" as="sourcePoint" />
          </mxGeometry>
        </mxCell>
        <mxCell id="bT7OtKBpSbufM8YGFAU0-70" style="edgeStyle=orthogonalEdgeStyle;rounded=0;orthogonalLoop=1;jettySize=auto;html=1;exitX=0;exitY=0;exitDx=30;exitDy=60;exitPerimeter=0;entryX=0.071;entryY=0.714;entryDx=0;entryDy=0;entryPerimeter=0;" edge="1" parent="bT7OtKBpSbufM8YGFAU0-79" source="bT7OtKBpSbufM8YGFAU0-45" target="bT7OtKBpSbufM8YGFAU0-47">
          <mxGeometry relative="1" as="geometry" />
        </mxCell>
        <mxCell id="bT7OtKBpSbufM8YGFAU0-72" style="edgeStyle=orthogonalEdgeStyle;rounded=0;orthogonalLoop=1;jettySize=auto;html=1;exitX=0;exitY=0;exitDx=30;exitDy=80;exitPerimeter=0;entryX=0.071;entryY=0.611;entryDx=0;entryDy=0;entryPerimeter=0;" edge="1" parent="bT7OtKBpSbufM8YGFAU0-79" source="bT7OtKBpSbufM8YGFAU0-47" target="bT7OtKBpSbufM8YGFAU0-48">
          <mxGeometry relative="1" as="geometry" />
        </mxCell>
      </root>
    </mxGraphModel>
  </diagram>
  <diagram id="d6YcQwGxatVQ_ab4gVS8" name="第 3 页">
    <mxGraphModel dx="1362" dy="759" grid="1" gridSize="10" guides="1" tooltips="1" connect="1" arrows="1" fold="1" page="1" pageScale="1" pageWidth="827" pageHeight="1169" math="0" shadow="0">
      <root>
        <mxCell id="0" />
        <mxCell id="1" parent="0" />
        <mxCell id="96OFn5IF6fOYq_EBYqxh-1" value="" style="group" vertex="1" connectable="0" parent="1">
          <mxGeometry x="370" y="190" width="342.87" height="180" as="geometry" />
        </mxCell>
        <mxCell id="96OFn5IF6fOYq_EBYqxh-2" style="edgeStyle=orthogonalEdgeStyle;rounded=0;orthogonalLoop=1;jettySize=auto;html=1;exitX=0;exitY=0;exitDx=30;exitDy=100;exitPerimeter=0;" edge="1" parent="96OFn5IF6fOYq_EBYqxh-1" source="96OFn5IF6fOYq_EBYqxh-3" target="96OFn5IF6fOYq_EBYqxh-5">
          <mxGeometry relative="1" as="geometry" />
        </mxCell>
        <mxCell id="96OFn5IF6fOYq_EBYqxh-3" value="" style="shape=cube;whiteSpace=wrap;html=1;boundedLbl=1;backgroundOutline=1;darkOpacity=0.05;darkOpacity2=0.1;fillColor=#F27970;" vertex="1" parent="96OFn5IF6fOYq_EBYqxh-1">
          <mxGeometry width="30" height="180" as="geometry" />
        </mxCell>
        <mxCell id="96OFn5IF6fOYq_EBYqxh-4" style="edgeStyle=orthogonalEdgeStyle;rounded=0;orthogonalLoop=1;jettySize=auto;html=1;exitX=0;exitY=0;exitDx=30;exitDy=80;exitPerimeter=0;" edge="1" parent="96OFn5IF6fOYq_EBYqxh-1" source="96OFn5IF6fOYq_EBYqxh-5">
          <mxGeometry relative="1" as="geometry">
            <mxPoint x="95" y="110" as="targetPoint" />
          </mxGeometry>
        </mxCell>
        <mxCell id="96OFn5IF6fOYq_EBYqxh-5" value="" style="shape=cube;whiteSpace=wrap;html=1;boundedLbl=1;backgroundOutline=1;darkOpacity=0.05;darkOpacity2=0.1;fillColor=#F27970;" vertex="1" parent="96OFn5IF6fOYq_EBYqxh-1">
          <mxGeometry x="45.620000000000005" y="30" width="30" height="140" as="geometry" />
        </mxCell>
        <mxCell id="96OFn5IF6fOYq_EBYqxh-6" style="edgeStyle=orthogonalEdgeStyle;rounded=0;orthogonalLoop=1;jettySize=auto;html=1;exitX=0;exitY=0;exitDx=30;exitDy=55;exitPerimeter=0;" edge="1" parent="96OFn5IF6fOYq_EBYqxh-1" source="96OFn5IF6fOYq_EBYqxh-7">
          <mxGeometry relative="1" as="geometry">
            <mxPoint x="155" y="125" as="targetPoint" />
          </mxGeometry>
        </mxCell>
        <mxCell id="96OFn5IF6fOYq_EBYqxh-7" value="" style="shape=cube;whiteSpace=wrap;html=1;boundedLbl=1;backgroundOutline=1;darkOpacity=0.05;darkOpacity2=0.1;fillColor=#F27970;" vertex="1" parent="96OFn5IF6fOYq_EBYqxh-1">
          <mxGeometry x="100" y="70" width="30" height="90" as="geometry" />
        </mxCell>
        <mxCell id="96OFn5IF6fOYq_EBYqxh-8" value="" style="shape=cube;whiteSpace=wrap;html=1;boundedLbl=1;backgroundOutline=1;darkOpacity=0.05;darkOpacity2=0.1;fillColor=#F27970;" vertex="1" parent="96OFn5IF6fOYq_EBYqxh-1">
          <mxGeometry x="155" y="100" width="30" height="60" as="geometry" />
        </mxCell>
        <mxCell id="96OFn5IF6fOYq_EBYqxh-9" value="" style="shape=cube;whiteSpace=wrap;html=1;boundedLbl=1;backgroundOutline=1;darkOpacity=0.05;darkOpacity2=0.1;fillColor=#05B9E2;" vertex="1" parent="96OFn5IF6fOYq_EBYqxh-1">
          <mxGeometry x="213.95" y="70" width="30" height="100" as="geometry" />
        </mxCell>
        <mxCell id="96OFn5IF6fOYq_EBYqxh-10" value="" style="shape=cube;whiteSpace=wrap;html=1;boundedLbl=1;backgroundOutline=1;darkOpacity=0.05;darkOpacity2=0.1;fillColor=#05B9E2;" vertex="1" parent="96OFn5IF6fOYq_EBYqxh-1">
          <mxGeometry x="262.88" y="30" width="30" height="140" as="geometry" />
        </mxCell>
        <mxCell id="96OFn5IF6fOYq_EBYqxh-11" value="" style="shape=cube;whiteSpace=wrap;html=1;boundedLbl=1;backgroundOutline=1;darkOpacity=0.05;darkOpacity2=0.1;fillColor=#05B9E2;" vertex="1" parent="96OFn5IF6fOYq_EBYqxh-1">
          <mxGeometry x="312.87" width="30" height="180" as="geometry" />
        </mxCell>
        <mxCell id="96OFn5IF6fOYq_EBYqxh-12" style="edgeStyle=orthogonalEdgeStyle;rounded=0;orthogonalLoop=1;jettySize=auto;html=1;exitX=0;exitY=0;exitDx=20;exitDy=10;exitPerimeter=0;entryX=0.368;entryY=0.111;entryDx=0;entryDy=0;entryPerimeter=0;" edge="1" parent="96OFn5IF6fOYq_EBYqxh-1" source="96OFn5IF6fOYq_EBYqxh-7" target="96OFn5IF6fOYq_EBYqxh-9">
          <mxGeometry relative="1" as="geometry" />
        </mxCell>
        <mxCell id="96OFn5IF6fOYq_EBYqxh-13" value="&lt;font&gt;+&lt;/font&gt;" style="edgeLabel;html=1;align=center;verticalAlign=middle;resizable=0;points=[];fontSize=22;fontColor=#000000;" vertex="1" connectable="0" parent="96OFn5IF6fOYq_EBYqxh-12">
          <mxGeometry x="-0.1237" y="-1" relative="1" as="geometry">
            <mxPoint as="offset" />
          </mxGeometry>
        </mxCell>
        <mxCell id="96OFn5IF6fOYq_EBYqxh-14" style="edgeStyle=orthogonalEdgeStyle;rounded=0;orthogonalLoop=1;jettySize=auto;html=1;exitX=0;exitY=0;exitDx=20;exitDy=10;exitPerimeter=0;entryX=0.359;entryY=0.071;entryDx=0;entryDy=0;entryPerimeter=0;" edge="1" parent="96OFn5IF6fOYq_EBYqxh-1" source="96OFn5IF6fOYq_EBYqxh-5" target="96OFn5IF6fOYq_EBYqxh-10">
          <mxGeometry relative="1" as="geometry" />
        </mxCell>
        <mxCell id="96OFn5IF6fOYq_EBYqxh-15" value="&lt;span&gt;&lt;font&gt;+&lt;/font&gt;&lt;/span&gt;" style="edgeLabel;html=1;align=center;verticalAlign=middle;resizable=0;points=[];fontSize=22;fontColor=#000000;" vertex="1" connectable="0" parent="96OFn5IF6fOYq_EBYqxh-14">
          <mxGeometry x="0.153" y="3" relative="1" as="geometry">
            <mxPoint x="-21" as="offset" />
          </mxGeometry>
        </mxCell>
        <mxCell id="96OFn5IF6fOYq_EBYqxh-16" style="edgeStyle=orthogonalEdgeStyle;rounded=0;orthogonalLoop=1;jettySize=auto;html=1;exitX=0;exitY=0;exitDx=20;exitDy=10;exitPerimeter=0;entryX=0;entryY=0;entryDx=20;entryDy=10;entryPerimeter=0;" edge="1" parent="96OFn5IF6fOYq_EBYqxh-1">
          <mxGeometry relative="1" as="geometry">
            <mxPoint x="21" y="10" as="sourcePoint" />
            <mxPoint x="333.8699999999999" y="10" as="targetPoint" />
          </mxGeometry>
        </mxCell>
        <mxCell id="96OFn5IF6fOYq_EBYqxh-17" value="&lt;font&gt;+&lt;/font&gt;" style="edgeLabel;html=1;align=center;verticalAlign=middle;resizable=0;points=[];fontSize=22;fontColor=#000000;" vertex="1" connectable="0" parent="96OFn5IF6fOYq_EBYqxh-16">
          <mxGeometry x="-0.0678" y="1" relative="1" as="geometry">
            <mxPoint x="-2" as="offset" />
          </mxGeometry>
        </mxCell>
        <mxCell id="96OFn5IF6fOYq_EBYqxh-18" style="edgeStyle=orthogonalEdgeStyle;rounded=0;orthogonalLoop=1;jettySize=auto;html=1;exitX=0;exitY=0;exitDx=30;exitDy=55;exitPerimeter=0;" edge="1" parent="96OFn5IF6fOYq_EBYqxh-1">
          <mxGeometry relative="1" as="geometry">
            <mxPoint x="210" y="130" as="targetPoint" />
            <mxPoint x="185" y="130" as="sourcePoint" />
          </mxGeometry>
        </mxCell>
        <mxCell id="96OFn5IF6fOYq_EBYqxh-19" style="edgeStyle=orthogonalEdgeStyle;rounded=0;orthogonalLoop=1;jettySize=auto;html=1;exitX=0;exitY=0;exitDx=30;exitDy=60;exitPerimeter=0;entryX=0.071;entryY=0.714;entryDx=0;entryDy=0;entryPerimeter=0;" edge="1" parent="96OFn5IF6fOYq_EBYqxh-1" source="96OFn5IF6fOYq_EBYqxh-9" target="96OFn5IF6fOYq_EBYqxh-10">
          <mxGeometry relative="1" as="geometry" />
        </mxCell>
        <mxCell id="96OFn5IF6fOYq_EBYqxh-20" style="edgeStyle=orthogonalEdgeStyle;rounded=0;orthogonalLoop=1;jettySize=auto;html=1;exitX=0;exitY=0;exitDx=30;exitDy=80;exitPerimeter=0;entryX=0.071;entryY=0.611;entryDx=0;entryDy=0;entryPerimeter=0;" edge="1" parent="96OFn5IF6fOYq_EBYqxh-1" source="96OFn5IF6fOYq_EBYqxh-10" target="96OFn5IF6fOYq_EBYqxh-11">
          <mxGeometry relative="1" as="geometry" />
        </mxCell>
        <mxCell id="uzjApi5Yk7xKgFc6aat_-1" value="&amp;nbsp;U-Net多尺度特征提取" style="text;html=1;align=center;verticalAlign=middle;resizable=0;points=[];autosize=1;strokeColor=none;fillColor=none;" vertex="1" parent="1">
          <mxGeometry x="230" y="448" width="140" height="30" as="geometry" />
        </mxCell>
        <mxCell id="cUSMkPh2g_aT2usX1fQN-1" value="" style="shape=cube;whiteSpace=wrap;html=1;boundedLbl=1;backgroundOutline=1;darkOpacity=0.05;darkOpacity2=0.1;rotation=0;size=30;" vertex="1" parent="1">
          <mxGeometry x="50" y="80" width="60" height="130" as="geometry" />
        </mxCell>
      </root>
    </mxGraphModel>
  </diagram>
  <diagram id="wH9aq-XTVImk3ENSpT0b" name="第 4 页">
    <mxGraphModel dx="1362" dy="759" grid="1" gridSize="10" guides="1" tooltips="1" connect="1" arrows="1" fold="1" page="1" pageScale="1" pageWidth="827" pageHeight="1169" math="0" shadow="0">
      <root>
        <mxCell id="0" />
        <mxCell id="1" parent="0" />
        <mxCell id="UOrmI15TUq8YTyJgdlEN-3" value="" style="edgeStyle=orthogonalEdgeStyle;rounded=0;orthogonalLoop=1;jettySize=auto;html=1;" edge="1" parent="1" source="UOrmI15TUq8YTyJgdlEN-4" target="UOrmI15TUq8YTyJgdlEN-6">
          <mxGeometry relative="1" as="geometry" />
        </mxCell>
        <mxCell id="UOrmI15TUq8YTyJgdlEN-4" value="Conv2d+relu&lt;br&gt;+batchnorm2d(11,64)" style="whiteSpace=wrap;html=1;" vertex="1" parent="1">
          <mxGeometry x="150" y="65" width="140" height="40" as="geometry" />
        </mxCell>
        <mxCell id="UOrmI15TUq8YTyJgdlEN-5" value="" style="edgeStyle=orthogonalEdgeStyle;rounded=0;orthogonalLoop=1;jettySize=auto;html=1;" edge="1" parent="1" source="UOrmI15TUq8YTyJgdlEN-6" target="UOrmI15TUq8YTyJgdlEN-9">
          <mxGeometry relative="1" as="geometry" />
        </mxCell>
        <mxCell id="UOrmI15TUq8YTyJgdlEN-6" value="ContextAggregation&lt;br&gt;(64,64)" style="whiteSpace=wrap;html=1;" vertex="1" parent="1">
          <mxGeometry x="155" y="135" width="130" height="40" as="geometry" />
        </mxCell>
        <mxCell id="UOrmI15TUq8YTyJgdlEN-7" value="" style="edgeStyle=orthogonalEdgeStyle;rounded=0;orthogonalLoop=1;jettySize=auto;html=1;" edge="1" parent="1" source="UOrmI15TUq8YTyJgdlEN-9" target="UOrmI15TUq8YTyJgdlEN-11">
          <mxGeometry relative="1" as="geometry" />
        </mxCell>
        <mxCell id="UOrmI15TUq8YTyJgdlEN-8" style="edgeStyle=orthogonalEdgeStyle;rounded=0;orthogonalLoop=1;jettySize=auto;html=1;entryX=0;entryY=0.5;entryDx=0;entryDy=0;" edge="1" parent="1" source="UOrmI15TUq8YTyJgdlEN-9" target="UOrmI15TUq8YTyJgdlEN-16">
          <mxGeometry relative="1" as="geometry">
            <mxPoint x="420" y="250" as="targetPoint" />
          </mxGeometry>
        </mxCell>
        <mxCell id="UOrmI15TUq8YTyJgdlEN-9" value="Conv2d+relu&lt;br&gt;+batchnorm2d&lt;br&gt;(64,64)" style="whiteSpace=wrap;html=1;" vertex="1" parent="1">
          <mxGeometry x="170" y="220" width="100" height="60" as="geometry" />
        </mxCell>
        <mxCell id="UOrmI15TUq8YTyJgdlEN-10" value="" style="edgeStyle=orthogonalEdgeStyle;rounded=0;orthogonalLoop=1;jettySize=auto;html=1;" edge="1" parent="1" source="UOrmI15TUq8YTyJgdlEN-11" target="UOrmI15TUq8YTyJgdlEN-14">
          <mxGeometry relative="1" as="geometry">
            <mxPoint x="215" y="510" as="targetPoint" />
          </mxGeometry>
        </mxCell>
        <mxCell id="UOrmI15TUq8YTyJgdlEN-11" value="MaxPool2d[k3,s12](64，64)" style="whiteSpace=wrap;html=1;" vertex="1" parent="1">
          <mxGeometry x="135" y="335" width="170" height="30" as="geometry" />
        </mxCell>
        <mxCell id="UOrmI15TUq8YTyJgdlEN-12" value="unet(64,64)" style="whiteSpace=wrap;html=1;" vertex="1" parent="1">
          <mxGeometry x="155" y="420" width="120" height="30" as="geometry" />
        </mxCell>
        <mxCell id="UOrmI15TUq8YTyJgdlEN-13" value="" style="edgeStyle=orthogonalEdgeStyle;rounded=0;orthogonalLoop=1;jettySize=auto;html=1;" edge="1" parent="1" source="UOrmI15TUq8YTyJgdlEN-14" target="UOrmI15TUq8YTyJgdlEN-16">
          <mxGeometry relative="1" as="geometry" />
        </mxCell>
        <mxCell id="UOrmI15TUq8YTyJgdlEN-14" value="Dropout2d(p=0.5)(64,64)" style="whiteSpace=wrap;html=1;" vertex="1" parent="1">
          <mxGeometry x="140" y="490" width="160" height="30" as="geometry" />
        </mxCell>
        <mxCell id="UOrmI15TUq8YTyJgdlEN-15" value="" style="edgeStyle=orthogonalEdgeStyle;rounded=0;orthogonalLoop=1;jettySize=auto;html=1;" edge="1" parent="1" source="UOrmI15TUq8YTyJgdlEN-16" target="UOrmI15TUq8YTyJgdlEN-18">
          <mxGeometry relative="1" as="geometry" />
        </mxCell>
        <mxCell id="UOrmI15TUq8YTyJgdlEN-16" value="add(64,64)" style="whiteSpace=wrap;html=1;" vertex="1" parent="1">
          <mxGeometry x="360" y="235" width="80" height="30" as="geometry" />
        </mxCell>
        <mxCell id="UOrmI15TUq8YTyJgdlEN-17" value="" style="edgeStyle=orthogonalEdgeStyle;rounded=0;orthogonalLoop=1;jettySize=auto;html=1;" edge="1" parent="1" source="UOrmI15TUq8YTyJgdlEN-18" target="UOrmI15TUq8YTyJgdlEN-20">
          <mxGeometry relative="1" as="geometry" />
        </mxCell>
        <mxCell id="UOrmI15TUq8YTyJgdlEN-18" value="全连接层" style="whiteSpace=wrap;html=1;" vertex="1" parent="1">
          <mxGeometry x="360" y="130" width="80" height="30" as="geometry" />
        </mxCell>
        <mxCell id="UOrmI15TUq8YTyJgdlEN-19" value="" style="edgeStyle=orthogonalEdgeStyle;rounded=0;orthogonalLoop=1;jettySize=auto;html=1;" edge="1" parent="1" source="UOrmI15TUq8YTyJgdlEN-20" target="UOrmI15TUq8YTyJgdlEN-22">
          <mxGeometry relative="1" as="geometry" />
        </mxCell>
        <mxCell id="UOrmI15TUq8YTyJgdlEN-20" value="多头注意力层" style="whiteSpace=wrap;html=1;" vertex="1" parent="1">
          <mxGeometry x="480" y="130" width="80" height="30" as="geometry" />
        </mxCell>
        <mxCell id="UOrmI15TUq8YTyJgdlEN-21" value="" style="edgeStyle=orthogonalEdgeStyle;rounded=0;orthogonalLoop=1;jettySize=auto;html=1;" edge="1" parent="1" source="UOrmI15TUq8YTyJgdlEN-22" target="UOrmI15TUq8YTyJgdlEN-23">
          <mxGeometry relative="1" as="geometry" />
        </mxCell>
        <mxCell id="UOrmI15TUq8YTyJgdlEN-22" value="全连接层" style="whiteSpace=wrap;html=1;" vertex="1" parent="1">
          <mxGeometry x="590" y="130" width="80" height="30" as="geometry" />
        </mxCell>
        <mxCell id="UOrmI15TUq8YTyJgdlEN-23" value="强度预测模块" style="whiteSpace=wrap;html=1;" vertex="1" parent="1">
          <mxGeometry x="590" y="240" width="80" height="30" as="geometry" />
        </mxCell>
        <mxCell id="UOrmI15TUq8YTyJgdlEN-24" value="" style="shape=image;verticalLabelPosition=bottom;labelBackgroundColor=default;verticalAlign=top;imageAspect=0;image=data:image/png,iVBORw0KGgoAAAANSUhEUgAACCQAAABICAYAAAAk9bb8AAAAOXRFWHRTb2Z0d2FyZQBNYXRwbG90bGliIHZlcnNpb24zLjkuMywgaHR0cHM6Ly9tYXRwbG90bGliLm9yZy/GU6VOAAAACXBIWXMAAA9hAAAPYQGoP6dpAABjBElEQVR4nO19IYMkN5JuFDBasEOHDDm+YA6swRwwMekB02TBPXDEC6bJgSXjX+AhBiZtsCYPvAVLukE3MTE4AxvcgEWPPDLE5IFe4EcM6oEuVauiIkIRoZBSWaWPdFemFIpUKpVSxJcRGwDYwsTExMTExMTExMTExMTExMTExMTExOpw9+INefz1x9uq+iWZlnqcjJ64e/FmsbYnJiYmJiYmJs4ZG5iEhImJiYmJiYmJiYmJiYmJiYmJiYmJUCSHPecE9zr0MSJIAiX5VrlUnaSnJCuKMEC1MckIExMTExMTExPLYBISJiZGw6uv6OM/fkkfv9n9vWyizcTEMqDG9Q1VUFkmlZNk3Bh+43aptjm9OFmS7t6ykfU1/ceV8Vyz5X5Rx7n/te1LSPfWov+coycmJiYmJiYmJipw/XBovrt6tllIkwkOHiKAx9GvlZsQLZ8jGpSOaa+Vq2chE/QgPExMTExMTExMTOgxCQkTE0vg1Vc8wYAiJHBlMZJDcGI8aByf3ntXcoqmMpJTNv+by+SOS21pymF9KOc+V87Tl6XrxselMpq2S/0t/V8Djc4asoVFP6087fkSPPdFq5NGprYMZDLT/1x9btxNTExMTExMTExM7DAJCWOiBZkgGnlUghoCBOXIt6Z6qO0vLylhkhBODNo9s/aDidI5ap9usatINqiSviVo2+aO4eNAlMf61tp8NHJKsiWbYkLpOlIZ6321wGJX1cihjidw10K1HfGxUsmmmkP7kdm0hS0DS9/P+zRRgUlImJjoBe1kjQkJEhkh4gVQ+urbUtcCy5fUFjm1Xz2XHLAe/XJw/W35etv6NbrW2RrxFXm0Y71lG63bidTTK7+GHGB5BizjNXJD5z1fWydqfpBkz8X9xMRqkBxE0zE0MTExMdESOSGh2TtH4zQ55XVqy/0bgbv/fAOvv7k9OpYjnc/L4jJaYKd8SzIFvi4N0nVRffL6m1uyvygZqWyuy142R0zQfFRQQpQ9Kv3Odattp+UHET3g3YNH2x45xy6Azt7htddpZNWgdF1WWSXHuSRXarckW+Mox79LZJFIm6jlOdSMDa5PS/3hBWev4mxYFCGGgsbG3XLtIZFzpDKAjtW0L71/Sv2usetK+kltTEwEYxISJiaUqPoaIX8xfL0jHGijHrRGlIOQQ88NSktw1/F8C/BLYSykMpqyVB0KVnkaeO+VtHHJj+NNmgTNBoNqp7TJkGRrFr4tSRK1G+Vez1rEhl+7sVtq/qh9FrSQNhsTpw0pUlKGJ0e3Ruh0hk+cIKzOMOsc+ipbl6e2vv4K4C/Z83kJ6md2YmJioiVCCAmleVKzPm8B7x7RggZ7C86Brq3LOd7xby8BoQRLCgUAW4QFTm+ufn583weKe4aJB+nY629uD+ofkRqktYQHJQeoth53jrOHtHRia3WjjkfalzR1WtsNSk5rII5TDm+unJcgUTrmhdfuw53n+gmXt/SRxl5H1fUSLXKZqb6WEJDrQulXag87jGtsh972ufKc09xzb1pAe40JFhJHssvjcfCTwt2Kbf7Jvv98C/Dp5rDtdCzph30F2DcgESYo3VJ7+XXk5T7dHNfLj1HnpbqW80vi0025zIQZk5DghXZBxk2809kgY0kHtvDCuf6MMQBY9P0aRUBIBk9qTJQWd5xxlHpJUMcBdC8trv0o56x1QwRw/JxxC10LqAUUdZ4qT7XbYvPVaqGm3SxZZUnHauRRx2sX3y36domFdU2/aDYElnPc5s/7bEjPecR9jKzrnQep69od0+RptZ5POl5/toWrHza8LtMZF4dXNmLi9cPjvbn+bEsQE0pL+XR+bqRa4vphW3YMtdpkn9MmmVuf1SCf217tiAhfZ38Bns5HGNcnAG7QOyehVx9pn0Vp/5TOe57rSKNbSwOeZHikCNGUQXVpWI3s1ro9wOiR7BJXzzZ99y+UwV4rq9SnJSeHts01QjneWpEVDkgRaC72RFCwpHXA+xXqd14fkxYoMoKEu/98Q0dIiHBMtsTSc5LHprAkam2M+XFgzrfQo6UdsFaGZg4HoYxkv8mPaftBuj+W97+2X77+6pDAXKofNTdItumavUmSbek3zVqdspsnUB/VUfdUsslTurRa65XqcTZKj/M97xdpnEukgJJ/J5e1VoKAFbW2Ek0/aPrLS8pYek/l3RMU6m3ghrZikkYCLaJfcqdqwDnla4x6iKSXY81muHSc2jhfFqIkaJ1uWocfdv5IiwRu/GA2G3cOQ3uvPM+610nXQpco1Bi7lkZp/PfUA4N7TqgNC/5fgvZ6LRsjShZ+1jUbNI18q05a2dq62rmN21hwMizHQFHWMra1MrlzkZtB4ZothATNl0t7QsJOfnJ8Hz1Hk4wQCwchASCPkrCBMp8Yl1l4IzPBI2Kzf06khEjkzyJOmZaOTzSBisQTiZ+2Mc9J1POa9Olp7GtJoMi/8FracBaJKGdCw7YeyYobV121kZGCp0962A40sqS9SgJqEzv+cdoE1hEutcFBsQeOSrOQRwugru3I4c+QB6LSQJSIDAdkBPQ/BWmfxGJEm00O775akld7zZy9Q7JdeG3g0p678BybYLUbUHU4+7DVlq3RywuLPSlBKo9tcxE2klwebp8ae5xt0doePt5iPFHnODsiBjcHaMdh+g1CeY3+uBylowc4IoBkX8zbL/Vz6Vqk/uLk/UTo6l3r5/uVXC6Wk0dToI7neuYoRT1YC0aJulCrh+Y8QJ0fIRo19vzd8UdrJXGyipAQCe8ipSU0E5MFEYsyGCx/bf4wSUYJ7USvQUT4+oIObIQEkOuZ2gc4dlZoFtsY+CWDZfT6isWycOk5iXqeNc4oUFq8jQ7pxWG9fy3vt2XhGAHPBorbjOfnItrR6mE5p9HDeg8kY1ppAyUdByj3lVaXCDk1kPpoh1a5XbExjnQQUe+jXmuznm0NjS1cP5TSNjwu6flzEy0R5lzlwidqNqkTMjgikHYPVmtIPVdY93mt+uunLdz96VH4678HL9StBq9KYsDdny7jr0FoT41ESqD2nSWU1qatEWmT8LRpQG6PAGgUIaE3Ss6jiHmhYR9RaRcAoF5vxTq41R6hBG3KBossTRqHGj00BAYAGP95ar03ldqqqd/C5sG1gc9p7QepTkLpvcDZ8iV9cBkttHW1fYDlaew2WL40d2vnP8k+4x0rGpsV1zbAIUn5L1/GOcIlfSSbP75/XB+V7ErWZ6GkpyS7NN5q2rXqqB1P3DOhvW4JFmK0xh6QkxFq/DmXTHtS2y3OjW7P8NhoIlG6x5Z9tnXuAqVsS7uXQoSEbtBc+KkBT1jUAs2BYQkJCSmnjrS5xJO05qVd8+LXIpMjkhKAaQ9fp6Sv8cvJKiQ9NC+x2n5uaehZkRHJLM/6wohqt2d71gVmArUp0Cx0uTmW27h5Xs6ajYFUr1SHKhe54S2hZsFjqR+BiLZK44HaIFrbLckG+QshfB6DMtjlxjjWoZpvyHt9LVyxFjo1HOaKBtCnaMDHJlqhy5feGkPBRBkSKaH3GnyiOyzOsxpnW6SjrtiWh5hQ+7WWFkutPTUyeq5DJT0qyx1ERwCmLOfEoM6X2tesh4NtL6GwOCMwpH5QrOFboBdhWdOud96T0jFo6tb0Qek6I57R7nNNyaastVt47TO4Hesz4LU3am0oteD6ikLpWkq2cUq2Zd4tzVN47pfeD7icpAsGNRaixgdnE6PKa23yGNLzIfVpjY26pCv3btbIyuVpn3eN7bGkR0m3fLxbxkfEPK2pq7G7LhFpoPT1PAA/V6Vja4uQ4CVBrBnJX1d61jXnrM9u7TuUaW9ZQoLmotZkkC5N6tqNW8U1dw9/maB9GWJoJ24r40taJOVlnA/VPoKItNjxvohTaOzIENlLGlw0aLVJ0JTFKG0qLIteTfvaSZ9bPHD6el4wtUY6y4stcgGrMSxpr4uTaZ1TqD7l6ns3R7hdjY5cXep/SZZm05KAx6i1vdL49o4lSUeqHaqudZMprQuYeScyDCpGkosJjW8eruH22dVjoYKD7s3Dtavt2x928vEzes6g3vu78fGUK9orfIG14Zmg69qbyhm5FpzCM655r2jfY+cGzXu6Qz+RjjTCqZ9HU0j/RyFvzyuby7EemlKiFr1SN0QYmkeBUp+nNUHWx5p9Hi7rXb/mxzG8DhjclmWvkbctPVLKfU6eoiAHFQVhHx1hoXl+hAgJ1nQJJXlcGziKAve/Rf4ROhvkze2Wng+rLbp0nrNpYLR2CnplSv3utXtxtrPS/dSctziTSjYgi22Da7/Uf1wZqT5VpqRbCdI9peR//dVj5AONHnlZ7j0qQWNfLtWV+prS22uf5trQnsvbLOmtlU/NadzzAKAbw5LeXD3OZrv0Hs8630u250vQrf+XsD94iNSt0yj0JD5oI8+X4H1nNnh3i4QENm1DhDKeDcaIoBYiVigcElp0JyRYBn1eJ//NPcQp7GP+tyeY+0kaAADoRSi3OJBeDqUcthbjHWW41o7V0Qw0HKL1tC5Yojen3AZHo4umDe1ixXpdktye4826kSvJKS1EOXCbROuGQwuPjlz7WBduM6vdfEmytP0jbUy0+kh65jKp/6k6pc1PCQHroJovlF5/vN0TD4oRlghHuZuIkIgOEyo83ZtSyQ1QkRMeUz0ssGk8IyxGBp6wA89lN/BkaLxkyqRyEiyGnwmdoT6q37K9UMn53zOyQVSb6hDkPVFaP4+2v4zay2nWg979R6n9HDWGROteiWpP28YStgass9e5skMiLpwbIaE2ioE0b3mjLFAEbkouFZGBhPa9z811HudbzTOVQ2MLkdrsOV+X9t/Ss6qdrzi52v1+rgclA9eRdJD+Uu3mMkt9IMFqd+B0knTnbElSezXvGE5n6p6W7J3Ss1h6F3ifWwklm+0S709JFwB+3GrqYmjshgCHfqL8f82zohlfUnlK9yW+zE/+soScLJAikKe+S7+TnnmqNZw+YaloD97IB0vV7YkIIkjUHls7HwltlQkJS+SkW5PhxvJSKL3wpIlNiW5GUesCPU1+Cemhph5uTECIeMFHvbAvM+cARdapaS9dJw6PTb14S2OE+4KOWqRpjQ6cztqx4IV1oWDVRbtY0RhOqA1FCVJ57cKf0xuIcpZ5qqZMZD2rvMgxo63n2SRL96bHs+WRK/W5Z1xFzA/a51f7v7XtmvmegnKe315vYXO1OTLcXby7gc3VZk8Y+OIP3wMAwHf/+Hz/f/qd8Dm8VZEREoEhJyPg3xImGWEHQwSk45QNHnRYF54xJiHhxFH7nl3TvrYViPc0u5+K7i8HIcGTxzwv44Hly15OT3X6BmsOW6k8lc+WQzKYUmkcLVjSEO+Fd89ClM/XBQAZ6dC7t0lYW58C+J1a1n0LYasjI5RUoORQx2Vr4CFCeUkIrYheVLo6jtwgze1Hfb7U3lCSmdBiz1wjl9pLU69Zr63OYj+IsHGlcgCycxugLEvjoLGOFcoOWHq35NDYGDQ2UKmPODulBbU2mpJM6hgmJ2tsrJr7q9WtBKn/tcD3n6pP2ZslXXJIzwj1gallrpDmVusYqbUFS+Nf67j2OrlbRiaw6BOhx1JO/rVGTvB+oO2dj7/e+SXTvBi9R7gckZBAOWhGR4Mb40FXgyjlIE3Ai+b0m3KSY0OHZaPIIWojwLzsDgxoNRsETs+vmXzd2hd/DkwCSXKoRYhlQeN1vlmdnN7zEWOgZkMkHY9GaXEGgh6WjZl209V7QRhdXrMBim6bu08lXXCfS2OgJJ8rq2mXA6UfJ1vqgxyccYDbpFH6SLpaUOqHmvFDXeMO2+vHeT0nIyQD28W7Y8GX//7t/v8v/vD9AREhIRESrh+28D08lb99drUnyb25+/3BcW+EBAq5vLMgLXgJCRIRMgcaM9Nh3hazf1eMG3had6d0ael/XM6KNexhWwLvK1AfspEYAWL6jjAGadIjUE4u6pwm7zlVfq8LQzDIy3OyqfK4zUXQ02YUjV77tmDsIzfmdole16HdN4wI77p/h/wZrXnmLA7+mvrRKDn4tZHaAGxkLI0uVF+pyQgYXnuSxnlWcqyV9saa/bRnr67ZK1P2Xq0cK0q2ypKD0HJdkg7Snp6bC/Pf2rakdiWZtba4kuz8nNQfFEp9x8m1jm2NHS8vm/bjVptRSY8SBDuPeyx64B372noJnL0RozT3WdrRlpXmNUBlqOvOIxP0htbxjf1uUiQALbxkCk8UglEjI/SOnCDdH+o9SJUBkOdZQMcp2VIdqr6ADQBsQw30EaBefKMbdawTueYlt3ZQDycOJ0OdL0G76PK+PAsw5WykUHrg84UR9+CXxgjV95j0kULz1Opes+j13IuIecnyPFL1vPXz8gnSolvTFrdRwbJxeWrjZrkO7eLPujEovQwt9aztWORJOpU2UxHXUdo8AhzfU+75xfWp8zm4jTfXBpanGWvchoHTpTQvRdxzbV1pg1357k9khIT794+VciPbxbub/fH8d05auH9/eURMoEgGWkJCNEFh3/apwkBImBgfk5CwAmCiATZCfo3SpZWez5Iha+IQxPvviJAQ3X+MkejuT5dqJ1qJZMCh5OTS1rU40fbkBW2UBAq1xrWSMbO0BrUYlmuw1B40ag+ww5FNItIeVULLdXUrROmUjdMqQkKljVNLjGoByvlPpUTgyFb4PCWba48iZ5XqA+zSasBTmo1c1yP0mH+ov9q2ez1f3Bqnh45W+xw+Bor6wXNyNTi7nsam45FvOaaVXbLnJUSOIW4elcYuXvf/5cun49IXwVrbLHW9XltnLaSxw9kSPTbhBMpWiMulaNkUqPumKV/SL/L9T8l6nukY5aheMl3Aks78taRQ4BBBZsBlpHQkOaj3tnW9eQOHH2x4bB2K560cIUH7NVY0TsmoY3EKVWAog6jkEK8FtYAH0Peh5WFEZYt5tiOAUzbUAucHokgfSxkNei6+qN8eGZpz3IK8tGDlxjQnC4jzpcUfhtQ+1Q7Wq4TSAlhzf6T2ehgVazbEnuNWWPrY0r5mw5KX620ckdot6a7d1FvOWTfga1nn7Bx3pQgGJJlBgbNM/2CMkDDM2m7iCF3WhQxSCpUJJajoB6++ossSz+ev118c/P7d1Xf7Y7+7+o4tl5dfPbj1oUcGZ7TVyii9xykC/KfHaY5K0Qa8edI1ucwlWbg8KR9FGgwhJVjBpV+koDVc50Zdqiy1d6HAndMar6Mh6WNcQycyAgD0i2iqWW+nY0AcHwne/X0GNxmh1lCcyUnO9dff3AJc7nT6BumUyebmOiskogHXjoVooG2TKkNhrwMiJZjvn8a+o4Fky7TI4t6jtc+e1gZQOlfbrqWsdh+eQ2Of0c573PmS7Z+yC5TsG6WyJZ0pu0j+m5KhtfdEPB+l9krXn0gFVJ38mvM9wF++fKxHRUyQ2pZ04vST1iUle1s0qLnD866X1vRSH5Sek4ixRLVHnS+tGalnCGPEUP8WuWtw9i8Fa99QEeFrEL3+0Mjg5tJSm8oyGwCCkLCreJSyobRwnzhEGjD4K5waA8xgePluCx/eCw8X91LhHONaUIs8rYMpGtq2LDp9zYSMBUIGNY6o9BhUXQ6lly1edGjGc3Qfee93xGJH2vBoFvIW/bwGE7wQpupoFoJSu5rNC9WmZjOjaX9JtNSBe/5qxrv2edGOfe19luRqNgbpPLVZ0sig9CqV5+ppnl0Ommeaqb/leKPJb38FcPnwLV1GgSOHJhERYW0Y2knLhYQnMMkI42MSElYETATCZAQcPSFDTjLIiQgUNOdXCWkfWzK05uW0a1NJB65efp4gJOQpG6iUCPgYAO+0KznQNJEOJHA6HZASEPHg4Pp6kRK0Bjrrvl+Tb3jpfYR2zxZlvOPqJUjPJVWHcw5QTgZN+xS0Mnrv67z35PJ4TjA5taU9lBHs3PTN7QFRAUcEiIigYJkfObKWJa1DKs/N21qYU22UbEb4uOU+au0hGpmGfaUL0niV3v+Rdi98nrJHcXbLkgwsT1qfRM7T3BzM6atpx2JzK9lX8DnpPUHJ0egp6UTdB807LuHrbD1/Qxx/9dUTEQHgMDICdsRp7TeWNYHH1mS1YUnnau6D9JtCfu9+ItZ3qS73RXju2KX6jtI11y8vg9vPxzLeO+Q64Gvh1kv4OnrAk75hrYiIvgAwfgQGb4QECRTBQIuI+QeVEyMkDIPIxdQSwBPgKyIMUMA11hiuRWIBs7h7+e546Hx4v9G9SLmXUAtYnD/SS2Ung0zZoIW0YMNjJIHLY1saM9qvVWrRyohgWcDVytS2GSWvVCYZ4aI2QLXGIG6D5JGlqVNzj2ug6SMgyrR+BiLGWYu6EYh+5iJR6n+rQUPbJkIiJGxgw5MTJJEP38LNs7dVpAWANmkZouVqZC3uwO2crmGSGtphSTLC8AjY3+B9BrdPKZKjAeiUDRhpb4bK5lEQqP8xpGgJqycjWFC49zVz0/4+PEf9id+7uWERRREogQpFjs97oyd4cfTFcUY6SKko0nmJkBBKXPB8MVTa33Hg9kTUekvaQ0nreXy8VBbrhqEtJ7VFIDRCAm43wvaGZS2xr8Ow3Auq/A6YtHQgS9N33Div7JsD4gGRnkCDCOKUdM4rP/1PQUUQuXnsi0TQ2P9lyqptOLgeVy7apqWRby1H2aZb2X5K9lnr9Uh2dc17w/oOodrBbVr7UKOHVIeax7U28FQvyv6i7Vur/dH6Ps3P56SDXNYrIix5Kk857rixFmWzjYDGhpXDs34Cogx+32PZl3DsYMXk01QPR3nGa8ea8U1F4cp1lhzVHPI6uFwr53YLx7knlUDrc5a6OdlgFGJBDm4MafXEz4r2mYh4P1tQegfsjm8AYGtePHkVqZGxVlCOZcPXcRZgw47KQJfhqHzhBZ8bCkUyA1G3aHDI65YWKprNgmUxnbdNyNkTEn7Y0C9k3KZmI57LiRofqZ3naHJuYQiIWkBRfeW9/6V741nwa2Tg9ms2cqWxg/Xg9KpZLEsbPCxTqqsFt3iNGl+1mwWNbM1xSz3NeNPCK6vXgkczpkvPSkk/yMpqZZVAbcI0G3FOtx08BAQNcQGXqSUraNGK1LBE2y5ig/H9HkEmmISEtojoX+t6fUIJLh1DjvSF1A4vX72DDz++Pyr28tU7AAD4rxd/BoByFISEf/v4132dvN5qiAnUXkaLwrvz+mEL//G3P7v6QhNx4PXfbw4c70fnmVzkmq95e+dp99aFn7aPRAUmkkJYFIWaMKbcV2ocSnseLCuXJ+2PNO3m5aihJcmWyknrQUKnIzKCUFYFrq+0KO1P1wymH0pOchY1+3ABOCJCnrZBS0rQzjclspZGnkRgsOqkTZdjvmdauwuFWhul5Rla8jkr2Qei7AW19bV6actr9vbSOwPbDXAdzT2nymn0zmG1U5bsNpwuGjsm1SagMpb7juun/3EZaq/A7dOld3+pL7RlMUprjRKs9mrvGNHqopUdpYdlHObtUGnfOGfwJdARqkePWFBLPmiFUgSDyLpc+ah08xiW/pZS4tWsIb8mIsPkEdqlyDGRuKyJkOBVyLK5OSV0/CJO+0URrqOKbmCBdeGgcQxx5aTj3nICjqIk1OqDwRkDPA6y3OCjdYxJsGw0cl287WnreY0f1s1kaUEula0do6VNALegAuDvh9Reqe0cns0y1lNzjzVtUW1a61pkS8e940tTPy8DinJeWDftmjraMlR5z7jxzA0W2Zq2tGOBmN85goE3aoIVXsLCkgSEJdpPJAWpzdvX/3z8p2OUhIl2iCYkWMgJVKQyAIAX7x6f1yWjgQxDsrDM/XkIV4Rf//3/wL99/Ktbjf964XO8DwPLOoYrt0MicvzPf/8r/Mff/nxUNPWTRNzwfm2bYHGoUe1a22pFXtiTKHbki9d/vzmIBEESDj7dHDrvvrk9Nrx6DJCWOjhqX96+JaIftx+uXQ9LzgvLXpyC5ByRdEE4itCD5zppT8jJLl2bdY+m0SESnv0KOl8K5W9NEbBH3g+a4/l5gIM+LBEMcJqGWtRENciPJXCpcrhUDtJx6l0gRUigdCXReqxi1I7d6HpWObXPeM1e3SofUFuUXYGCZJ/RXD9uTyNXksPJ1upVY1Pn3oUeOwuup7mGiHdKrjflq7HYcyR7UC7Pohs1XrGciHlD25cWWzB33ZfAO37TF+1YjxRBgYqkEDlXJN1ynwmlL6U3d35JQsIS7XtlUfVq9KIiJnDgypUiLLQic5TarJ3zbuCJkHAJh+SD9DdFi8n/97ZVKBOfssFimNBOjmsH9YJrRFC4ftjCd+jDnqJBMHoij3T8UBtrTT1PWwZcf7aVIyRYgRdEAE+TRA6NMSFBYnlpda3pJ++COh3PEXl/Izc8pTEZMR9SOVRLcrQLZWDKYZSMJZQcST+ufe0GhNs8anWg9K01mkXNT5bnxiK75nnU1Pdu2LhzlvvBtZOA+0ratHOb69K4kf7ndKSQtduDaMDBE2UhR+uICyMSHXLnr4WQkJfFcj+Ht/A96Pty8XQUE2Ykxz1HLmgJTbv5HmIYkoEFUe/f3dxsuU8f/riBlz8/3d9VkxJq1rLE+vH64XEf9esv5SgTGL+7+s7s4D9IZWAgGUSQCWplRKd7ADB8KYxD5gLwxjKr8ZMiJaRjz7N2PeD2LN61fWublHM/KtojetnRNHs0DWr3zMzxfeSAj7fmdTgHd3QEAHk84b4r9CN2sOOoCDkxAc+BUfMeNbdikkHt/JejREaToiPsdcr75Zvb8v2ItJUmePeJedkWNgaufIt+iLDJKdZtbie5tq5mTqrtP+u1lGwcnD0Ozz+a60rQ2nC8dlKpD2psn7gOJiVzqbY1/Sm1U9Ijh2TD4sZryZalsbdr7X/cuNG0YYlEYNHNg/x68FfqiagA8OSshuy3hNYkX6uM0lf4tYjUXRPxALdnuTcaedpzPc7XpGHPnxkuSgIVLaFESqh418YTEqzQTCS9NlTByEN5cgaoX6+/eMx/GXSNFCEBwJhSIQrae2tZjLfaFHjhffgoGQmaxSNVr4Te/VZrxCktqLQGj9IClep/y331jkm8oLQszrXXpNkAlBb33DnNeUlfSacSqHYjnsVoaK47QrZ1Q1dTxrO5q9VJqidtUoAoE2H0iDQwUG0gUE7/XpERokDp2ytNBECZwBBJcMCySPLC638eEBLyMvn/OSFBoyNHlNBc+yQz+BAVIcECLYFhKaJD3r4WOTHDFNlNQvDczPVlIhpwEerePFzD//rbBwDg94PDI2Cfk/bFv7v67iBdgyb1BYaHlIBhdbpFtAdgi7JQk3udqmN2oOZGWI/BFR+rMaRhWAjbWtTutaOgeN6OojUuiZIjqBYeeVZbgQHmKAnSPp9qW7Ev5sgIlvQMrGxD2gYplQ0V+YCKZMD1J0c4KKXPwe1ieXlfifdR4wTz7IO99gGr3dSKWruFd5+sKW+91hbtYtsCBnXcM29565XsdQnc+LXeYwzKtqrpE27+Lb1XNO1wZfKPQ/EYyP+mr4cxvLZizoaLZWG9OXncMalPNTZ6qe+kcrm+VDut7IWe+YHSxyunZUoD6gv/JVIolCJFcPA433HUDA+0hIul0lbURJPQrGdrbf4WePw5u3qHhIQoQ70Eq8NphbDmBo3MJZoMo8ko9uGP6AHWvhCiF7gSpMW15oXbQgdrXSDqe19oAHKeae0iDqB9uBfueKTDTrM5imyjxYYnEtYNluc3J08y7kgbEw2oDZ9FBtZJu6mOGEPWTYPmnOa8pY52A2RFxLrBKk/Tb2DQy3INtcYajdyd/lvYFokHoxETaiMrUIgiLnRP3/D6n/Dm7vfk8f27nXnXv3m4NpMRKFgjLBzoOQkKEx2x37cQJIOX77bw/P1ruId7n3DOmFxaB6F3+8uf5Xnrxbtv4eP7t/vfnjQcQ8O7p0H49fqLfboGLyHhh/f/9+C3J/e5BC6k+NpQCp1OQXoW1eBynnqRG32jSQhcWxq7Vkto1+wj2My0DhOunnUPSe0ZLfvakl4FVEdIkNpG++30RX9+TSn6Qf5/ZIqGEkopFKS/qR73v9SeBRKZIY8kAQD19utoW9BS8iz2vdq2sFwvOLtjjX1H0ifa5pHL5NalWjulcM0HEUGsKM1TlA4lXb1ta21cJZmUPdNiKyu9g6g2S2Wkuh57YYSdz9JOgvddrG0/2vYIQBNcFfvCg2Otohm0gqW9Wt2spABNBAcNmWFkeKNmANT7D1r6r4y28g0AbJtPUpbyI2yqHNBEQ+DKW+qVkEJgDg2r89MjoxekF73GqSq9wL9mSAnehbtlQYvPaw232kUpp7/XOZnqRi+8WqG1A7R0nzX1vOe8i+YaHSLaj9o0cZvgFhsqSQ+qLcvzoVmER7zzLfU8BpWI8U/1Z+Q4LRhksPO+hdO/FaJ0tVyPhcDgjTrgBU7XkAgJFHHhc3gLV8825ogH2jIqfScpgUSKKJFyeH8P37r7ypQCQJliYamoCLhti0PTHaUDr02pc4Tx8c1n13D7w1N7L3/ekiTufeSSH67gzWf8M5WICPiaQ5y7o4B55x305a7Pbn+4Orgf+Xz027N7+OTh4khOfj9YCO9Lzde0mvNUagMPRicxuJypVtzAk6FXs5fUQLu/jlifLm2XEq4hpWu4/qw+Sk81au+rZq1O7WFQGcopb3Y+Y3D2hd0xVbSEWidK3uaNPgoCgH8eiko145lPayLDSCQyHEWCTdcg3a9RbJC1qL2+GluSxiaiRdR7Ja+foO2HvCyx3mSdmDV21pJNJpsrOMKSSE7g7KsWu4okN8mLKFeys3N9S907qjwng7OrWe4nN//g9qnzFvuYZHuX7FycTZOzb2IdsQ619xLg6av5aIJqC5shB8Hutzpoogv0bC+1GUBI+PXDn/f/S77aPAKgdD6VwR+kH32g3uqjYg+084vn2b7UpGyIeFAKF3CwkVrhw5kGEDUQMfEAl6POe3EQNlZ6CfZcSO/aevPZztC49ALe6tjSyINKWaWFiLVuDmoy0764ozbOAPQCRiqfw9IXS417a1u1CzJtf2plaxfOUGjPulkqQVogU23W3OOaly11ncCUbQlp81ZrnJWuydp3CqNiUb40RhOsc0dJZs291c4RaIO6ZjICwDKEBAqeKAtap77X+Z+crzhlQw4c4YBL7WDVx6LzJCXwSOturzMdO++XIBK0bNfqhBdTiyAHt2otUvveg2PigkRKAICDCAkJqR+211sAYphQ89sG5L6zlsf1tOVLuIAnYsE93O9/l6JZ1BCmuPnriz98r6ovpTGoSY9Qaoc6ZykjhSa36tOajJCnYAHIIjbWrtMpePY0nMySkX0pEPqnlA0Ag6RtSNA6YjCy4/sIAB5ngHY/u4M2/UIp0oj2WS2lKdCgZaoZigxQSoFg1YPTiyMx1M59B/WQE1ZM26BZR1idsd59tKWOdc8ZXZ+Dxi5YmntrbDWSjYrSQbJbaFGyf1BlS2tY7ZjctYejgnCEpgOCjmRzqxnzlN3OY8PV6qa1PXtsi5F2I8s8Iz1HGt2t1ySdj7D1avsGt/U82we1jpxF6ZT8LDnhNj/OOcV/2RwSdQHs0QFao5SigdO3hQ41kQScKRGwvzb5aCXfrvZ3QonEcFTu5V8fD/Qc69rnWTvPEigTEiyo3WQqjPMjg2O+/Hr9Bfzub//y+EXc7lq4wVwbJeH6YQvfvX/6ffS1D4Wa+6aB9JIE5twKgEO37vv6efZyAtA5MRNKi5pS/RxSCBtK3qjQGJIsizDqnHXxqtWPKuNZ6HG/qa+OauVLiFrAUvMAhnaj5dVHU5ZqR9qkWvuekqfVDZ8rzRUR/cShtHHXzHWSTlz/c3Kl49p1BvfbYxjQAI+1y0PHUW3ahpFICiUsfb21KSJKzv4S+eBzeHJoatMtUDKTvPQlvySrR0QF7LS3ECK8Dv+c7GElYWhIHTkhwYuP79/Ci3ffkv9/eH8sO/8S/83DNekAj4CWqMCVY8kImj1d7fu/A3JiQh4dIEfql+fvX++P3cGdu80e83h0G6/h9dGxTx4u4PbZ1QGZoQYp2sLts6vuEQkoJ2ONnB7gnItNYH1GpT1BySZkXX9r21wa3Noa0PGlEDwP5+kISBD3Mv8K+PXHW95hknBjizKQcEAm4L6uJ9o6ALcXlPbx2dg/cOx3TtXghYaQ4CVXldpJMBEiPGHtl0DUekiSU7JT5PU9bXrkcXYCyz5dY38BoYy1rcj+4crnQPMJTvMCACRJYf/McPNRpM0DH0tw2ogO3gPp2qxjg/r96qvDiMX52qA0Dq1jVQPNM6mRYbFfc+171mNepLZyJzXn2/DYZCPApX7Afpn0pTt3TkNIiIw8UEqJ0DO9A5ZjTfeAjxnr51ERAOSPzTE0aQixv1cbaX/vK44Y171tKILvZwOllA2WTU7Di7q45I0W93Af/sWHBWT6heffwa+/ZIPrb//y+E/2MpNICRdwcfB1CWe0yb9GAQD45d2joSvPW/ri3bdyGMxsgKQvgfAXQKowmgTwl0VVaGGEdMh6+fMWvngHcPW/He1xjKb8OUs5pf/yJVmUrUeBe7l4+q/HxKVZNGLgRSHh2DM560Eo09IQ7l04tb4vreRrNnr5udLmpQTOoKdZbONy2CgavSGwLCZS+zVjV9vXmueIe/4k/ahNNB4fmvuhgTRmNJtKXK4GyvHLOYeWdtxHY23Xk4gLN8/eFkkMkWkfeqF3OgsLltINy0zkES6KRQmJTPDi3bcH/6dz+f/4HACdIqGGRFCqA/D05XP6nzonpilYag3VQX5OVM77ISckAJwfKUHbDkVe0OLti0/E81pnl5dYUMqpHqGbRgev3l7k8wFGKZpPfo6yFeyjKwIcPHsHx1F7eVtpDsVl8zQsALC8Q5+Cci5LURJMERIkJ0IEHGtmTEIgSQkVe3DJaW99BjRkHs8zr42c0Iq4JDnze+uCdYiaj7my5HVLe2bP/lNC9PrFsy+22JhqnH2cXYCzC1kcp4LTozgvlewMkq7Ub2r8RDhJiTL5/KYm02RyDupz85BFb6qPub4Isq1S7xAARX9IzzO2z+e2+VqbshbUc1EaV9pxph3zUr9IaJFSIZfNgUoRluo7ni+VXqX5DuDwo9WcuJCuqzbqgLXOUtEXNO1LhAIPQYE6zo0TAPj1ly+O/Lke4I/UpTIlGaV2jqB4d+e+2lIESC/2ES6Zd3NshAQFErEAO9IxNMaaEQzp/+/6z+RxNjxHNvmTRIYdGcGDe7g/NEz+kX/IJEiDsUQu2A/q7EV3YGhg9MFEiCKJ4ZL+ug6HVdXIOUCmG46AkOOLd3AQiQLjwxsoM7Mwqy0P+4N1S3p9nS2GNIsBjo2nRY2z1FteI8O68LK0YdlESItorU6exRG1ePb2Qc/NtKVPAI6v0SKP2xxS5/My+W/cDvXM4QW9JLd0XjpGQbO5ljYZkjytDlw96bmg6mCdo8ezdrPAHdPI9W4+mX5ekogwwvpKi9GvBZMVor/U74UoEsDIJAYrcEoNa5sUsUBLSMgdbSVyQURaBkw6yKMzJPlJJ3wtCWzqtqh1iEdmi7bhcQ+BiQgAejLCqRAPItvgCAuJjGAhHZRSM9RGPIhA67QR6Xwr5HMf3uMf7Pel9RUcEhvSb2/EHFKf0dISBa0hRfnWOq3AXOvB17rO+fnoi19NHUtKE4+DxonIVDIRWJJEJcnKwfWZaU7U2H1q9oeefWPJJpTktbAL1TjrOBsKgKy3th81e3FDf1sjj1CEKkwUOHKS7/TGX/ZTbR+sW3Inu/Ke4LaPosqkcobnsTqSSMX6m4ukg/uw5h0CAE9jJhESap5Zjc2rVIZ6nrzPe+t1APZtcDpIenP2W+rLeSv5ocZ2zdkzNXPU8+1hhAQAn4O9FhFyveQAzfnalA2lOsJ4sRISSsQDDamgFf7Hv780lW+S+lXwQWyAipDAOWXSucKDK0UzAKj7MmQ05BEZfr1+HLgsvmZeZFmflvrOgvubLMLCTu4nDxfw27P7x3CZEgHg0p7fkyIdkCFNUZm83EFo3sI444gTNeF9EyTD7RfvHv9KhIQc4tdiP23h5S1R58ed8L98CS9/3tKpN9LLTMINHOZXAqhbFGhR2qi1MhRHLKyohWF+zqKDZYGlPadpX+NItciI0KO1jEZOhZA2a53sHn1Kz12U497TtuZYidTg3UCUoN14lGTkZSVDCTqnTdOgKbO0I96CtUVHqNWjta5cxAZvOglrmUiMqBPAIxlBk65B0i0RC7gICBI5oUQyiCAh5LIAgCRN4HN5+aMvkXui9/sW4+Z4T5fvf9dGBliyjVI7aS/ewlGnzZleCkG+pCOxa4qGDHjeI+0Al4cEAxzlID+e/67Vi7J7sGgxj3icGgTICAmePWDL+bK0N9futzV7mFwOdtpYwDmJGOdI6+crIi2MBZGRXTzRJKg6JRJBJLGB1cm6l/fstbXQPgMR8rBMpqzkUKdAfdFOnePKUPIsbVNtcvUl53vu7OdICFz7nB4AcNDPVMoFqh2KcFC6HhwhwfMs4f5hU0RQYzPIriOSFChiAufszvVLZb7+6in9tgeWd3Hevua8d05qSUjAPgjtR5FYJ+qelZzU+ZfvreztCeka0/U9R7pRfhfcbt5PSfelCAhLR03IUaOLhZAgPPeYkKCNVtCTfEB9CL9P7wBwEIGfQkp7uPcRK1IqpuAC9zf3RZ/s/ncioCNsAGDLpgO4uYeLy4sjxzYmFFBfLJwS6UBCuva8j6I2mZHkBAlpEJYQafC1GicxcUITUsRrtCgZcBMh4epZ2Ricy+SICWTu3R0h4eWrd4fl8wWRBji8TZKRI8KBLcmrKdvaQFIyNGhkJERs+rTGFs15CzSOYUu7Hud05HkrtNfIze01BodaY4XFQNfSKOm9Z1pnfale5BxWaoczynCbRKksHB+LJCWMgHOK6DDqtVw+fLtPLUGlmNCu70aK2ACwLFmBSteggTaqAQCfygGAJxy0SNtAERJyPfJzSW6KokA6/lqt60qIWN9SQDJxdITaPfGpEAtatrGBzZHzv4WTqrdTPxKck+3AYGTcO+N9LfVBAPmRALFm41IxJBke/VjkazKNUb7HnOWcn64/2z4SEloa3b37ZItsAPJrXfKZo/ZhGZpHBdGOmwaIJiRERpbRlud+c3UsUQ2sRAocop5N3wB0GPg0ZlV9yDiUvbA44Kl6ueN7CcJcKSpAKpMgOeU52SWZGlmSXFeqJCNxwaOntu0oWUdjCoB8b1DECU52yc5aInvk7bD2yCTbYsPJzzG6keW4soJNiIXH7iyteSQ7FcAhCSD5FPL/qbLpf8rxWwJ2JidHfamcRAaw2g4lnx4+x6VjoOokvfMyVH8ncB+gLkEu0KZZiKhbijYu1cdjlKqbj8uftvDrh6fI97+7+m7/TFjJBVEpGCKJDzVR+EsoZT7gytzDo/98cwEX5J1tSShoYZDobYzOSRgHZAQnWpEPNAMkh5acEAmcZgEgzoDsjZaQ55/EsEZIyEHm2ZSiJPz4JW3s+d9vy9ERMvkAcFy+hdOxBo2NHO56Gicpt0iNNg5JiyWpPYu8EeAhhngc11aZEc6Mmva154A5byU/9BgfJSd/qZ6nrVKZpAdXV7Mp5Ta21G8k27qW6eEEX4vDf1RCgBetrjcRE9L/0RgxqkF0yolSugYNqDUmh8iIB1ZY22bJCF60ehdZHUpKHbaXx3010rwyOrx9lUctXCKcuFS+dYSEGhLGd//4/OgYngt/e/Zo68B2gn36mCzq4l5GHjkRwG9AHwEj7pVAESEBoG7PScnzoqBHKXT4foxzDqZsrNR83c99nY8d5BTweao8jnagImAg+RrUzDk1c582qgwnw1I/ImqENHeSxwhn8oG+grPX+tW/1XnMfcWvcdy2AOWwzv+nnNcs6UNwYHPt5HK4CAI58DHpPrPw2J1qCF8KZ7NmfJfmtBocpIZA16eJUqGJNEGewwQjfA8pQkJKzZCnSc7Ll5zTFAGBsiVTZTSOb06fUn2ufc6ehfXL20h/82jNnGwNiQBDk+o6tc+V5+qVdOPKUOQL6t7m4PwJud65LAt2TvRqjBQRgQJFgrHWLZXJ5X662Tv5f/f8uz0hQXL+Lx0RQaPHn65+EWV6SQVWGVSdzQVcbNcQzWBEEgOXy7InPDe+Br0IC6HRGJx5JjlDcYmQkH8dBnD8FRxHSoBPswgKP77fR0fY13n11aNud78vX5OFLZiDY/T1RpTjNgotHLZRZIlo0oOm3Uh5nk1YqWwNmYBzGlv10Ti2a6E1FlqvqeR8t/Z9fpy736Xj2nZqUBqLEW0yfbu93B44U/Da5JRSGngxiRe2Mi2vpRRxgcNoERYAliVP3Dx7C//6DuC/ifVk6f79626JuBRRQWr3w/uN37iqgfd9no4lBOtIEREAbM/i2iMVLNFOasuaM7xnCPQecIdaZqIkWOa8j+/fwoc/bvhUkF6cKiEhes8DBnkeRO13s/+pvOn5V7FUmgLstO757GrnFa886bzqK/6BYCEhUHW05ADL+VL7Wh2S05wLk78v6wzXL+rLONOlcP01KRRKdUliAUCxjkY+lk1FotjPF5x9gfq/ZDtLQA7LAzJU4Ro59CImRsvMESlfFSUhtUuQWY7Gh0D4ISMuWBzzGptlzd4Et127P5GuIf1fK0d6zrSycmg+opTshzjqQKRfg+o3LYlES1rQnutNRliStBBFSNCMg0vY+1X/fv38kZCAzsPN44fkf79+rtdjhyN5cJwSgiv76y+HpIh9WgZCZn4dFFoQC7TAvIMNbGCzhe3ylteVgDKs9CAl9CYd1LQrERYs6RYi4SUkAMgREkopGziU0jWU6nHhTlhwoW6sL+ilSAIl5zK3AQE4XmzWAMvmylBtlxYgVmdsroe0KIyAljBgcdx7F/La/rDq5WlLe45alNZsVlo5eDyyreOVez4t1ymNoSiDKXeegjTHcOOgsAFe2iE+ujO8J06F4AAwBqnFGo1hxEgLWiS9Pr5/C//9/pFAkKc6AJCd+jhFA65bg9Ykhg9/LKwvW77HpDah3C4Z3eAmux5MJMvO5XVbP/uTuHCM+xeHL2PN139b2B7V42ScKqgICb89u4df3t3B8/evj/KL5tESfnt2v7cXpHIpagKGSFIoGXa1iNz3Ybm9oHRIpOgIAI82ieuHLVz90ND4rq2nMNBTX0Fj518C6xhWlvWAIj5IkROwHpLM9D9X30K6GJGMYEXt/aLIGpqIMVz/kukjCKenJVWD+loaRyxoAS1pAeD036cjXZ9FlyX05ubT/XmC7EK+Nzjk9iLY/Z+iHlAkFg4Wp7uHTKB1dFvtXpTdjWqHQ6QdP8lL/2uiGUiOZK3NzmPH1cB6/1vseRMpwUIWGD0aAgCdegH7svCYKBFPdvcl+dCOottbnq2Cs58DG1GfkFfSL5EY9mQERv8LuFjMj5xQCnyw2X2Ot40yNoxkeK2F5VpGiJQwKrARoze8uSYlQ+2H97tNfwAhYQ8mbcNRvV2UhIsffywSEfLJ5/6nbDJIOZgiXoytjcqSw9Pzorcs3LQkAk0b1IKPWyRKi0ats17jINVAK5PTWSObqutxxmuJE1bdvItZ7vosTvy8DIamjnf8aMpojZXa8b0kpHkloXY8SOXQ/V3aybQmJ7sH5xRpoYQRSArRwPpQJIjbZ1ewha05woMVKS2GBlQ/pigIlHOvJRLxAa9X9ynQbgBe/izf8yIpQYsG68wD4sCNT08uGsLE8rh/cQkXH/WDJkUninKM1aAUsp2rk+tg/Yo4ERJGInd59+/NoHCyh8Cwtr5+EAgJnJNDI9sKac+k2YtYnEMnBC4NBJfGQYrycs7wpJaQCCF5Oa6+VGbiEcVUJDdPpI61IpSMMvB4KpEHWrajhvRewee97xqNo7nWHqSxHWrb0doPrf1gdWrnzuISKSGvQzmaLfbKmn6rtZl6ylqQCAkYS5AO0r2iUNJHk24Dn4/8qNZw7uLy4oAscHGp923e39yTbeUyEnmAIy+8+ezRBsMSKxi5PZATD6y2xRkhoRKpQycpwQcLScFqKMlDTloNGxzR4IunLApiygZKBjbs7tMzvNn9vt2V2ZETPryBA5JCIiRc/PgjABxGsLCQE3JIE9kBPBO5Z0HmfWl7nLxS/Rbo0YYXHt1qFuEa2QlRfdZy0+BdtHLjljqeUEtEqL1H3AaPeo61c0PkuIkmpUTW48g3wJMQRnP2UmjtvF9DHwCcz3UCrDOKBtdeTkaIdMhpyAjaPtjAEwGWSu8AAPvUD//6jj7vQR5JISdFUKkmcLsf/riBlz9v64gJ3rXJAkj3Md3TPAXPuSFdP/6rKZsfS/8DwFF96rmx9Ln0zgWQnYDRaB36XUIeHaFm/huOQNAJ7v764UpOb6GY+3CEBACwrb1bYEVz9rlDG3VCizU7lifiYSV4nBLWmJrBo8Ow4IgIAL73TZKRIixgedH20Fx3iVChkaPVDbeDHcw4jQIG5zTmbJoapznneB6BEIDbADgmVnrWYVq7MUcAaA2JQJA+erUSJbSkBPy/xeZbMw6QjVta90v7qNsfro70wJHjuUhyVIR5XBaXSdHsPJAiK9zBXajNcxISgjGJCW1QE26kmNIAIbXzy7vjECMpOgIAT0iQUBUdIdPNQkD45d3dPtTv8/evn0gISxkmrAQEa5naFw4w9UsL2BtUBv/m6kjtSAtqCjVGndKC1eoU58pFsU6j7rNFH84Zr9UPywLQjVtqcSuNeQ+BSNuupg7A8XUCcbzF/NOCFJOjRv+szj7U9+6Y9Wvb1g7hNTnHPTjFyABWnFIfROnaO+e9lozQu4976xbqxM/m5agoBi3vwSmkdji1djaw6UpIqIU2ZDzGtx9/g3u43xvPciJ/Akc0wGT/FpEVyLYLe6v9tSTDX0PgfrL2gSuFxQ5kuoaclMDJTKAM55b9Zkl2flyzH96hFAWAei5L0QMsEUPW8sxHQSIheByOUX03tLNz4uxgSc2SQ5M6pBYa2aPNa6t+vjW2v0gbF2ePlYgWlM0Q0HmuboL3q3YAOiJCiZTAER40ds8SWtgcS7bZWp04O7IS+MPXA2ijKGjKUfctKkIDJbu0Vu3h34KnaAk1kQjyFHj4OAWJYIBT6HHQnudSLUTbjjewmYSEFpikhHFgJSMAyIQEgKcoCVZCAhUhwZrH9/n7p7HFXRvLypIMOyVndDSs7MFOLxcVoh3q2r6gFiHUce8CTbvI0ehYWkAZjFNm/ayIkC9dT+laqX7DhAmubGNjq6sdDXmjRLqJINbU9o3m2dRCerYzeBd45/RlPoXZP+uMWCBhjdczGuHB2uZI939iYkncv4hfXC0ZBYHDtx9/O/i9RGpFDlLEhVLkQ0ywaIEIAoZISKAgEcUTSmtXzbpWQ65n9ugp57eUU54D56SiCAMahxZOhaCBJ2WKVo+JMdHTWbuUY3g0h3QrWFJqLNEnUpuWuW3tiCQulfqTOmbuY8o+RyHKIe05V1q2Wm2V2KmcvkinIidQDug8QkJqA+uqSduQykf6BVr6FaJll+yoLSG1ydmoo+zTaKxdfMp8VCv5Hix+EolYovGVMdec70fyvYvkr+PO1UQ8kMCRD3rhiJAwDVJlaPqoFynB43CPgjdigRfeKAnePiqlbbh6dkgm0JILqJy8GLev/wlv7n4PH9+/ZXMHaw0tWP5RPW6ybv2yi35xTUxMTKwMa11vtXTyj+ZojkYtu/gU+ucUr3NEQsKIOlnbbaGfReaMjrB8Gz3bwe1pyQkXH28O6nkRaT94++IT9hwmIwAc77O9BIXa1Dea/W3JsIejN7QgJ1RdY4mMoCEFSFjBHrsmhHttegGNXA7WiAprczCO6LiOcB6fi1N+Ig49n11vJAVtFAar875Up1aGVp9h509M7NM4orVlqLY0oPQpfcgkyc7JB+lr9Zun/PR7Hwsl4/n28At3LhqC9kv95KDOoy/g3x70+ujRMj40Hy1a13UcaYTqw3Qsv//4N4A/DcMOF5++hvuf7o6PZZEH8L7k/uYe4PLRD5nK3d/cq1IfpLIH0H5oernbS+zkvvnsep96LUVk85AMuDKYfCD5Qa0+0qUJCDlmhIRGyI0RpxwtYUkyxLCI2vi/+grgxy/L5UaHxOC0vPyti4WoRaGnbQs4ZmGtDhE6axc/EX2jue4IVrJn7OWyJQOhdP84PfK6Vh0sGyCunHYRptEnh+aeacZXxLNgAbfwH9SYOzExMTExMTExcYhWJIQqPSxr2sJaN0/ZkHD1w0ZnyG4Ea1SEJRxNEWkJPO2sDZH9wn2lbNVn7X2aYw3XQ6Uz6QFthIOWiG57pGgMa4vE0KLfwq+9BfHPY4+SCAhem3xyQmeEBBGU7fanLZ3GgYrCkB+joixItuEW0QmsNlbJ3irZGTX1NeWpvuLs15p+42TgtqjyHGmHu4ecXZ0qz11jqe8BdH3MnNsTEODptweeaAdWUsId3DX7QCxK7iQkGBHxdcYpExQi4Y2GwMnKUZIrtX3xcAf3z57uIZfWIQeOiADg+6ri9tmVSFTQMK/2uDmeUDFe/vw01j/8UWAfapyaGC0WbmsH9bLOz3EvbKp+lD6cLMmRLC0YqPrS+OBk4bY95BPN4gaXpRZwWCfJUY+h2RxI96DmXnMLW+q3pAeWpSmv0Yu7P0vAYdRN82eKnIPnUC63+WhffVvQMupBy4gLa8Y5pKMAiPvSv+f1rlHnJdu0tttKx5GeiRlBoR84PUfTP7cj1O6VI/faCS3TPlgiL0jhUfNj0nkJR9EHd19KaXQ5ALWW16x9b45JCVfPNgfnPbj+bPsoRzJ239jJB5FY2pE2uiOZw5LpAnJ4nKFrcqCeCnCfR0aosHzNPxJ5gyJp9NRNG5ElooxUzhNtwYvIyA7VcwhnG3PYiY7klGzpNbJzWOTgL+K5FAro2P5LdGoN89P2MEJCOpYDExNS+XQM159Q4eW7LXx4s/th7cN03/B9yY/jyBfZ7wu42O858r/pXEK+L8l9eHgNza7pd9EKcqS6RaLy9E8tgklIKKClIWKSE/qhhdHF0i4VTeICLoqGG9JQ8vqfYvQEnKuGk5mX//j+raiHBh/+uDl2wr3fiAsWFTzsRA8s9ZUsuu6IbFvrlK+Rn+TUkgq4+tmiYj8ec+zqsmOV0pVAPu5L1/Hy52PnNNmexOKUjnPnNSzTUts1497CRrW0a9WjptzlUyof8h4imQekrmxscGQEjHN0svdg4/asu3YsSSQZCaMSBzgsmQ4hqs1o3UYgO4wme6QxizFiepORgPX12hSi9sclOWm/+9uzexVpoTbtgwWqcKqlFAsZNF9MleQlGVw5MkICRSRosCe9+8838Pqb28VJCVRIb2/Y81PCuV//hB3e0PxzrPkRkWpBOp/mRYrMs7Z5ktJVQ1RoHuWjxoZZe17bLkaHNcJB25JNEYAP669NxRDR/7Xo5atYAh7br2e8RrVTq4unrd25lGYihzfVAneuFPVglHOrjJCwNkNAK1gNCks52pfAWq+VIyOw5V+9Avjxy0N22Kuv4OLHH4tpMkxREiCOjFBCcsapnLGjI2oxoXE6nyMoh7mmnwhnsGqsLUUu0S6QHDrsCRJLPWu1m4OBngfclznJICEnYO2jIWTkhX257H5QpISlw2aNVHetmFEi/DgXcgPAuISBUfVaut1eOpxCRISeGJlQM1L9NXwAkRMW8LEREEWQENM3GHAUHeGHivW+Y829JBlBwijhyEf7anp0rPkaanVf87WvAZEpQqQICUvPORgSacRLQCnVL5EsoqIdlI5J56vvWa0Tv8a56pEb1QZHKMDHlnT8n8pHgT2gGYeaj9sssj0yoz7McxxPBAPOB1nyTXrq3cN9lYM/4lzvtoYhJEzQWIMR4Zxwf3P/NDnt/r+/2RlPLp/C0SRw0RHSObYdJIM7Z5Wb18/L5aknsHNNi+fvX8P9zT3psPMgd96VZC5Ncig6v/HLNmIxWisj8uv3hsB9q+5rDQx9RYXdD138l/oflHIYHPRbBBlGo2/CDRxfQ2n8WZjfJRKH9FvDHkdIfamal9DYSUSE6AWiV6ZG7sQjliQMnOv9myQFe5neGFnvEfprEhjGaSeivbWO5aiICgnRqRU1skYgKFDEBCqa4cF5It+sJeICAJDr0WKUhMYYlZQwAiyOrlY50kdwco+iRy+c2/Um9LxuT7qHlmSB2mgDNSkWznW8WdDs3nsctVFYm/N74vzQi0jAnKOiFeSIjlwgnfNEOxiBZNCvDgxm2VoZ8nAT1P/R2MCjU0NydJ80tI49bdm8Tq0zlnLCMSBDutwQ9xPLfPXV49+UsoFoQ8zbhBdLqK+wXmQeH0qG58URDcnBODEx0RclAgD1vHJlcDmq/A1TpiAnJ11hkgEV2eXlzzRZiyNwSaka1ha5YATn3how4r3TnF8aMz3EE0Z18o+qV+u2R4gc0aNfT6WNqPbWNGdQiIqmsAT5QCurV1oHCw7y2RL5aqlcuFxe2/zc9cP2kXAAAHBDREnYkRHefHZ9SHi4PE7naCZEwCQgnBNGd3SOmGKgNvS+Vz53fXnIfosO+Etyz3W16GetTOq6vXpJYyfyfvZ+3qLa7k1E8UCKyFAFre17dPJA6aOdkr2/J0bQwYqaj9dq/FPRMnv0fUUbJQLCCLiDu3KhM8OMkHAiOMUoCvdwz+ZiAWCc9wIOIhm0gIGM4JaZkxG08ilnH3H8iIiQ9VWTviMchx4DVdIrD6vOhVQHIPK/c1++K+CJBJH0k76uzs9JYeLz81G65k7V3JFai4vLC/jl3Z1L5t4Z7PmCHsMh4yj9gWdxnpXDkQooh/hB6P9oeFjc2kWvd3EslWm9AEZzABeRYz8O8mckvz+MntvLbTj7dWI5jJKbrbXcNeNciA0R5IBzIjUsTSoYZdwAnCbxwIu16EkhQvfoFBBrTK+YIi9EpWVI4OTh41K71LnP4TjV4vfwrSt6gxVf/OH7EDlLY3SH+1KY/XKM1n0SIb82BH+LOi0xmj4ltCartGg/OnKDRJyxpnHQopS6IQS1NirJcTwxsVbUEFlQndxPFRmhoEWdEaMTjG6HnoSEE8fayQrVjvBIZ5ZVltZxqY0k8OqrRzJC+gtMPcvXwgB8CopeuHwiI5Ta9rDfNMYxql0uNUBESgouBUGJeKBp25pqo7UslVOdeAZKqRlMYzWA8VlMFaHQodSXJGHDQJqQ5DYjOFSCJZwk1JAciDmYIphooh2IfUjoUJOaQXN+pHMT7TCjLbTBuZAWAMaNarAUQcAqb0lyRC+Mpk+OkXXjsEada+CxNbQgLtTIHCEdhBa3z67g+uF4fH0P3zZp683D9Z6I8N0/PgeA9RIT1ubI1GLJL9Jb67EmjH79o+t3LlhD1I4WkRO8BIYInVL9akR8HMXJpaKIWj/kaQXvB0NLRTVYYzQFCt7riIyEEChrDZEMME4hskFrEgN1XG3nmYSEeHiNXZa0D/i8ts3RCArYeLCYU9yCiBdcabLnIhvk57Q6cOHPl1i8NKp3wJzbjR1uHFlehEf1BcYerod1so7r/Mvs5+8Pn9tf3j2+GFPkB4AnUscv7+7g+fvX+zIYWJYGnCwLUaIWuC2ubc7p3kpHNlQ/EQUjkiyihSaVwAFqoz4IcqjoAwc6CZFDWoEjB2nAPf+nsHA9dYwUzWA0Yorm/CnilEgIJYxIUhhRp9Ha76FDr2scoS+1qNV1TdcahRp7wyhRFj55uIDfnt3v/x8BiSCAoyS0ICMkrJV8IIELS782h23vkOlr6ps1Y6n7eg732HO9nCPbmw5jCdSQD6x1o9NbaHWR9AlBjd2shFNxoGsQTbSIJEd4nO+1EWKXTpUQjFakA2s0A2uUg3QM23GXjGKwZmhICjNlw+CwDEwLmSFhNHJCjiGJCSMuOLgoDJ4XppYRZ32p1l5vi/5iGHt4vOHoEQn7cgRB4f7m/uA4OY49/borcwH1RAst8HUDlA2FVB1VW5ncRKrASMQIiqCRH8tJGVpyRl5mCeJAL0j9MUrbuFx+L2uQxhj1PKbjlvGOz+UL2LU4n9dwruWX/hNtMGrkhjWMhzU45jGWTocwWpsjtZ9j5FQNI/XTRFu0tj/0IjRw7fQgL/QiJNw+uwp3JI3u9PQ4r1o533pirXpPHOMcSQYAEBuKP8OS/aedN0vpCSwRC2rOafXz3qdSX0jXakZvR3DLKAQ1kZ5r5KwFPckGrQgMkWQKxXGtzTQyZULU8TV/PNYyekFvwsQkJARgA+OFwOagHUQjEBW0RIQUFjthcxN8P1q9dLULDs9CxBs+qvQCiwjXk8sCpzxPu6X6mT5HBIKWUR60C46a/kD9fwEXcA+7KBIOg10egSL9xn12tEDZkTRqDYRLfjVVJGIodYu6hnQPE/L76sHLd9uDiBv4nBaJNCARCPbEAMfCtfZ89DmOTQuwDkf5KHpMnD6WIhqsnaQQRVAY6TpHJjC0bHeN9+AU2skjEUaBk2f5OGCk8ZBjxDQlI9gmlgBHbkiRGxIuHu72pIQURYHC5/DWRV44xSgJkcidXa2cohy49mochlFO7KWd4Uu3f4roOba18BCdIglSHoe/pcySaHW/cWSaSLkc3O2M4oD32s8pe3JrYsGpEhesGCk6gtLfdPAR5opIBpJNdo04JeIBh0lI6Iw1kRcodPnawBARYbVkhBawOq41sqxla5iXVLoKjw7cbwzKaR8B6h54ZOO+sLaPZZQWQsCUMbTPOcQ1jnIXMWJgckJeLqGWMIDBhZmywOucr2nzlHAqC96J9WEtUSjONbrFKUVyGJUQMTqpYZT2e2FNkREiUjAA0ET//Jx134/DWCYZPeeKNY7XnKywhr1BK7SOzNCDlDC6c+4UcW5f00dgLdE+Tg3R/R1xH1umJyi10ws5aQDPFdRfq0wXNB/2lc6l89p2lkarKMRR0ROsZfKypwDNR5cSoqM0MB8qtiYS9EYPe+wS5IClUXsNajvNJCTYsHZSAQVpUHEDqdWXComQsL3cwuZms/9LISckaMgIqXw1caFHygJvSH9cLmKhAgZ5keGdpD7g/tagJ0MxQq40zpa4FgtOZeGpwAgLNQ1qCQitohb0BKXHHdydrNN0YuKUMGqaiDVgrV9zjx5BoaV+ra+9Z9+OOLYkROnLGXAAnggN0ZEdzhkjrDNbQiIkpIgKXtLCjJAgo0WOdOwAbAmL/lGO0NEd+adENogenwC0Q9maUqBUNpIs0/N+cnpHRgSgiBS9iTL42szw2NOjnfIlaNpbOtqAt09GscdG9F2riMYem7qXsKFsqxTBwGJzjfxYbilEfYSzxggDmvZHI0fgNiYhoTNOwajQkqCQGE45aeCIlHC5M9QQxIISSUEiOHRFj8WU9WWofeEutehqnQKhZjEXRYrQtl17niqn7Zt88XpD/ObaLxAoTs1QGBVhYBRnfQsskVqhdDxn2S7h4PQsEKO/eh9Bv1OUN0pbS5yTsPTmrQUiSAyj9Mtar2Vp0sAI928Jw0JrzHlmIgLnmgJCQomsMEkJbdHCiVibp710PiLUfZROS0DjgO9NbJDSB0RglGgaayIoSO0t3Y8Y1jQTpnHltZNKUXVrbcNWHbQ2zjUg2n5di9pIF9L1tLDXNwBOe6xB7xQJp0BioDC6I19CLRFhSV02ALCdG/RYRIWCjMbS9zkRAQ5YXShFwwGhADYAN/GpGcIiJVCwfrmfRyCgHLvaOku9WD2Ob099S73W0RI8ZWv7yaNXC7SMFLFDS+d7C5KAhTBw7gQECZEkA+lci7Beozuuo53ISy+6J04frUgRo8kdBWuMArE04WDJdi2yR7x3S6KmP9bal6OMxbVAIiuc4ho9vyaJlHD77Goox1lPjOYIP3dYHKa1KMkaeWzgSBua9AKjOcgjEXVtS8nplQ6itm3ymdA4i1tDQ2ZY2taaMLJN2Nt3o/TtgvAQDqJwqkQCCtH7ktqoCr32ShZ9EpaMxLeF7YyQ4MEIUQ5OZfMvpWNIKRtUcoRJotmLr+VLt7dT3SszInKCNmSRlYQQoY/l+mpIB57rpRBN+kgyNUzfvJ805fJ2UBs9jH1ao+IpGh9PDTPVQjtEExYiQ5+NTOgYuc5I59boCG+J2v5YU3+OTCgYqZ8m1onIMbTG8bhGnUs4l6gKJVJCguYr7FEcm62drCM7pc8RS33Ff8rOfAuW7gdPeoj8/57P81rGS2hEFImccGqwRkuI+IBNU65HtGaLPjV1NecifAvoHCYXRH5AFXW8dM6LZGc9JUTYO5ckI2BIRIT8+FOkglg9NX2xgc0kJPTACA/rGowCEjnBUy6VDUvTEBXqx+vEj2ByatuOYj56+qoHYzUqwoI1OoI3zJhn4Wm5FxqCgyXaR0k3pl1LDixLmd4o6SQtJidolCJS3MN9N4dtqczITvQe7fe6/hGiRUysB71JGLXn1zAeRyYVlGDRfWIZRIyZiKiFI+jRWt4SWPIaIts+B6ICJinkxASMNw/XB797p3pY2hnaApPwMC56RWKIlDE6UaNV+hIL2YBLtxGtm0YfKdVDHgFD09ZaImK8/ngb65z3oGS3PRdShRcRKRh6yc6OtSQacOd6kBZKWJsdOq3he+wlckf+Gu0COeEAkxJa91/JVjwJCU70HIhrNzhIsD4AiViwvdw9TLsXRx5RYU8+2L1YwggJtYhiBdY47FsvnHqkL6ghDESyQTXRIrgypUUtJghwx7XnS/CSHizn8vPUtWaLwP2CaFe2ZrHVOhICTt9QA08aiHNDi5QLExMA45IlRia4jHbuFNGKOGWR0QsR19MCSxMvljAWjNCGd69NGVysiOiTtZAQRpoDWmCJ61uCpJD2Di33EJiYgMkG2Ln13T8+705IaN32JAesFyM6XntCG5ofALpGCohyplv17UmSiE4jAnCckqOFXh4ih0cHF24A3nx2Dbc/HBPk3nx2/UicK9nPKTBlubbYel677Oiotc8viCVTJvSElqzAfdAVgZEc973JCyNESVjL3m4SEjqix0O5pOGlNzDJIEVIOCIfRDjJo6IjeNquqWeV3Wsx0StkU/T1REZ88LQNgbJqWKk1sktlS89adl5ikgLA3jDXEnkbUQbAmrBbNedb1K1hFWPygXeB1+or5TU6kEdsI7pPOKxxnTNxGmgZKWEt5I21kieW7sOl249A72tYy5cslH5reJYnYvAaXsMd3A0XYcFLaHj74pMG2sRg1K+ALZhEiPVj6TFY67xOMpa+jgTKWU79XhLWqBWe8gna+pa5xBMpwjNXaVIAUXjzkBEPMhvhmweGPCB9LFYLLKe1DbrHx2SVKJE43nx2zZ6T8NuzdX3NvwSwPbXWpjbyfmpifLD72y1st+c0uFp9WdAa0whBY4jIByPCmhqAqtdCF+v5GtKFJ8xWVHsWeZpyFtlcpAZQ6lKDCCKDoc9aRxGodf5by50bZrSDiYSlSA9rI3tM1GGmbYhHBIlgCYf1khEPNGjZ9qgRESZicA59v6ZrrNF1VNKCBj0JCks4SSdB4PSwtPO6FSgiQq3TuPUzx8kv6d1Tp5KO2JkfHSUBy/VEwLCQIEp6RNTtPq9GfHBYYcs+cNjvyuZO+nQOO+6lqBA4bVIvSG2X9Lp9dtU8LUK0vOj2a4GJB6fs49V8oDZSNIQoXZZuL1ruBjbnR0g4BVgGQS+D1tKGARcxoUc0AIol2atd6wKrZ6il6MgN3ggW1rQQkQtWKwkh4v70kImPaRfpu/8vLi/g/oZgvRJpHo4Whjf3dH0HecGy8IwgJpwyaWESD9aDKOe510lpkdWDGDBRh9mv46F1CoheGJlUMEIfnRrpoKatEe5HTyx1vSP0c27kWlqXSOTXE0lOoML3lvYipTIzUkIcJunhNME5sVuNzQjHc0l26ZzWWU458UvQtB8FbwSDljpGpdnA6XYStKlvLJEpPOk2coc25eBe0hlv0UOrZ42Dfwn89uwePnm4gN+e3Q9NJNDWaR1ltzVa2NNq19Yj+Z1rr2M0IkJv0kOt3Kf9GpzQbm1ChVPaoJfQNYKC1fmfgJysxbBRnKOcO+dF66/qWzn9o7BUegYtuULbfy1Se2hkWfQ3RLBIi8c96UBBNjhlZ/8omKSD5dHaQd9ajoRTcy6UsLaIDiO3s8S5NaNlxAfN+WhM4sJEDUa/R6PrNyEj4v6NGD3hHu4XiVigbVNyEk4SwOljTaSUSOCxHfFlu9Wh7kkbwUUcqIFHb6k8JlNoHe4UicBzfRLphGtbcmjnJITv/vE5SUqQiCNJ9u2zK5LokMuj0k9w2KdoUFwDRksnPidb0+aI5IKEc02N0OLDNA809tVWRAPL+nRpokHLfVArx7+mraj2WpFLQmy8M0LCaWEaJXTYExV6RwVIwA7j/JiWCKBx/Dqub3u5fewfi8NbixoHdSSkvvO2bZUVFa2Aux/59eF7JJFaLKghTnDnjPIOIiJgwoIzrYOWNetZlK6VHEHpXcpJVjo3UYclndMep/C5Y00kg2hCAAfveOk1/pYgMrSqOwrWeA0jkxpGwNquO1LftV37kph9tRyWIi1ooyWMGLmgh06T/HC+sI4ti9OWa0eqW4raUKrbMhoB9+W9dLwmWoAlAoKnDBc9ATvrcyIA5cjX6FhChENf41DHBAfuHKVzIiEs4bRfO6EgQSIW1Ngue57THo+IbBBpqy2RG9bwUVfth0rW9X8v/3Rk5L1eEQvWQlDQyNvs7vTcGU4UUfOwtm4jChvYjPFlPgXOcbsUNP3U+cv87eXj+BnmPlrSSLSIUFAjuwUhxKJXRSqNi8vDCArp9wioXfBHQRNRYun5+FTR4yvy0Y6fGkaLRHEu/X6qaElAOAWy2IgEhiiCQu8PArYQF8q+Rs5axh6HNeq/lM5r7KtzQmuiQm2khCWJCtaw8RPrQI3j3QuNQ7OVbOzQ1rSPQ+MDyOkA8q/hNdeqceRTaDEXtJ5jNJEVAOCIoFBLpkhkhpIcL8EgCmtw5ifUpFqoSePAnTvX6AVrQDTJIML533M93nN/2zoKxPx4vy0mIWHiCGs3HESye7qmfOBQ4Zwlz60FBof49nJ7TETQOtUbRETYR5nI9AMAOfJEJmMLWZQKKxIJIv2vRa9oIZERPQrlvWQES5gu7flSmfwcRz6oYQtz5/IFc63zaomvia26rOnL8lM05Ef0wSRQxGFE8sqS5JzRzmnOrxlru/bcKIG/AqCORetukVmaOymdI9qNwCmSHUbVqwandE2ndC2RiCIsrD0X88REgsV5+sUfvt87hiVCAPVFfP6bq8t9LU+Vx7qUQvLjY9yX6xQ4hywA7WynCBCp7CioiYhgaUOCNlJAabxRBBgPKWCpFAjR6EGI+O3ZPXzycOEmEdTaIb3RCjTnI+FpqyaiArU28fQF9THXqdilIp37uPzExCQkTDTBiJNpFJqQFCRyQQHYuDgSuJdtyemcHPj7OjebPelg76wH2DvvObS4VwfkguzYXsfd31zv1jodwBshQVMvguRh1a+gR046sCxiRzWO1ZALqHORTr+JJ7T+6t0qx6PnyFiCoGDVZa1YUzSOEeqs6dzoiCIg9P7KYzSdatuniAkTftS+p0fE6Ncwun7nBCtpAadxGCUKwtL49uNvxTKj7l3XglYpBU4RXFqB/Jq/+8fnYQQCKkpFy/vF/U+VrWnHUqeEWsd5FBEhGol8UCIbLK2rlkzQ2h65xtSvEqiUCyk9bktQba4hfQJAO5JAXm9iogcmIWFCxAibfWw4a61T7WROOZyxU1oqS9U9KEc5dAERE26yuif0QjkgI+THswgJXF9zOIhaYPhCH5MPsMySHtpIHJz8A0REN7AQA6j+CoywcEAyuLlnz+3LdGTuUm22YCVb6kRGOZjog9aRF07pXo9EThgZo0U78PTtKd2PVvA69WvJAGu4Nxodo64DRxg4pbX2RB/0GqsT7TDvEY8SUQEb/u9frCmM40zjMKFDpFNdcqJbnOARRArL+LekaCil1IjC0kQoDIoQIaGFc75F9AELuDQHUrSEUpSOEolAssONAKuNcCR4+zCRESKvUSIaRDn3R7THtSYuUO1NTFgwCQkT3TGas2xOwMHIyBAJOVkARznQEghweZHMUXCOH5E8tDLQMZWcWjgd/R7dqMgOe4KLIuoBmTpDwMXlxRPhgJCfzl9cxi9MS7iDu70xLf2fFrP5/xJwuQ1sjq5BI6eVg+ncsNSX4Wt0kkdFEWjZfyOg1TiI/vr/nNAzOoJVh3PE0kSIuTafOAXM+aQe0lwQMf/v97dB66fouqO9lzSEBaoMjrDw7cff4O2LT/YRBvB5DByJINVN9XJ5udxTxijOt4n1w5rSokRGsIIjGngJCEsQFzgygjZlgxWJiNAyAgFOWdDKrqeV28OueO7zag+7rTZVwinZTqJJBnOfPLEkJiFhIgQjTuS9J9dkhMh/U9DqNcPrgClaQQ7sFO9CHNBASs2RnP6tkEcyyH9TekSiIJOKeMABkwRGxggkgqUcQdEOvNaEAe74uTiFT51cQeEcrxlgufEfRTQZuW97o8U7ZmnyQARObh08MYGw9DPmRY9nUzO3eQgD0Wh9D0eYi2tQIiucu6NnwoZIx1hrR+YnD4eykyO3BG25NeGLP3wvnteSBWqiSVhltwAmKCyRukCbrqAVrGkQLM/ofJ/Q6PUhGHW/cqLB2tczFEp2kbmXnTgXTELCxNnB8iVBr/ZP7aXjcmISaQ5Yg3v+Bf/u/5xwwBEQqONFOZBFd6DaoFJoFCIJkMdBqKeVQ8BExrCkrpAiSGTnrCk0RoDk6FkT8mto6aSylm9JIii1v4TjtTdaOYtHuDYKLZ3sI99nDi1JFT2e0TWjJeG0BkuREGrrTkxM1KMXsbQnes0PS9sMJIx8f3ogkRaiHMRLhcFeS/htLbh84Pn/p+QAHJnskAgKtc7kJe7XkoSBNaRjuXvxBl5/vN2TE/LICS2iKAAcjqP8WR5x/lpyPl8ao90P60dkUfaYlh+faOFdG0pkjEhdJzFiYmlMQsLExMSwMDlBEUkBgHHGX+6iWVBkgtSu1okflE4hKoKDRKA4QItICIw+CRFOjUinOVUf4DjSSY6SDho9RjfynjJGc76OOhZafv2uvWb8PFLyJ9YPfH/z++p1orVCy2d1yS+HI6B5rrXv+ImJiVj0/Bpfs17HdXugtC5fEiOuA9eMUnSFU0JLp9uayQM9HXKjOmS1oAgkGL1Cr+ftcClUNEgkBA+xYJR0D1Rd6nosxIOUmmEpUF/Bz7QJflj7rqYvMKkMkwzW9CFLD0Rdu6Zfl17DTkzUYBISJiYmJpaGEJVAitqAy5UgEjUSvNERsuNriYqw1EI5ynljPd6aXeypE932yKh13Lfsj9GiglDODeq8FbXRIJYeky3JMEtcM76/S22wMSFiJEdagomg6ZhXS+e8daehZGJiHaiNpLDE2mzOL7HroVOA5rpGJS3MKA08anXs6ZiMzmHfy3Hbsg2PfC0BIUePFApW1BIaciLCm4drMgKChmwgkRcsERai0jcsPe+U2udSCawVmr5O6XFHT40rocbG0dOek6MlmWOS/idGxiQkTExMTExMKHCKhruJMloRCZaGhmFdG3VkBKe3F6M781uh9ro5ApSGMLUEKEKERheNzlojR2/yRSvCAodpBJmYmJiYmJiYWAfwF9EcvMQKjzPa4wyOTv3Qi/CQt5MTEnKCgoZAUJu+gasfTUroRU5YM6GgB6L2f61I6tS+mou0ODLWpu/ERCtMQsLExMTExMTExJmC2sxZHKlLOtZrIh4srTuHKELA2lATQWVu6CcmJiYmJiYmJiYmzgk1hIMED3EhkRJGiK4RVYarNzKioq4umUIr4uOEFhEwe8DyAcfExKnh/wPUyOyX4R4tXQAAAABJRU5ErkJggg==;rotation=27;" vertex="1" parent="1">
          <mxGeometry x="470" y="360" width="210" height="50" as="geometry" />
        </mxCell>
        <mxCell id="aRtZCB0VEWsyx-XmZyuC-1" value="" style="shape=cube;whiteSpace=wrap;html=1;boundedLbl=1;backgroundOutline=1;darkOpacity=0.05;darkOpacity2=0.1;rotation=0;size=70;labelBackgroundColor=none;strokeWidth=1;gradientColor=none;fillStyle=hatch;labelBorderColor=none;" vertex="1" parent="1">
          <mxGeometry x="476.17" y="310" width="87.67" height="110" as="geometry" />
        </mxCell>
        <mxCell id="aRtZCB0VEWsyx-XmZyuC-3" value="" style="shape=image;verticalLabelPosition=bottom;labelBackgroundColor=default;verticalAlign=top;aspect=fixed;imageAspect=0;image=data:image/png,iVBORw0KGgoAAAANSUhEUgAAAJsAAADTCAYAAACWamGNAAAACXBIWXMAABcSAAAXEgFnn9JSAAAgAElEQVR4Xuy92ZNk2XnY9/vOuUvutfU63Z3ds/VgABCUDG2kTZmGTTNEkVZIshzgi18cEoOSIhR+0J+gCIUexAhJdDjkN78QLwz7wREWHWaZomkChLgAIIDRcIBZumZ6me7qzsrKvHm3cz4/fDcrqxsLCXDDzORXcSMzb957crm/+vZzUn72Z39W+f7kf/qlX/qlfwx8v+dv5SMm7vyDpmkoy/K7bnVdrw//h5/97Gd/EZBzQ2xlK99RkvMPYowcHR0RQji/+1tkMBgwnU4bEfn5z372s3zuc5/7R2w13Fb+EFlrtjfn83md5znT6RTv/VMHPStFUXDnzp0UWAO31XBb+UNlDdvDX/3VX31vNpvxDHB6bjsvWhSFboHbyvciZz5bWZbh8PCQZ4Bbw/MsRAJbDbeV703OBwhSVRXfBbhnZQvcVr4nOQ+bAnwH4M4ddiZnprUoCu68uwVuK99dnkp9rOU7Auex7dtIEQvuLO6kirZb4Lby7eQpM3ru/rcHLvHnj3oapB4UOwVHB0fJFritfDv5tpptLR1wegbctSk+85ACHiVho+kGwC4ULxd65I8SlS1wW3lavsVne1ae0nBZzvTqFH/gYYxtg+7AHaCHch2KiwVH/9lRom4L3FY28l01WyebKPVkRp7mTHen+IkXJmxg6wEVgiDkUFwqOPr0FritbOQ7+mwAOA+TfWVyQJX2Ofyt32ZWnJCTMx3exO8NYBcYdVsFRJQ+0EKx1wG3Nalb4VvN6NNb3lde/mF4+VPKrY9pdemmHt7/us5YkGvGNF7DX/TKTZSL3TkB2EdpURq02Cv06IeO/Ba4rTxrRuWpLe8LL/+wbbdeFW7clmq4I4f9N5i5hrz2TOdT8c95YYQwRGi724hQ2+Nit5CjF7ca7qMuG9jWpnAX2M1h9wLsX4YL15WX/gK8+El44eOwe5VqMObwatSZNOR1zvR4ihcPPYEWZQi0QASigINiVOjRC1sf7qMsG9iuANeAW8ALE7j1Kjz3AiROeOmT8MIPwYs/BPvXoLdPNdmXw/2GmZ+RFznTr0zxPrMgYQCssLRIdPYqihRpwdGPboH7qMoGtueAqzwN24Wr8PZ/tOfTDPI+pH2IHqqKyimHB4fMkhn5Mmd6dA1fdIm3EotQnWk2BAsa9guOPrMF7qMo5zWbcAOD7cYEbn0Mrt6E+WMlhg62AWRjcDlUTomRKq04HB8yizPyOmP6+1P8wkMB5OdeQVA8UENxpeDox7fAfdRkA9tFTLtdBy6NzIReuQk+kQ1sPUh3TLuVudAE8FC1FYfNrzOLJ2ZSf22KP/WQYaY0AAGhj6VHFIqrBUc/sgXuoyRPpz7WTeJVd5v34cbLcL5NXFLIM2AETThLlFSDwKH8e2ZuRj7Pmd6b4isPTqHBAoZRd9tJsVNw9Je2wH1UZAObdI9aIHjwHXlpBu99ExYzaCpIFPIAhVNmCwPJAWOoKDjcPdSZm5G3OdPfmOKLxDRbhpXDVpiJbWwrxoV2Gi5sgftwywa2lDMnHjxkObQ1zJ/AG1+BJ4+gKiGtISvhtBSO51B3o4yAVqnySg7dIbO203C/cw1fe+gjZ6Cdsq42QIUUFwuObh95lS1wH2Y5r9mEiMGWetNoqwW8+TXbZg+hLiEpQE7hdAYnnWbzQNrC0kasQsXh6pBZOiMvMqavTfG5h8cYnGvYHKb1KigmHXBbDfehlQ1s63sV4D0kOSCm3colhBaiQiwgrKA3VHzPzvHA3IIFQGmhSioOLx4y07kFDb89xT/yNn6BpUYqoEYRG6O4WXD08pFXvwXuwyjfClsDeAdJYqZ05wIMxpD1DMK2gbqBvYvCeM/Oc8BDhSEWdQYghUorDuPnmcmMfJEzPe2ChhbbCmCFkGIzWBMopODoR7ca7sMo582oaZjYbQCjXXj5h+HWq7B30YArBRoPV2/BlSuWSxPgPlbqarAIVYAAVbrkkENmOrNukcddaUsws1uh9DCfcQ487hK/HztyWw334ZLzms0u5maPJXFf/CFlehuOH8DxPSgrmC2hWCqo+Vzm6EMfACXDoHsAEKhixWF9qLOqi1LfmlqlYX2ux3Jy2j1eQtEvOPovtib1wyRPm1HFLvz6kjoHuwdmLt99A+69DfUKTudw/y1hcWKQBTYLOfjOLDbAQyBEEEflKzlcdBpulTP92hSvfhOYJJiWzDB/TjoN99e2JvXDIudhUyJKgiJdqratlRgUjco3fl95701FV0oxt8f37yqr7rw9lLI7P8f62R6h1E7xThmi1V6lh/5QZzIjL3OmR1O8eKVG8SiTbpwKa8Cs0WK30KO/euQcsgXuAy4b2E4RHnTbzAsghCA0NagKMdg+nws6sovdIlQIklo7eIGQAWOEFKHXPe8QHHCAVFRymHQarsyZvjsVf9db/5tHuILQICRAY/eLg0KuP2r9FrgPtpyHDd4H3gNOLIeBAG0jOAcHV6zHLRlCcgkuXRcGu2Z6k9wiyxpIsBajPnABaBREDcw+UHZ5uLwr3lc50y9N8asuSp3YS2P1BrttIZYVf3GWboH7AMsGtjnKMXAPOO1gc16JqvgEnv+4RaDJBNIryss/rFy8blFkmlokGVEUq7H2scK+RtBoplKABVBB1a84nB/qLHYa7gtT/BNvfluCtZev0yo1LELN1SbVTzx2zm+B+0DK+dhTUG+aZL1XVdAAvQFcntq+OocnCC98Eq5cs9xawrrMJZwAx1jgcAAM1CLdLo9GhaU8gEoqOQyHOmu7PNzvTPFzD4PO7ArrRDGVRrw42W8c//l85LfAffBkA9sQ2PGwB4y7Lg+NEKOQ5vb4+B6UDdx/BP2B0O9bg6S0Xe+ahxnCfcwsKzbVzzkDaB2xlt02gKpXyeHyXAPmr09t5n3ane+B1IJcUHLxXG1TfnKxszWpHzDZwDZAOXBwGRh3Wd0QQERJUlgt4f4dKAp4/ARUlcwZFLHufC0HpyiPMNgKDGInNr6w0YIFVrzP0WpQcbh7aC3mi5zpf+jSIi2GUAqpOAIwkJSgypUm5aVj9Shb4D4gsoGtwWa1T8ASZ0Dsbtf3V0tYLq1bF2A0tiRsUdm5kacTtStM8yXOIGuw2wwLJnaxd7ALVd0BpzPy05zpF6fi5/6smuHFEVXpu4RWbede46jvHXvYAvdBkA1sjxE0GgTzLhRUNb+tbaxUNd6zgvy1F0FE6I82JjEF2ggjhH3MHJ9jlQZhvfbzAINxnd7oAcuuluo7DXeaM/29rtLQcAaYAAHFiRBRdmvh9NH7Tr3GLXA/2LKB7RQoIpxgsMVgPpj3SttAfwAXn7PWo+c/Dj5RstzgLDGwygg7KJeAS5hWUiA4KNCz3rcxm/kJipW3ukpE1as47HfAFTnTL07xS486+weoNdIQEYRGlaHPqJYrjn7saAvcD7hsYCs7X+sR0AZoGkgzJckMvN7QItLdi3D7L9iVd53qqoF5YumTHWAfmxp41iCZK0X3eICZ6iEb0NZ10QTr+G0qPTzoKg0L03CaOQT0NNaUscUjlLFFJdISKW4UevRfHTlNtsD9oMr5AEGYe0tLjIL1sflESDLBeRCxlqO9y5APhLYV6rn5ZB5LBC+8VRJazKzW2OWuciF0F36EQdUDIjaTnu7xujYqSDU4p+GWOcXBiEpUlrGmUoO80pZjSqK39EpxteDov95quB9U2cA2Rmm6h70CZo8gSSHLlCQxk5r14OCy7deoLGcGTgpUYluLWs4NM68KVJklfD0G2zqlUQFDFMVAW7caeXtcZZsotU0cv7W7Yi4ttQYaIquk5SErQmdiUSieKzj6q1sN94MoG9gOgJ5TRig8Vu68oXivpDmkuZLlymCk7F9RkkQJAWYnVoTvYQX4FmWFefARK9IHlDpRolhloI/SdPsLlJx1t66Nk3YbWFokr/QwP9RmueQ0UV7fRwoJutRaT/uNPvIrjajB3DUQFJcLPfrxI8GzBe4HSDawJQgXonABYT4X7r5phXgQnDNzmmRi0WlrtwXCEiFDOAhCHoQSK8JXWDtmi+BUwNt+xRacWWHHVljhvTx3vEcoABAEqZ5U8t5Xfg9/WlKlwhv7Io+opRy2NqZ1/tp7BSEgxaVC7v/YIyHZAveDIhvYUpRL0ZK6dW05NYC2MTOXZrYBxNai1FKhNCeLgwx6ChVmLlvMHDYACr7bv55/0GJmtEZpuv2x219iUXGJ5eoWMF8V5F98EzldUabwhfGK2AUXSXCb19NurBZW+ysefubEIVvgfhDkPGzChQAXnQUDeQ8QKIvNjPg1bNYQKTQtNCOoPeyNzOeqEQQDpwdnfmDSXeQZBlDEQFxDt+zul90xD7GifVdnXVQ1i3LF8Itvq5yWLBIF3cP3PBkdbIKlYGY2TlwGVldK7mR3tsD9AMgGNkFxEbyDyQ5Mb4P3UK6gWWdjz4n3kARIx7DyoLsWRDgMpHXnBw7UQRINiDkGRGZP4TBPq8XgqzBYTjHYHto4TRtZxoa0UUZffJtkUaGaMM2m9NKUM9HuvBXEWSBoTXG94M7NO27rw/35yga2gCDR9oz3LYHrnJnMYgFtY9tavFcI4HZh6UHXM7BQKgymCYAYABLNXIZuSzHNV2LBwHq/YsBpt3Ulr6BKqYFEhEEL1750j6ZckpMzvHxJ/KnfnDMDngCNEtVcg+J6wZ2/dMfhtsD9eckGtoh99Q4Y7UN/BD4xk1qcmHY7r+GcF9oIcQ8KB9qztUEccla+GmPnAwhnU/xQzL8aAIvO7Eq3n+65PpsqQw7qlFYjCY6e8wwb4cGjLzOrZrg0Zfr5rrQFphUfAU6QKOuVzCmuFtx5/r4jcVvg/hzkadjO7mRw8tge5gOoOlP6rDmtgDrtIGk5a0WqMWBSOlOpm/F3u9uIATXrjvHdbY5VIA6w+uqBHe5yIRF7u4IgCov9gsOHhyxO59ae9O+mttRDAObgdj2JZmaeT4AaClly57+86UiyLXB/xrKBDaBJoEpAvC238O43wAlEhaai67o1vy4GxeXgEsgj6MKiUUGJGHARWKqdb56Zlany7jkBVlhn75hNQvcStoTXuLsFcMJIMmStKYHiYkPVr/idL/6GzpiRP8mZ/krXDzcHRkKqffPh1j5gDBSXruqdn/mHjiTdAvdnKBvYEgy0uvPcFyfwxpcs8nQOQnvu1kMIQt6H3MEwQpxD1sB6ckuBaZS5QhSw7kd7nTVsEfMVE8y/SzDZxzRgr7sFiMrEWyCwtrblJMAIylXFoR4y63XAlVN86dFMSUJu4HUpFHyEOJbi+iusfvy/d162JvXPSjawpRhoVQ80mAZ74ytQFeaLgaU+YrBINAQY9WEQYNSaZvOFaaYMg20FnERoxcYH03hdBoUVG1M7ws5tu+ddd7+7/LFShs4GiaqoQBQ1IFtsTsOLh8z63URoP8UtQDSx9yKsy2MgfQUIl1/gP6n2XcIWuD8LOa/ZlNpDlYFroTewKPTuO0p/1B2dYHpFQKMy3oGhwE4AWvBi5jLHzFYDEEFbcFinbosFBmtTO8RKXH0bFsU0nHTHpEAOvnXk4iljC4AgTE5yqCG2NnTlKw5fPmTGjFxyrv36VXEnPO0X9oHMCrTSlFxpEn7idOISZAvcn7I87bNFB8GBUxhMYDiBe2+KJXixSyDOtF4IQm8MubdJLTggMzOasCnC9wFpjA6HAWQdH+bI9xAWGGCxG8Z150q3vw+pOrw4SrX2EY+wM8tgATEovhEI2Bq/6SGzlbUnTT7vbRKN6143A9KeoIo0K1B4rs34T+dD57fA/anKBrYWsf60tjNr3SLOD94F16UUQrD762VPJQdJO1M4AB1vHKqIaZJ9wFdPg5R2zztMo9o0QINvDd36fAf0IU88jQZWscWJlU/3HufwGCKKLMW0JlBRcfiWabhkIUzDFB/9puMkTRRAmpIycSjKxTrhVZsmuAXuT0nOazZrDXIKqYfhDtx6FZJUqVYgAjHakTGCiBITaIIBkk2gEoOnmxtKDxgk0KuNCI8BVWPnDDBNo93+iAUPbbfPcabdksSxii1ehFaVJkbSJrHkLcAKkvIccMuKw5NDnfsFuXRLPUQPvQxcgGZF+t6b3cmQCAwr1b982nfebYH705ANbAI03ffqPbY22wHsXhCKxQY21fWtLQjTVKaBkqHl4RKEU8yM5oBLIA2gnRltuudSzMTaMg0GmmLwre+vN0ASqDXSF9NwVQyENEJpb12DklRuE1QUUD2p+PzBbzObz8ib3BYk9D3QRqgLknt3SNX6DBJxBIlyJXg+c3vPqVPdAvcnKxvYPNB4tR/J8Ka5RJRrLyjLU7XvO0IMtl9QgipNsTFNzcIWiJl3WjIFqkRJxGbKCzYPYQVkWP+aYD10Gx/NeuEAQre/gSiqLVGHLqPWqCttKcYNCOpEiF41aZzNpBdgiXIK5bjUw//3UGd112L+m5fwy7nSrjS5f1d7rWnrRJyqoqk4ffnKUI8+fiTKFrg/STlvRiFtBd8AHsQL4oWrN+HodaGt4clDQK2XrVyBj4J7aGYxXQnNQniCzZhfXxpx6341OMH61EyzCTkWHKwnMJvLaC3kDsvBqR0fvYpDpNZAVJVZKGl7Cn17rdhgi9OsfcElwjGQINVpJYdvH9qy+ScJ0//9/xJ/eizcf096IdCq4hDpiydLvAyzTJoLJUf1kahugfuTkg1sEaHXgq8hiJlS7yEfCPfvQNPA4/dhvWpkuRS8QHJiptGdQqzhGFsVPKNz+BVWCiuEGebLrYEAq41aoGD7z/trEXutqlOe4jiJFSLCSlucAn1QB9QQpLO5rhtnCRIcKFRFxeHeIbP+gvzxgun/88vEaomLSttFuH2XSuodmRPSxFHEgqOjLXB/UnIeNmVYg6vtQtk0PtCozB5BW8HpE3AOEGhrJXWQLjun/MQuw+POBPYxCHvBzGaFBQ4NBhYYTAXWDeIxEDsHH4cRJrZPxNIdx6EkwYKEvE6gB9Ep1NBI3JwDUIOsuo/YQLVTcfjybzHrRfKTY8LVXUqJWBc75OLVORAVksTOK4qCo6MjELcF7o8pT2u2cQ1pDU1roKUZ+MRu2zUF2HMAXsGXpsGYbyoD65n1CiQNuGBgddorGYg9XgcKKwzC99hEpdAFHkALSeo4jQ3zUONE6LmErHKWZ8bGaImbMhlABXHWpWlqbJqgrDh85VhneCRL+L8nc+rOpVzGFu8cHmdjdKcWRYGb3ESdbIH7Y8gGNqUrEym0nZftE/CpcHDFjpnsg0bTbj4VCHZBHBBaO38XmxHfp9NgEfpqUeqeHet7DgmYJhtjM+VX2CLQzk5BMdi83U9Tx5NQYlgoE5fiWpveIOfN7zrtgj0ORW33Ax24SpWUcnjvCav5kpkP/NrOglIix2ElAjgRQtlpyU4aN+HxJ66hsjWp369sYAP76jyggaQuSOoSsly5MoVqBZM9K9CXK0CVegGts4sYZN0epOx24wC00Qr1fZQDIIU0c0jLWtuYDVt36K7NZ7BjEdvS1DOPNZnYwBOXI0EQEZwY9y7wtGYDQtVpZMUgrgGptbrzTd78rdfoLxpmPvAr4xMeaqkNkcpH2oozzQZQBqQZD+Ro/0hU2QL3fcgGNsHSBikgkcn9N5jcf8NM6MXr8O43zY9782vw5lfh7jfh4RsbKMrMoOt1jxvswrYKqVr2fgCMYBgTfOlMG61NZezury9wxOD1dpt5h0cYu4xUPCOXkpXOTHYGrGDYpvaanYj3xKaDzWGvV7dQLuDoLbIGPvZ7x/QXDU984OHFXO63K97uV0C+MefAqgmaDlRXvtT7j2dsgfve5WnN1mIX3is7977B5N3XAGyZ03ffsADhrdfgG1+GO18THr2JzVvAOkYUizpX2AQWm45n4+aduexDXnp8LXaJFlhSN8X62Go2l8539zNwUdj3PfouIeuaKNPaoXtK7CnUHWyJHQ/gvce57iMm2D9AG6EohKYiUyVrlVe/9JjeoqHNPL+eFbxOge91nS6dxFCS7iiSOJbtkgfzGmUbNHwvsoGt5kzTiAR27r/Bxft/gCMqqpZjW8zh8X24/y7cf1uZPwAfwAk0HWwFejYFb9WN3QIptt7HAPJlgjRir15g6330sEbJlo3fJpxpTq+Oi8mAviR4HK1G0sqjPUgzj5SQ4w3aLmgQ73GS2gNH9xkDrCoF8LGl1YjULc//7gOYr1g65cuHj8lr02wZGTk5qST4nYD0BUaRSlPKiz8NkmyB+yPKBrYF0KJ4yOOK/ftv6M3jb2rWVuATxacQGhCvoEp5CrFWsgA+hTax6kELxO62BhIUsB6gAqUPg9MEF1BsOXxQrC1pCITu+AYz7R18iYju+Z72xROI2mokXQhuKbrjMpLSKQ51PdaOvTrv8ZraeEo36yqoq4I9H1utNVBrIG2iDv/DWxrLkvZx4ODLQ3zwTJjoAQfsZTu4nQr2IL2R4XxKNv0p9JX/EVy6Be6PIBvYbFlSQSBtVngNstvzkjWlkKTCzdtWnH/+VeHFTwqXrwu7V7ulSzOQKCRYVaCPkLPWMjZjPiAIggffOtQhgC0sU3UX6LQ7PmKz3EN324LzIlGjgLCKrQBoA8m7TvaaHok6WaaNOC+WUukuug+JvU6D7a8QJ5kA0mqUOgbqGFAQ6iDx0UPKcSSpHNPdKbt+Vw44YL9/kUiFDiPZtRGqivM5jD9GfPEfszWpf7hsYFthPlKEdHVK7h17wx55W9p6H7c+btHotefh4jW4elM5uGRAtQ7LuQE9lDFdk2I3dgbSojggMf8r+u71RtjUP9jk3Vo2EWnnpKfqiNgigK2qzUVowT8WBm3CruSUEvCJOztHlU1kWnf3F4CzUkPQSIvSEG1RdETzvMe7n3AUyxV5ltOb9rjur7Ob7NLqCh0pyeUM7dqsVBU5eIXF6BWUbdDw3WQDW8VZVOjmJwwzz8Ewp1+dCmkKtz7WdYFcgiSFKzeFCxMDqmDjzOfI2fprPaBykEEandVLU7CrohZt9jG41lHoGjbZ7JMUqxYADsEJeByiAq25lDeSMXUbkFRsDCCGlmAm0z5fwGbYd+vKbQJfmybYd4nkSQ9/17P8lQXNrKHNW46nx9JvI40u0HGEfYjaoN0ysK5Xk7x0hfJKD5UtcN9JNrAl2G9ORYirkn6W4ERw4VzSynmYvQ9vvwYIJKf2dRa1PbfWRgl2wR3QlYsSnB2bQPCmScgw051g505sWCKb2moKrg9p6UjE4QWGLiURwaVCe0V5nJRcyQYkpVtrSwC0DYT2maTuAlQLATs0F0+CpyEydCnxtIU/WHCzusmlw0v0Z33m+ZxvPPo/RFc1pFDVC9AWDRXiPCQLhjeH9D5xmfrVCdta6reXM9h8ntIb7kJ0TErY6acMsgRCt8CuRtNoVQknxyCiuK5zsUqwmVcC6x/XALu4tYCDNHFn+9vOHHZa0abylZg2NHfeYBXAgXihV3kScRYVdm87cY506FhKw9hnZG33TKfZFCX67p8lgJMMaRw+QcHmoabiSEVMs0mietKSv95ym9t8qvoUP3n4k0xmE6o4Z/eXU/GNp24XaBYI9SmIQ/yC/o0Rw+cvM/5rt3jYzMFvS1vPyhls6WDIzs41kjblap2yN+wx6WeE5oF9USFCkpkGcw5bBuuRnawD2996KLCZ7xG76FHwDnzibJwIbYikvoNtjuAxXyrHNFAH2XpThV6dkODoi6fWQERJEMaaE6IiCqlz2GKomHiIvc6BayFjjJeMPO+DeHJnACfiaFESccKTmuGb8AqvcJvbvFi9yN86/FvarhzpsWf6K1MJdYmOImH1GFBwBb0rIwbX9xnfvkr60j6D/+6T4LdBw3k5gy3LhjoZXceRckNGDNOEUZ5S082Mt2WyYO8C3HgFq6GuDKp8gnXyJusOj40P2APxzu4D1KCtkibdjtNuf2HPEbB31XLmQ2qp3Wx4pSeeWSipY8C1wv77OcMm4VFT4vqCa+VsTJcmuJG3BxHSdoQfpfTzXcEZvEE7GKHLuUVG7ZA+m6Ruv+pz8taenvRObF7qF6bih0KoTiEGUEFbmzAruWf00mXyT1wm/29uI6nfAtfJBjY3lEnvKrvZAbd7O0z6Gb3UU7sZiIcQzJTuXoJbr5gZLZcGRX9g6ick1mLUYPAokINPBJegpNCrPFnlSVNhtEzYWWTaj4mBVrHOzdl9wRonl5CIEEz7UBNNcbaO9L7DqfB+XSApuFqsoE83TvcDgkRIywE+z8j7OyoCXjbXPhWh1KC+UZ4LV+nRO3sOAEnk8IVfY5bPyOc5zzVDITxGYyuqSGwE5x3OORnfviK+n0rvU1cY/w+fRrItcHAOtkR69P0eF4dXeak/YdLP8E5oksI0mkYILYx24cotUBVWHWx52j2fWfPkGrbOlEoiOETIYNSkDOoElzj2nvS4uBrIjnZ1yArz3TyWptBunJVFn1GVRCxd54A0esIjS10cNysUcI3AXTYy6G4VkirD+YQ07Yl5bZvrnpFQahDXRm7oDdK14wcoKpK0WrqCwxs28z5rHP1H/060nasIGitFEg/e6fD5i+ryVJNxn/SlA3b/0Y9sgeMcbETR2LQcDC8w6mWk3tG0AZLORwNoOmfbe4gCVWuQuNo0X/S21AFsCvEAaxcvh1FIGbUp6pT9WY/LbsCuZua/td05Dhu3xcxy54MFIKi1F6XiSRCehJJ5UluurFE7dmbHx9ASXWsPwHJjNUTXqmpLQM+0WybOOnYFLnCBcJYYAUFUKCFBK6n08OVDPXUlvj3B/cEvCE1BbAOkgoaIZAkaNuY5e+UCO//gr+D9R7u0dQabUyG8u2SyGDHME3qppwqRGB3W15aY9gLzz7woYW1qFBoFMlhgpaG1JEADqqgH9ss+kzZnUKXsnfS44Pp6oRlwpR4wCin7y94ZXEYX9FpP2sHwJFaMXU4q1l40CxXLpKFMA80yEupolw78unUAACAASURBVPEy1hGSYzXXXQjlCioh1C3EQBEb3Ln/N0D79M9gczhaWjumWtgREaqs4osX7+gy9pDVXeIXf1niaYF4AQWXuKdgGz/KuSUv8JP7/y2ZZh9Z4DbftDrCO6ekD4XEOXqpp42R2IqBlqScTVZWhVQFN+i0kLMUh6RQYpNOfLclQA1BoiStZ2+VM9KUnVXGqEwZ+1T2q5ybxYTdmHOlGGwi0g66YZuSiafWyHFbMnCWAxRgqQ1VEijzlroMNHU00zkFuQDSB64DF6ApV0jtiGUroJxG6/oFCw4A6euAESMikYTk7JbVuqvApB7WfL15WQv24fQR5f/2f0pcVva+BTRu/uN27/e49bULfPLBq/zTo3/6kQVuDdtfdOLQuyvqowVNjGfmpV2pfR1JCuvlREOAVCEbG1Ahs7TH2cx5zCxmGGwraEVJS6FfJ6Ti2V3m4KB1qnntuXkyYY8eV6qhmU/Bxs5hGKytqNXIk2CFz6D2u7sADqHtRdrGNi4AN0EuJ0ienMHWNhUOh1ZBAYq4SViXtCTiGZz9MAM43JmG06K1z9UF0VEqWlJe529qmYyIj2cc/+JvCKsGbc+rdti92+P5r1+kd+L5ePFxfv7o5z+SwK1hy26e7O/wBwv07SVNu564CWnllHpdvBTwDuoVlE8U3zn2bR+KvvlXg55Fo2DQRIUV5IXX3ZMeWenph4Rrj0Yk4uhVnn6VMD0dcxB63DqdcO3hiMunA64dj7i6HLJT91CgJVJqoFWLRtv1u2ztuX6RoAvgFnAd3HPecn23gANoFgVaKc3jEkkyQuZ5p57zbrPgqFnQE689hqwDB0FQrDshC5nlAjssQlyBCi19vrn3I1r1+7T35jz5V5+X9kmBeIc4QYJy7Y1dbr62T+/ESP1Y8TF+7ujnPnLAOVX9B4BO04OLe5KTHNfETmsIkLdOqFYQA8QILoG6hPmxINI1JOaw7MFCYdSzJskWiywbhQaGi1R2TnN8KwxiwsVZnwRHf5lK1nh2qpxhTLhU9Ln5cMxzsyE3H465cTJmWNvPPtrvakCrNg/BUrugrRJbGFcZfinmr01A9gREbfXKPoRVQ6wD7awUn/Vw/ZS36jnvNHPeaxbk4sVrjsc0dCTicEQiPelbQ2j37xlig6rx0cSct2++qu1uRnt3zvx//qKwqjvY4OK7Y3Ye9K2chkF8u7j9kdNw7nOf+9z/oqo/B+jFF/fp748BaEMEhL4kbJY5rSwSbWp4cgxtZekKPFQZzAMMBwZgiV2crhA+nqeMy5SIkgXPqMhIo2NYpCoKURQXHb064ebxhGtPRtx8MOHG8YiktdWLAAYupcWcb+222CiUsNPmdkGHmMZNIIbQVTJAy4jWLe2iVMl69Ac93m5nvNPMedAWpOJQlTPYAgGPJxAY9EZnPzduTypEY0NjpG56zP7mdW32U8KDBbN/8wWJyxpaGJ32n4puwUz0C8ULHykfzgGcB85d3+WNMgcgRCXzI6VZm9G1BKjftQkv7zkoUkguQu1h6K0hUoDHQANpk/Dc8Ugndc64yCjLwBMteTKqeDRcsey3FP2GxkVcFJ5/vMN+0ePmgzEXTwcMm5RWIw5h6FLqDjxVJcMxbFP26x6TNmPcZJv139aSdI8XkbasaPyKyUvPcWFvl6bz+3Ln8IhqNNDWwK1vJ9nEFrEJNlZ0AXFDRDxaZ6AZ2vM8/MkDrXc87d1TZv/mC+JPAsPjlJaWjIxAOItwBeGV4hX+ydE/+UgAdxaNngfu94ohr696VnN0fVsCwSVdfi3aWW4mtAU88AZbfx8kg7T7d0/pqghC0noOFj3JomNcZCzqmrvpkkejgnv7Czkd1KzylsYFglN2yxyvjkmRk0ZHHmyNVIeQYoECmFbLxDMKGfvaI4+eoaYWWETbxPqR7OAKQtMQ+62Mbl1gZzRiLCl7rse+66MggicS8Xjcub+h65vP1nRjOxAZIc6jbYrzCRojwSvvf2ZPm72EcO+Ux//rb0nZ/VrOGraAdZImJAQCLxYv8veP/v6HfprgJvXB08B9YZ7zVtPTIJnivEWiSY792kuqDAsl1PDEQ+lgMIJeqlCZY7XuU/NCUic6ajIVESZFxqKpebe34NGo1PcuLPR0ULPMW2ofqbIW59Ayb1GBKg1kdO1FWNNjq0rofLi+S9iRjAPfUwF6LtmkTloQ7zd5vxaitsSdoIPpng7zHtNsws1szDQbo6g6nK7Np8ejKB5PpqklnFs6E604PwTxSJvjc0eMgVC36E7K+z9xoM1uQv1wzi/u/ys59afk5GewAWePGxo+VnyMh1cf8mFePekp2OBp4L5eT+Ty6fum0dIc0sz8tSQVRqcQCjNRbglZBb1ayCw1wYj1nAJ8LdL2IoM2ob9MiBEikVGZSnDKg7Tg3eEpae04HTSseq1EUVZ5S3RKombKMvECcL9d8k5zynEouZ6OuOV3mKZj2alzhiQGhIOoARTL+wE0EKVF9wPDlw5kIAnTdMLz6S7TZEKrET13gdf+GsC4GdhnKoGARIkiyRBxnr15xl5AQmjQoPg0IWZw8mOXNUkH3M/u8QvTX5DSl7S00tKKopKSiqISCESiVLuVHL16JOqVDyNw3wIbPA3cy09KuX1yB8QZdKEFl0JSC9rAboTeHMIT8EvIavtyMmyl76BoGzkd1dJvDIS+JOzXPa4eD9k/7clprHmQFvRLz6rXshy0JNFR5i0+CkQIKFmXx3sYVrzdzHncllxJhlzyfQ58n3GdkQZnms2BumBm/7z/BsR+lGS3hwvK2KWMXcrIpbSoKBaBBjYVhECg1+S2iqa5r0qMiiSAsLtw7FaqqtHa1Z2gCrn2+NTir+vObIe7+V3++fSfy6k/VUAFUY9Xj1cbUJUELa4VevRXjlSTDx9w3xY2eBq4Tz/4Grfvfc2e6Fqh8UGRCFcCDE6geQiugDzYZGfPGWxBI8e7K+01nlYjY5dyoxjz/Ps73Hg41rhSTqkZr3LqJFBmLb0qocwCWeNBbaUhj+W93m8L7jRzHoeSA99jx+WMfMq4zJBgcOIgJpEYnoHNAymKA21sTCe2tapKZzbNSCuRSCCQNRl+z5vWFND1KpzATqUMl5aOkWTDxXg+4OYbl/jM4Wd0f7bPUX7EL0x/QZZ+E9Y63JnvJiqQQnG54OjHj1Tdhwu47wgbPAPcm7/J7TtfAufNlGYt+ADPBeg9BJ7YnIOdcGbGmABRqULL/b0CWdrL7bjcYHuww80HYy49GTBepVyY9XGtoAI7iwyAUZHSqtKodfcutTEzWp9yEiv6kpA7Ty6eQZWQts6ceMDlCa7pUv5gl8tDkuQwM1g6XxCPsIoG31rWJjQSydpM9pN9oZsVpqoizkNsRVIVCi+qKi5JRENEInLrawdy8Y2BDKqB/Mzhz3AwO+Bufpd/O/23svRLWZvUjAyPt3Xs5ggJUuwXcvTCh0vDfVfY4BngXvtVbj/6hiV1U6zPJwe0MLPZH0CfjY8ktjVBWeaNtHU4a8XOo6ffJvSrRG7Mx1xbjBiXKVnl6dWewSolrz29OkG7JLOqsggtq9hSYRNMaw2U0bwejZBot45IhCRL8W2y+ZTd+0l9X3gU8GmC7wr6IsIqRnGdn7Y2oQ5b4Nnh9KA4sF95TlBz5D2qQRcjp8uQKYJK6lVtNUu99o1ddSWakOi4GuvfOPwbuj/b515+j385/ZfM/EwbGk1IyMhUG1WOWc+/1WJScPQjR/ph8eH+UNjgGeC++f9x+/3XzRQl2Aihhn4P+geQJJZnW28CbVTKNmhdx67wbZuq4qPoxdM+F2dDpBSSlWO4sp63fpmQ195+7Ayl0sBJLFkndb0I89gwiyUnoWYRaqJGWyFJwUtmv/Bip9t7VeilE+U0IGlCo0oRGxoNtNFpRo9ni/CCkMSE3cUuLnMgIM4WR5GsZH6xpSlzBHAI+TxheJpz+c0JDQ3J+q9K+KnDn9L92T7v5e/xL6b/Qh77x3g8OblZhOPu64mAh+Kg4Oivfzg03B8JNngGuLtf5/aT22Y2Adoadkawc1Npd+2rqLELHKENUZfzhraKtGpFfgdEVAkQHys8Vt5fFrSLyHCVar9MGK1SssaTl56A8jiUeq9dsq6Jeqyf7e36lHeauR61p5xgWXs8JHVGEjNbpXxdrw3CZHQd8aJkjsdhxTv1nHmoSeOYnXhRbWwLRtYpkH7Tp1f3GCRdN2bqie0T0kvHFLcW7N/vIeJJG8/113Z4/uuXuPTmiIqKzkya71dl/N3Dv6sXZhd4L3+Pfz391zL3c4MN1hOs7cokQA3FcwVHP/bB13B/ZNjgGeCOPi23m9sb57uXQX5BWOwYSZ0jTQuoSv04ikQo1H7M3YsQVCWoylF1ylF1yp36lKJpbW65Ykv2IvQqW8PhJNQyj3X3gsZypYFHoeBeu5R77ZInVNZ2lwClgIrV1TvTKq1jOLgg7mIigcjDdsU77SmnsWbMRAZxVzwewcpW69tBM6DKK3ras3GcJ7TH5Fef4HYX3HiQ2EKCK+Ha63s8/9oFXAuKkmB+4xq4vMr5e4d/Tw9mB9zP76+jVHS92lOLuSUe+6cVKHYLjj79wQ4avifY4BngZp/m9uy2feQsh3QHTidKimmSdZkoRtpHQasQOAkVDlh3VETQ47BivRWtrS45jzXLtuEkVIRVZBEbHoUV81DTIyHFUWtgpbb/Xltwry14rCUq9tpaKjhIkj5UYu+lFpIqUzlwROA01jxqV5SxZRgnqppQUDBjxhOe8IhHPOEJdVtzGk/JFpnBJimumZNMSkZS8vz7Hiee7MRx8/V9br1mDZhrWBU995kj/arP3z7827oz2+G9/D3+2fSfSaaZNQ1o9915NpqugWJYcHT7g6vhvmfY4BngHn2a2+VtpZcpSV9ZjmGI0qIkKE6UoNreVx7VK33QFurFqYCKfa10vr9GVIu61beaE32zOeHtaq5vNSd6vCj1frvUu+1CF9pwOenrjs90EWqdtZU+CiX326Xeb5f6uC2VDCVFYxUgQcfDK+qLboGZGm2+WRLHQYOoRlWNqAKaxAHHYanv8Z6+wRv6Nb6mX+Er+lW+ynvtexw/ObbJNBGElEGoQDyXHsGt9x1JTBg+SHn+6xeZvrZPTU1KeqbRYGOe1yb1Jw5/Qvdn+7ybv8vFo4vi9+x5PKbd1rC1wKrTcD/ywfThvi/Y4Fs0nNx+lArtSiAKPQToFppxtlBMhbwfVjKPtQASVEVExIvIrXRHbqU7Mk0m4lTk7Xoub9Vz3q7n8nY9l7vtQt5vC1lE+1WQy8lQJi6XhTay0PUvhXSv2WIL2YCoBEiQSf+quCq1fSHK/PfflXZRi3gn+0lPricjGflcVhrkbe7I27wtr/O6fJkvy5f4knyZL/M6r7O6u2L1YN2xmzBxI5qHB+y9PcIhuCDkJ56syVjn59a+WOj+cqyFKRCoqRlVI/7O4d/Rg9kBvvZMf3cqvu3yeV23SvdyZ+a1uPjB9OG+b9jgWR8u5/bxE+j3zCEH++/0Yn5HiT7u1sQVbFqezbRE95Mee0nO2KeUbcub9Qlv1Se82W3vtQveDwXL2LDjMnZ8xoHvk0tCLgm7LmfiMkaSklXOLlALMQYkdYwGl/GNFejFCeXDU62PFyiw73tM0wkTlxKi0xknzJjxiEe8z/vc5z73uMdjHjO5O6H3sAczuPzkAlerMZNvHnDlDWvL2n8wZOdejyRYD9y6Hw4gdtSsC/trGD2eftXnpw9/Wsu2JD/Nmf7aVHzh7fuDs4oIEdN2sUv8fvqDpeH+WLDBM8AdV9w+uGAz4gUbXbDujxJZhJqBpDgRGg14sZd3CEHtB2NmbcWd9vSp7X5b8CiUFNpyM52Qi+dy0udStz2fTbiRjrmWDhlXmb1eBbFpcaln0LuAr1NcniCZQ7xjdW9GbCMTl3EjHTHxOYn2BeQMkLXJE0QcTl66/5JceXxFeAd59Z2X5fnHY259fZ/rfzBGUbn51X259ObQfi4X+1PzIAUQhxNF5dl9La1kVSb3j+8zS2bkJznTw6n42luw1dixRIQUS/4CxaWCox894oMC3B8bNngGuNS6UM8+chOtXTxa4+PlLnWwnj8QVOWoOeWt+oS3mzlP2rWT8u3lZjrhJNT0xPNCunO23UjHXE1GjGNmU/lqoAInHo0RcYLLPa6XsPND16Q5KQhNa0tlib3ZMSNucINb3OJFXuRTfIpP2J++wiv6CT6hz/vnlTvox++8qJePhVfeh1EFguj0Px7o3vtDjUR1ODyexqadqcdrj542NBqJ6vGak6sg2tCoICpe9HBwqLO8A+43p3j1VhhWLNkrnT+sgIfioNCjv3ykKj/4wK0V9R9bvvrVr/7uJz/5ybsi8tPPueeklprjC8fwrpK97phopv9/e+/SI9d15Xv+1nnHMyOfzOQjSamkpGVLsptEAwVU9UTA/QSN7parBj2+t4d3fD9CTxvorkmPCgIauMNGDwzat2yrVFIVSzJl2bIliszkM5nMV0RGxHnt3YN1dsTJEG1LYlKipPxvHJxHnIiMzPPP9d5rL/tNeTHsYoG9MiUSD4u1H2W7cmhyCqv90nwREgloeYE0vICWF+D2/0PzHNvlSNbCNmfDFvO+zk+wFvFFPdTBSk7WNvj7IeFaQ3orF3n8s08p8xw/8ln/X/7apg8O5fwDYWE7I6pma80NX7PLZl2WWKJFi1VWWWKJNdY4xzl69AibITf7N/mfD/4n5g87LA0bdEclgbHERUT02JKMIyLUbisoiIkn6vOII3x8IqKJOh0xwsfn2sY1bnVvsdXcYi1fk/a4TXuvLf1OH5vaadvYI1SlpkAOuc0ZbY3oel0RK//9q6++uvLhhx/+v+7ZPC+oJQ6fHm+99dY/vPnmm4jI/3m1uCo8hj/YP9DKQi6EHVnwEw5MzkGWMzAZkXh0vUh8qsyX+MS+z6KfUGAI8D63vxC2+Sw/YMGPOR+qrfS4HFNiEaBnYpb7DQb7OSYtKdJUMxVhgBf6iK+9OI4+ecRsBXJX2rLKORo0WGCBBg1GjBCEhIQznKFRNPjJzk/Y4BIZGTEpHtpya/lWiwGWjIyEhIiIMWNSUpo08fHJyIiIAAgJKdF6Nh+fQgoQSO+lXIuu2TfkDemNe6z/27psrm3aMiyVYGO0CjqpthEMgyFbZ7bshbsXRIz8xzfffJO33nrrf6Py+J8HnIgareOYSr1/lY1og5YXql3kRXyW7fNZts+dos+uGeOJcD5scyFs80I0N9kuBk/e+yKsBi2arjEzsJX3uZcPeFSOCMRjyTZhCIaCLBtp7jP0NdhSWgSR5GwPH5VorrlMKNP5B/V9/bibdXmd16nymWRkk9dLyolEc8a/I1gdLtYG059jMGQmU/LcrQh3VK0mmMWsb66L3/fhIdo86g5wH22icwCcg6E3ZOvF59dLPXGywawNd5XzL71AIoGd9xMGtqBvc0amYL/I2ClHdtFvcCmc44WwO92i4/tLUYdLYRfBYy1oM7YFD4oBD4oBh2XGnhmTWzX44yMPtsEMS/K9ERarM53wEE9Vd7I6h4wtw1Lwix5emRASWh8NS0j1jFxQ1mAQhHbW5nVex8MjJiYlPUa2mBiDmUiriIiiGgZDSIgg5OQUFAhaHi4I0hctPb8DbEH6MOXah9fs/mCf2Masb6+Lf9+H7eqeu2jc7xFK0l0YJkO2Xno+CfdMyAbHCffCf/cq5tKyzPkRUVXSk3g+Q5uzmQ2k4QWsBS3WwvZ0C5qshW1Wq/1K0GQlaOABi0HCbjnmZnbIzewQiyUzhlg85vyY9NCoBDi0lDtVklYERPDCAAwSzjWxRyUHuRBkq/imjdhAHNnUAlcp5KHFlBZLXMRc5CIAAQGT9gyodAoI8PDIyPDwCAmxWFLSieQLCMjJSUn1M4kJCAh2A/3etS19mHLt2jW7f1ARLlgXf99X6fYIJd4Oas89RglXDNlaf/5SW8+MbHCccMmrl8jWF1kPOpwP25wPOngi3C4OODJ51X9tChcWcXuAsvJgAe4XAz6r4nGLQYOOH7HsN2lLyE5/qKqlUjEGow1fPA8vDkGstaXBDAr2cyEuzhCUHbQbyTQA647r1+rjT8GRE1RNOvLVyVZQHLsWEdHcb8IWamUVTNbhSscp135xze7394nDmPXldfF9X+/po6GeO9XxfWALho+GbAXPl5d6og7Ck1B3Gg5eWZGoHBPceshK0GK3HHPH9q2xVgLxOCpz9syYrhfR8dSIdvDQMrkSw/18yNAU5NUDbUhALD4iWlxJAcyBFwV4vs/44R7FUYo1SrrBH7cphzmP+/sc5nCfFPwhub1rd0HGVY4oIWHMmAYN3LU6EhIe8YgBA46qSaUtWgwYMGbMHntYLEcckZPToDGRfHvs4eFNrgFkB1XFyjIaJzBoveAcpGXKtQ+u2Td+8ob02j3WX1iXzf6mLdulktKgcz4yVISkMCyHbMVb9sL4glSE+0adhmdONjhOOP/VdTFYlu4bjLW0JRTXanTHjvgsO+BSNEd3Qjb9u3hAgSW38Fl2QCAebdF7VOBZBlVdWrsRwQoEXozfDhnc26Hoj8FYzDjn4MYdMWlBMNxnv/S4yQMoHrNtPpYOO6Sol+psMrefRUzMAQfMMfe594wZM8ccwOQ8IcGlrw44AJSw7tpgNFCyvYY+mQP0Fz8DZJBmKdduXbNvvPSG9JIe6/Prsjm/aUtK6KDbgEkDa4oqef/plr1w7psn3NdCNjhOuPDVi3IY7tLbLLkYdW3LCwVgUObczA/o+QkXAv2LldYSCHjigS3JbcnN/IDL0QJhtQDt/WLAyJaMiyMCgbV2ixuXdvDTkGilwejeY4phihf4lFnBwYd3rC2MlGbAEPiET7DlPokdkdAmR4vfQkJc8WNBob9IDSEhQ4Y0aX7uPTk5zaoToTsPqwEwZDi5313bZVcl2nk0LfWA6flItzRIuda/Zt8I35Ce32N9vC6bC5u2vFgqfXbRyhFQKRfBMBtyb/eBPbuw+o0STo2Urwn1wO/RUkPapcd8v6QpgSRewHZxxGf5IU1P//j7ZSq7ZUrfaMnRfpmyX6bcKfryarzEaqBB3QflkM28L7vlmDk/4tXFJT64ukscdwj8RIqdlHIzI+w2iBba+I0QPjmS8jAnJGKZFQITUWKtTyAGHXV7TZDJPiefnDv7zKATZOrH7l5HWFCHY4zmiA06Gdod7zWPOFzdhzVUDJTV9leoxGoAMZTtkq32FmvZmrTLNm3Tlv5yH9uyGoNroNaZQSXjEZSEFMbSDhMRvpnA79dKNjhOuP5iIu3Sk04/JxSfx+WYx8WYwPPolzkHZSqPzYh+mbNfphyYlL7J8RB5OZpnMWjQ8AK2iyG/S3elbzJejhZ4ZW6Rd378iNBvEfQDMX2D3bXEi21aFxcJO4l4N4aQC13m+AE/oMs8AaHMM0+HDgkJTZr06BETM8ccCYlmEQjp0Zucx8S0qtGkSYsWbdrMMUdMTETEIot06NCmjY9PixYJCe7ntWmzPz/m0cUHYKyq0xLdr6NhjiYqi5pQLpZsHWyxFlaE22tLf66PPazeO0Ydh1zvD/0eQRgjZ9pEfSMifO2E+9rUaB11lXpvY14A27wzIpGAC2GbQ5NzqzgAsCUWN+NJZ0J5/DBZsAHijDWW/AaZLa3FcjHs0Eh9wnEAHpgdY8OkDQsQL3fpvnIWrxFifpZSDscss8yP+TGgamyRxYn0gamTUN/vs0+XLi5T8CTnAabvHTJkgYXJ9V12CQjIyFhgYSLd7rdTfnvm3+F3pYqBDkqcFA1xNFECVeX46Tjlmr1m3+AN6dFj/XfrsimbtqyWOqJEHYzXPPxmmzhr03htlf790HbMpyLC16pSvxGywecJF4pP+1bKC1GPP6Z7gBZ0e1ao8uQIQiiefSGck0h0XoIvHmf8hj0btKVvMi6Fc8RZgG8E62G9wJdktYtY6Kyu0nllDd/4tmRbSkIucWlCth127BJLUlCQk1NSkpBQUNiQcEK2Aw7o0KGkxF338SfOBKjqdfabI5Wb8LzH3kStzjM/ee9vm7vIcoT9OFcVGKAqcYSqxRgkb2BtVq3BVZLmlQ3Xqwjnrcsmm7aUinAexPMvk/hrhGlO8/wCpWnRfPjQjs4MhK+RcN8Y2eA44W6/3JU1U7K41afhhSwFjdnbCcUnRAO3mdHubD5aTXIx6vCwGNH1IwLjgad/N78XESwlFH5KstIjWmgT7BrJC43vL7LIEksAWKwssYQLtmruU8kjyIRMAQEtpk0DnfE/YEC7cgUzMgQtA7fYiSTMyLDovISEhA4dPDwGDOh5y3hJSLmASrQW054p1XpgHg1Kr1CyJeoUpFnKtcNr9o34DemZHuv+umz2Nm1pSmhAIi8TRW288j5+GBCNxjRGTcqtzGYXsq+NcM80qPtFUA/83r88z956h7YX2BfCOWa3i0HHuuS75jT172KxXAg7dsXXEmEAE5Yg4J+JrD8X4C/5xAstsGD3M2tybXrboTMhREBgAVuieU1QCeWyCvVzZ9y7lJO7xwVxQQkH6nFaLC6Q60jovFCLZhgikyAmgYvABWAebfkA6jR0QBYTJPaRka8hjh7QhfRcyrWFa3bf2ycuY9aH6+Kv+XBBSIY/ICyWsEVB2c/w+ztQWMJhSGerY8XK1xL4/cbJBscJd3djnvCFVXnRESzscDHs6HHUlfNBCwCf6VzonXIMID0/QSesgwlKTFjinfHFawckqz2ipQ5iwP5+AJmRgIAznKGsRpXHFP18HY5kdXhobzWYZhjgye9xpHVSDTQWFzLNkU5fCwmzNbiEbkvV1gIuRGqzLeu5+IFKvSV0ufP1inDr1+x+sE88ilnfWpdgMSFJf0yQL2GLkuKPfSWb0dTa10m454JscJxwez9Y5nB9jpYfkngBiRfQ8kOaXkhcNZcREZzE3y5HPCiGZNaYigAAIABJREFUyOQ6YA0mLrGRRcQjaXbxk1AnMN8Zi1jNbfbo4RLlPr64XKeHFj9aNJzhpJUjmgt5OKnobDRHINDPd9IvI6Og0AdcDXc9Q9esKT1LkJ9Rx6CLOgIx0AavHenTamXYyCgBBSVgu9piSBsp1y5es/vJPnE/5sKvz0qQNfDKBMFibo+RIgerOV/L1yfhnhuywXHC3d6YkwfnW5NycYf6MUBhDY+LEQ+KAdoDfAobGUqTQwmx10UCD8kt9v7YCkJIiGtDX1ISEFinHmEqldw1py7ratORsGQ6uaUuwZzXmTHNg8bVcDE4d3/uFYRmZRofc2iDxBEYKP0RhEbVp2XqRLj/vQzSMOXaS9fsfnxAfBAS/OH/EMYjpLCYeylGVCc4dQ4QDkO6W1086z0zwj1XZIMZwr3cZeeCy70oTPXHcRiUGUdVi/m2P/V3SkEzBrnmRCOaumDbYYnd1DxmmzYd1AZ8krqcRV26wdR+c5LNFUW61FXEdCa8q/rw0bIjd2/9/sKmBLKkaSqLOgYZ0ETr8QxYhhCCnSshjJVsIRrmMGh8LfBJ45RfvvCxPQwLZHSP8JP/T2R7jL0zJIuyJ0ZYw2HI2taajW38TAj33JENPm/DzRKujr7NiTyftaBNz3P9IMD4lkAiTFlgPQNFpWIHBWZYiMWSkOBUJkBBIU49gpKprjIdcep2mZN+oJIC1OCvnztCWjRTINVw6tS95pU5BL6SrSr5ZoySzKss1NKCeNiwxIsipYKp7jUoQcVJ5CWu95btiAUkPyDZzYQiI41TrDbxnHxHh+XhMv956z/zLAj3XJINPk+4++eaWKspIGByPDIFXS/ixXCOnq9qDEA8CGyMHVnKvMBWOtbuZdhMA8BduoDaVoJgdCIK9dSTI0adZAHaT80yba3g4IhWR/2BGpxbo5KvnsYK8lKfyH6k5UJjdC2wA7CDQuNtB2jrsWGJlIHORziotkNgADL04Aj8gx6MzvJ772/sMNV/KTlfStpNyVoZRbOg8JzFqqNJkx8Of2j/09Z/spGNTpRwzy3Z4DjhNjfmuH++ad1v7OYcAKz4TV6M5uy8P5VsUekTmiay49ni0VhVKGDvjSAzAHaFFZwj4IgkiHU2nCMYTNWsu+ZIU5ds7vUvipj4GBGTTBB8goMFTcIfoftbYDczTVndQmvXNkt97bPqmtvuAJvV9Ttgd8cMzO/58A+HdjAYIBE0O03pn+tzeP6QftTnsBoHHNClq3+HofAftv4DgQ1OjHDPNdngOOG2Nnry+ILaWG4KXtsLafshvnhSXz+0kQb4JsTfDcVsZ3hJJUH2c9A/mvTooSeTfhziVKmTUHVifREiPemeujSbJadzDgQhMrqseGAXJ2392Qe2wN4qJoWR9m6p+81cCbbFlGT3wd4q4RYUDx8yPvyYsfkd4/IR//y76/ZoeERoQ6xv5Wj5iEFrwCDS7Sg6Io1StqItuR5dZ6vY4vz2ef1+Iv/xpz/96f/DUxDuG80gfFHUMw1bGz3xxKO3eUCIR8cL8RCMrdadr9AxHQoaSO5jDi1eHGJ3M+zOGMCGhLLAwkSy+PhOqk1Kw50KdcSrVKc4NSuILTQuZys1LDk5nqYvBJRoJaW1mn1zybfJ61WoxVosjSLEmlK8uDN1EnKgjyUqYRShvYyBAIzNwRMoPOuZBta34o0jbJFbYzyx/gFZ53fkK+AHqR00xvzrvX/l6ktXaedtmo+bwjIau6vwc34uP+fn8GRS/Y9/93d/97/+4z/+4/89+8IXwXMv2RxmvdRHF9r44tHxY1qerhxTx0KwRuJ36TZWCWyCHwWYP/SxdzVp3qXL4qTwS+02qzPVcWRzUshWs9grYk2kl4cnGRkWKx6elKjXKYjU1W+O9iNxn8/MgwwJxcOTRh5LaY80phahXmYEynsjge0JNkCq8nXKEskDvLIhkT0vYblGwiv45bwEo3nCw4Ki/wdGzY8o4l3JVgo5XBrwTvOdyc8+Gh4xPBxOtu5hlzOHZwgOA+yhnWwOxpgfTE6+JL4Vks3h88n7Q1bvaBjDWHvsETZaSwzDJo2zXfJhoW2SPu4j/RIQ6dBxBJu+iYmEw6LGf4nG3+rq0XmUAQFjxnhoE2ZTjZBwYvi7e+vvrSMmxqLpqrjwMcEBZdLX0ISg2YEQmAN/d44iOkBMhG2MIdXUmJiE0F7AeiPi0WVMa4w9HNE8bGDYJe/kEIBNDIVXkurXkcPmIb/7p9/Z5O7E1pX/wn+xP+JH8l/5r3abbRHUbb33w3ts/XjrSdLuC+NbRTb4fPIeYHVrgEH77jpV2mgukTQTWskC2WAM1mI/HsCgQBC7yKLUY12VJLM+vjgCeniTJHsdBdr/wAVs3QTkESNKNN7mbD2XTXAhllmyBWgVsCDEeYAJDrCx0QzCQKBhNYPQncOP5vGa9xETalJ+6ONLG298lpgNTNAnHr1M3nkIsk1z1GLU8LFdi00sNjAUcUnkVY9doBW0Jl55gwbLLBMQ8BN+wpDh5D/xPd5jiy13+pXwrSMbPIFw1tLbOsSgnZEAkrhH0klIGvM03MK0nxzBkUqoFVZwEX9Qsnl44ghUOQwI04nLDnVPNCOjQ2dyXDJti1XPDvj4uHRWHR7aKBqgkUeY4ADxQ03CGx/mChhDFJ/Htz1kLkbwlGz9gECWiA9+RMIPKeN9wvQcUfs83u4BzSBhb86DNpiGAWsokvLYU09ayWSuxBprE7L9kB9ObwLuce/Y+VfBt8Zmm8VsauvxBa3ecDClIWhEIAYvCUEEDFgd4qSRI5JhmqZyx/Vrfw7uHqdq659Tv+YkXh0Gw5ixqusiQGxJMJ7X4KznKzESCEfnAA+RQBcTAUDw6BHnf0WQz+EXPYw3xLNNosEI8iFFT4lsYjPtFVL7CkVHXwfo0Zv9fk+lNmfxrSUbHCfcnY0e2+enmQYvM/hJhMVqAn5skKKiGtbOM39MtRkMlRfpPMTJvnpNP7f2J3PX3bVKOk7O62QTNBPhflb9M5wabZQNwrzALxYJR+uELAMCXkB8tEFoVgjyVUJzFt/ME5hlovJFkqM1gn6IfwSl3MEbZoSDMUV0QLFQgIWyXYKxYK3agBXGi9Mq42WWKdDigGeBbzXZ4POEe3BeS5CC1Gi4Q8BPQtgv0O5VigUWCKph0FCGqRYQNRxvTV/3TOv/+e56XbLVzwXNPMBEolJWw8GRMCCgaZsko5zALtAc/ZjIXgLr49mEZPgDonKdOH2BJH+FMD9PXF4izl8hPmoSHZZI/4jCfoo32CMcZaSdfYr5AgwU7QKCinCObALjhfFEtS+xxJAhM2XuUtueCt96ssHnwyIPzrcIcn24DnY/B10MA0GkhZISpiSpk6COv0S2Ourns/fWqz/q9zRpVlnSkGis6zM0sh8TmvNIFiBZTFD2CO1FotFFkvQ1wuIcoblEmJ1F0l28o0M4uo8xd5Gjh4gI6XyKCQyUUDZKaBnAHFOjeZJP/k4JyWSC9bPAd4Js8HnC+Y80My0i2KzE/rGPrSRbh46tkw0m6nHCTqcSSzQH6iSQ27t7IrRrkWEa8nB5RmGabK+rUKeqCrTZTIDOkheE9k6Anx3RfrRGI32JePQSydFL+OUCcXmBON2gMXiZ1uElGo8XaTwSgoMtwt075PZTCnMbO7pP2k4ZLY8wYUW2qIS2URuwRjYTTFV6ixYpKXU1f5L4zpANjhPOPC5JPtxDAg9Si/m4rz12EXr0JHFTlJiqMmqqoi7tBI27+UzXHwVVtyHaY80Rz8MjrYbFVsVEmnB39lxJyRjt2+Y8UYPad+2HEd5gj9Z9iNNLNEav0xj9EJ8uvl0iLi4SHy2R7J+l8SgkfnCAt3ePcPc+aXib3D6CfI9xb8y4N1Zi5WA9q2GUhKk3Kvq7u9Gkeez3O2l8p8gGxwnX+fWOxB/vQVpi71StsxDmmJvqV1SqeWhC3qFOtiftHdw1RzaYloC7a7PDolMF3X1upKTE+zHe/mOCR7cJ0hZJ8RpJdhlXNiR+A7Ih8WFE9OgAf+cTvKMDvNEBRfeAkhLjG8a9MUVU6L+PoSo9QslWs778fFr+FKCTcOr/iCeJ7xzZ4Djhmu/cp/n2HvaO+v1NmlzgAqBep8M97vEJn9gMbXVVomrUoOGPuoSjelxO9WXojKl6pa4jm6vKrQ9BxD1gizoNFs0itPZbRPf3xd++Sfhwn9bgRWQnJN/7lODxHYK9HYLHtyV5MCB88Ag5/CMyPiTlAWl3jyIsyDu5jNtjyqB0i/GqgeDjnAP9/sbDKz0BpEFD+vT5Pb+X3/JbDjl8aodgFt9JssFxwvXup3RXGghCixZnOCOg0svtN9nkN/xGMrKJJ+okYd3e8tBmggA+vhg0S1CXjM5mcyqpGuKOAgLr4YmPj4cn7r6Sksa4QbSTIv2H+Nv3JBrOUe4ckG1/SLh9k+DRbfF3Nm24s0+wv4/JHkA5ZBTvkLeOKINS0m5q8zDH+lZja06OByjNPL3iWQ/RdJRt0rS77HKd67zLuxxSS4ieEL6zZIPjhFu4ukB3o0vVUsHC58n2AR+QMu0k6cjlUFelAEGVM3XX63BEPXapQkhIk6aNiIiJrc+0oXNAQDAMrDEF8vi29dIjxnufkG5/SLB9E3/7U+vvP8Dv7yBFShmX2MAy6owwYrChtUWnUGkG00CuhxJtKszxja+2HCrxd9jhXd61v+bXky5L6Pd221PhW5mu+jKop7YWri7IHHPM/2EeUDLl5HzGZ+ywQ66BuGMMmSUR6PtgSlZHQCcFI6KJ8Z+hM6fqhZIBOuvKoWQ6EaZNm/goRqwh2NnCbH+Gt/MZcrTHmEN8fILSwzdCWaQcmSP8xOdw+RCzY8BDe/OOmbTaqn6o2m41eMajbOn3PuKIG9zgXd6dmBmcAMHq+E5LNoe6hDu4esAnG58IHCdbQcEKK+IzLZZ05HGoq1PQmfBOGuVou4YAbewMSqKMDNe1qP45TqX6aM7USbcWLU1bAf64j7+7Rdw/JB4OGAw3McMdvPQIyUdgS4b5kEE0YDQ3mrQ8NY8MdmCVKo5gjts18SKISkYs++zzKZ9yn/uAxtyY+cd7WnwvyAbHCffLq7/k+sZ1azB2zJhNNmnTtq/xmk1IrEFny3s6Jiypq1BQR8BHF6Z1DoEjjaDZgyeRbRZOysXEJCRoIEJLmLyDhzQL9RL79CmZtuQyGNJxyjAaUjSKaX/de2BHVonmnrAjm/owE5hQ2bjLLg94YAHWWLOujcRJ4ntDNjhOuJ9f/bn8bONncoMbDBlynvPyOq8TEkpBIT4aEgCkTjCHOvGcJMvQQK0jYF0q/jk4skVo7xFhWmkiB/dpFQHu4aek9NF5A336jHojjtaOKOYqY8z9yBhVodMqKoVfXQfEyuS7zzPPQx5OJFnNZjsxfLG/xncIxzINV2/zwcYHtGixxBKLLE5I5sgkyCREUjKdlOyjRZbumsuhujBIRDTJKDyptKgO95qHNyHVBPmQELUDGzTIyelXY8CAYqWgWC10Znyv2ubReriCaR7UMDXztcQOgLhQUbfO+iRNtceeOHWKqlK3PRW+d2SD44TLr+Y0N5rMM09QzYgHJVNdXcFx79RHq2Tday5Y62w3Dd8q4VyQ1H2WrY3Zc9caFZTclmn4xbXpGjLENY0uV0ttaxqhDsEqcA5tSDNLNqprlRAUhEamIaEXeGFC+m22bY1sJ4bvJdngOOF2ru7wYOMBPloA6VQYTD3O+nn9dVASzUouJ/kcQV0h5YgRLug7e56S0qBBSDghYWU34uPTpk2AznF1sGesZgUc2c6ihNPi26kaNahsqkk1LMz153CZA4eg7kWcIL63ZIPjhHvn6jtc37gujmxOPRZMF9VwpHGvOyIZpjVpLqxhqlEPgcySa/bcNRUM0Vny7mc6cvmoLdh0Q5rqXQ7RJxmh6rTuebpjW527PYBAY6it8R/xaPIzV1mVFVaqm04O32uywXHC/eLqL/hg4wMCnlzLFjAtGTdM16cCzRoIanA7W65EF0Grj5T0c+dOqqWkeHi0aE0kqlQDVI3HxHSr0Za2Siud8zO1rEpUkjmy1S2usrqGSuRmqqTdZRdXnfIyL1u3is1J4ntPNjhOuHevvssHGx8Axz1OW03XKyjETqfkTV7LycXUii8re0vcVr/fvcfq9EBSUoYMycgICOQsZyefVZdsBiMxsbiGOE1pqgotgQDBwzkC+haVZIJfHZdI5QMAUHol3bzL2fAsc8zJGc4QE/PX/DXrrE9vPCGckq3CrIT7cOPDyUMu0bYMgtjKibA+/kTyeXjWx7cWa51tBprOSkhsTGydw5CgS0PGxDYmtk5lOo83ILDLLFuDsbN2oPsO1bFebKC92iIsHmr8+9iaY6B9KiIgx5IxsduMGBrSYDVa5RVesWuskZBwnvMSTj7g5HBKthqeEPhFUCNfOD6X1GMa7nCGvCNNgRZFeuhCaX41PHQlP3fsM50EI2hsLSRklVXq6tPB2Y6GyoMVq08wxEkuJZK7pjerCg1QIrp7KjT8Buf987zGa2ywYZs0CQhstSiIC5a47alwSrYZzAR++WjjIwtTlRoR4VSrO845XvUBKg2dtKpfc/dYNOzhJF4l7YiJWWMNrxp1OALa6rkXFJpoT1E7zK17QHUOSjZnv4E+8crB9o1P22uzwQav8ip/w98wzzy3uHUiU/dmcUq2J6BOuF9d/ZV8uPHhhGyOLPXjlGnzPzdKpqmqP+V5pqQI6lQ0aEykXox2rJyVbMK0NB3Qp/e42gzaQRyUTCVTeeQ4H3KseDIoAiKJmM+1Pf5f8VfSoMG7vCt3uUt1p9ueGqdk+xOoE+6frv6TvL3xNgccTCSOC4m4Y4MWWTrVCNO6trIaObqgbZ1sTkU7ooGqy4Rk4q26UdmOOIlnsdPebBla6eEIVqIUcXZciaawYiZSzy99PPGYy3WSskuV3eAGhxzqTSekQuGUbH8WdcL929V/k3c2tCGLxzRz4B58gRZLOtVYV6l1OInnpJwjovscp6KbNCdpKTdGVXHaRLJZJguoMUKlmyOZs9Uc2TJUsjn7DlWj4gvdXCPAPj5jxnzGZ9OfcYI4JdtfQJ1wf7z6R7m+cX1CJKdKQ6adv51KdfZXgi7xGKPBWPde50CUlJ8L9GboYh+uSZ8bI6bzKADEiAZxm6jd1kQJ6GrXfKZP2K1gWY+zeZbCm9qVm2yyzz5LLHGOc+7yianSU7J9Acx4qfLBxgcI6qWCSjdBA7mmGh5V1W1le7lzQbMMAdMEfV3VOsm2wMLnCOjsP0c2I0bDHnOo3Saog+CjZAvRJ1xXpaY6B0qvJEmnaao+fVwu1zW2Pkmcku0LYtaG++3GbydEsUynvznSOY/RqVa3B3Uk6g6BI6sbAcExj9SNggK3TilAGZYqzebRFqhjpp5pyfTpOkmnP34io4xn6PW1+yZoufoyyxPCnzROyfYl8CQvNSMjJ8dNgYuJcXaZk0YuJVVvqdWgMfFc68cRGvhdYmmSlnLDR9tyOSLnca5PMAEeAXtMqzqcSe8qP8LqmsuPoqp8cX/aEHGddV7iJXbY4SEPJ9dPCqdk+5KoE+6/Xf1vcmPjxiTOFqGxMifFDNNG0O7YSS4XoffQ+JyTXqA52AUW6NHDpaY6dIiIyMknqa3R/EhJ1ESllgvoOjhJFjElW8hUsonh3GO1zQyGNdZo0cKi0wpPGqdk+wqYyaXKRxsfYdDZ8c4Om1WBjlQBOjMe1IN1pHTDBYLnmMMtsluXmgCHHJKSMlqqyJagywkFTEuKnCoFvcfZcR7HyHZ27yyg36VHjxGjCbFPGqdk+4qoE+761evy/sb7k9dcrM2pRJcPdeqyRGNuQ4bH9vVj9zlOKoLaVBERffqkpNp7zUe386jt5torODutXmbkUIU+rFhamfY8KdCCgE/5lHOc4wxnam84GZyS7SkwUw8n7228JxmZeHgSEkpIKDGxREQCiI8vgIwZy4iRlJR/cgsIZJ75SdjBYiUmloREDEYsVrKFTAgRPIQzCPMIMYKm3gVTHUvtmrqyAhXZ8pYA7jM54kgiIjp0ZIcdPqjGSVTunpLtKTHjpXJ947r18W1IaENCGxHZiMharBVtfW9TUpuTWw/PBgQ2JLQBwbHjhMSusGIBK7WKk5h4cm/RLiwBurWxtLC41h0lFlNtHhZtaK+vVzPirWdJysQC1se3Hh4NGnbEiIDAPuCBfZu37du8bW9z+6mzCKdkOwHUCffrq7+W6xvXZ2+ZeKfOM7Xo2ll19Tp7vMgiPloRUh9duiQk+vQCdO/seRficAl55yQ41J94LUwbEBATc4lL3OEORxxxj3vyK34lv+JXcpvbtbu/Gk7JdkKYqRaR6xvXqcerVNxoCVKJVoT4aMXvnyLbRS4SotWzHtPecG3a+ImPWJk6AW5vUK+zHlebxUwXU/c9fXyWWeYud3mXd/kX/oVTyfac4kmEc/Cr4eCM/oyMkGnNW/14mWWcZAMlrIfWyNm2RYqKbJaplKoHbk3tuoNlIvWkKiB2XjFowPmAA97lXd7nfW5VY4+96gO+Ok7JdsKYzTQ4wjlpFTBZAZCc/FiQdhYtWrgwCSjZ3D5v5kq2HCWVK5YEJZjzRmefsOHYJGU4Vp1iB1qnZN/nfW5y88lf7Cti9quc4gQwK+He23gPUMLFxBNVWVBMkvB1levQosUCC8euObutlBIpZVqrJqjUcqRLqmP3hJ1afVjdB4RlnaHwER/JLW4ByAd8wGd8JlTecLU9FU7J9owwK+E+2PhgoiZjYiI03uaqRZ5EtpAQt3IgKNEm9lumpDumQkumZIurY6dWy2rbZnJ/UGrAzX3m7/n9JMTxiEcn3oLhlGzPEE/yUn20EjdiGqH/U2QDzSQ41D1Sf+RPg7WWqe3mV3uP6cwrJ9VKtDqkCuoGRg+CatzkJjvswET2HcOTrn0pnJLtGWNWpf5m4zc4r9OlrlyC/kmYlWyT40IwidEneAedO+oxlXQlmroaAzvgl74SbsiEpHEeA1OylZQ84pG++HmcqtFvA2YJ9/7G+8e8zpzpWgSziNAeIg6GqlzJN9jYTsnmSJShtMjQ11LgMfjWVyJWUg2mNpuTliuskKn38NTEehJOyfY1YZZwNzZuiIc3WafUYCYTkysIgIcngkhJKcBkYV0TGymjUlNVDxAyhBAlmV+dG4QCYRe83NNzbZIkoNKupJSUVFJSWWXVvVa3BE8Mp2T7GjFTnsTvN36Pz7S1fU2qTB50jx4J00aAtppdXzSLqWRzIY4ESBEnveIs1k86QqXfLrCMzpxHbbY+fTbZ5CY3TySW9udwSravGXXC/fPVf+aTy59Yi8VgbEZmUaniNuaZtw0a9oADW1C4PCkmNtP7lrA0sJVzoLnSEBulkSXGEoC5Yyy7aA61yo2KFY44slts2Vvcsh/yIdVnOuk2uz0VTsn2DeBYedKV67J5eZMSLTuqVCqaSy/p0qVNmxEjCrR5jSDTIkhBy4taQAqe9fRaDGFWxUE8KO+W0EcLLWt224gRO+xwl7v8K//qLj81sZ6EU7J9Q6gT7saVG/Lx5Y+1ILIW5B0xok2beeYxGDKmk13KpPJeXS1bAsFWQLNsqifqg5/72mO3D+X9Up92k8lTrzsehxzWyeZwonbbKdm+QdQJ996V9+Tjyx9/jmwGQ4sWTZq4yTUWiw2sUsFjUvLtbXokNtGsgqnyr/dRwhm0Q+XME2/R4ixnmWPO2YxwwiRzOCXbN4xZlXrj8g1cYjxD11Do0GGOuYmqTUl1zqhDFbT1dj26RZcgC6CERtog3o41a+CB1/Cm1SGoZGvTZpnl6UX30nGcCPlOyfYcoE64f7/y7/LR5Y+Ovb5UjYJiMmE5GAZTsz2v9sBCukB71MazHmuP11jsLxI8UiMtGkfTFV8qdOjQoOHSVLMkc+ez178STsn2nKBOuH+58i/y4eUPJ1mGBg0SEiyWQTXCg1ApUKJq04fyQkmzaNIpOniex/lH51nsLBKgki66G02LLGFi/+2www1u6CX30nRf354Kp2R7jnAseX/ln+STy58QENChQ5cuHh4ZOk81PAzx0yoFlQEBhKshvWGPuXSO3lGPxd1FmlFTSWUgeZQQj2M6w+ls9wKd+HyHO5NrzwqnZHvOUCfcL6/8Un5z+Td06bJIJaHQQszwICQcVqGNHIigM9dh5WCF+fE8F7Yv0Og3MIWGUTDQGDTopt3JXFFB1P5DeFZLdddxSrbnEHXCXbtyTT6+/DEtWkREtGnTpYsgxKNYY2YlEGqb+c5Rh6iMOP/wPLvxLo/3HuOS/H7Xp0uXc7uTpjGMGbPMMi/wwuTas8Ip2Z5THMs0XPlnsZctyyxznvMssigeHtEgEg9P4jxGfCHKIrJAlzRqDVvstfZE+iLiiQCY0BAehiw8WJjYXxmZDBlKh86sTTZ7/tQ4JdtzjDrhHlx5IBcuX5CXeIkllhBEwkFIUAZ00g6++FJSynZ3W478Iyn9Ug7bh8yN5wiCAEDG5VjMQyOthzoxGaCkZJNNW4uxPTOcku05R51w5ZWSuctzNGlaD89SYIM8sO2sTWADe9A6sLdXb9vD8NDeXb1rJRF7Kb5koyCygB31R/Zw+9AOhoNJKCMktO/zPp/x2Wx4ox72cNtT4ZRs3wLUCbd7ZVcWLi+wxhrNwyZSCr7nwyHsD/a5tXiLvdYe91buYRNL4iV4nj7m5mGTcrtkONa2WyW6hv0uu9zkZu0nTvDUBKvjlGzfEtQJN7gykJXLK3T2NIRRJiXswnB7yHZ7m36rz878Dja2jMwIY3QiwuJokWg/Is002FZQEKH9SP5Ei6wTtdtOyfYtQp1w+1f25WzvLEVYMGgPKPYK2ARSKGKdclV6Jbfz22SF2mNnOUuPHm56YEFBQMCrvFr9hGeLU7J9y1AnXHejK68/fp1+0tfwRw5kEOYhSZpDLY2aAAACH0lEQVTQTtuERajzS5nO1qrmhjJmzA1uaML+a8Ap2b6FqBPupeFLcmlwCYlFa9pyiMcxzaxJZ9ThTHmG0Gjw94gjGjTYZx/Q9Rve4R2qNQ/+FE7TVd931Al35fEVudy8DOuAhUa/QSNr0Dvq8SPvR7gFc92cUFf+XVDwK37Fu7xbfeqzxSnZvsWoE+610WtyefkyoRfilz7hOOTs/lnqvULucpf9agDk5LzN27yHzth/1jgl27ccxyTc/hX5wegHFH4BBSwfLbNjdnCdLAcM2Gd/kgetArp/SY2eGE7J9h1AnXCvHr4qq2aVwhQ00yYfmY+OtbP/Cy0VZuvX6gHdp465nZLtO4I64V7pvyJze3NsHW3xW/NbGTGaGPn77E+M/docBGf81x2BumNw6iCc4jjqhHsxeVE+Pfspu+zaknIinXLyJ0mp+rlFiTV7z1PjlGzfMdQJZ1+1snF5Y/aWL4JTNXqKL4ZjTsOVK3L58uXZW74RnJLtO4qnJFzdbjsxnJLtO4ynINxTq8wn4ZRs33E8BeFOHKdk+x7gCYT7S+qx/vpp6OMUXw7HkvcvvTT78p8j04l5o7V+Nqf4ruOtt976hzfffBMR+b8Aut0uf/u3fztLslnnQAAuXLhQnX51nJLte4a33nrrH3760592gP8dvjyJPM+7P3vti2KW1af4nuDv//7vXyvL8kt5CyIyuH///s9+8YtfuNUXvhT+fxwhNMH5ibGjAAAAAElFTkSuQmCC;" vertex="1" parent="1">
          <mxGeometry x="50" y="25" width="80.81" height="110" as="geometry" />
        </mxCell>
      </root>
    </mxGraphModel>
  </diagram>
</mxfile>
